<svg xmlns="http://www.w3.org/2000/svg" viewBox="0 0 152.11 255.75"><defs><style>.cls-1{fill:#f8b890;}.cls-2{fill:#a26015;}.cls-3{fill:#e5b409;}.cls-4{fill:#716e6c;}.cls-5{fill:#e94756;}.cls-6{fill:#db4814;}.cls-7{fill:#f5a67b;}.cls-8{fill:#ed6d6d;}.cls-9{fill:#e41919;}.cls-16,.cls-9{opacity:0.16;}.cls-10{opacity:0.53;}.cls-11{fill:#e9520e;}.cls-12{fill:#221a16;}.cls-13{fill:#fff;}.cls-14{opacity:0.48;}.cls-15{fill:#d12017;}.cls-16{fill:#a21916;}.cls-17{fill:#e4e362;opacity:0.25;}.cls-18{fill:#b41543;opacity:0.28;}</style></defs><title>A</title><g id="Calque_2" data-name="Calque 2"><g id="Calque_1-2" data-name="Calque 1"><path class="cls-1" d="M51.23,175.42S30,183.15,26.4,213.92A69.71,69.71,0,0,0,27,231.13s-2.19,8.35.31,9,10.28,2.19,11.32.62-.68-8.24-.05-13.66,2.42-16.91,4-22.64c1.67-6,8.66-16.28,8.66-16.28Z"/><path class="cls-2" d="M25.81,223.41A66.69,66.69,0,0,1,32.7,223a45.29,45.29,0,0,1,6.57.52l-.42,7.82-12.62-.41Z"/><path class="cls-1" d="M100.56,175.42s21.22,7.73,24.83,38.5a69.16,69.16,0,0,1-.56,17.21s2.19,8.35-.31,9-10.28,2.19-11.32.62.68-8.24,0-13.66-2.42-16.91-4-22.64c-1.67-6-8.66-16.28-8.66-16.28Z"/><path class="cls-2" d="M126,223.41a66.62,66.62,0,0,0-6.88-.41,45.34,45.34,0,0,0-6.58.52l.42,7.82,12.62-.41Z"/><path class="cls-1" d="M110.8,223.1A96.66,96.66,0,0,0,108.09,202c-2.72-10.64-11.69-28.17-11.69-28.17l-20.34,1-20.35-1S46.74,191.39,44,202a96.32,96.32,0,0,0-2.72,21.07s9.6,4.17,12.52,5.22c2.44.87,16.84,1.16,21.5,1.23v0h1.45v0c4.66-.07,19.06-.36,21.5-1.23C101.2,227.27,110.8,223.1,110.8,223.1Z"/><path class="cls-1" d="M114.49,251.06c-3.34-1.25-6.78.56-9.08-.63-1.66-.85.63-8.13.94-13.56a51.7,51.7,0,0,0-.94-11.47l-29.14.79-29.15-.79a51.7,51.7,0,0,0-.94,11.47c.32,5.43,2.6,12.71.94,13.56-2.29,1.19-5.74-.62-9.08.63a4.39,4.39,0,0,0-2.81,4.69H59.54s-1.08-9.49,2.29-14.91c1.92-3.1,8.42-3.83,12.6-4h0s.63,0,1.65,0h.37c1,0,1.66,0,1.66,0h0c4.18.15,10.67.88,12.59,4,3.38,5.42,2.3,14.91,2.3,14.91h24.31A4.38,4.38,0,0,0,114.49,251.06Z"/><path class="cls-2" d="M38,251.06c3.34-1.25,6.79.56,9.08-.63.53-.27.65-1.19.57-2.5H59.63a37.32,37.32,0,0,0-.09,7.82H35.23A4.39,4.39,0,0,1,38,251.06Z"/><path class="cls-2" d="M114.49,251.06c-3.34-1.25-6.78.56-9.08-.63-.53-.27-.65-1.19-.57-2.5H92.91a37.32,37.32,0,0,1,.09,7.82h24.31A4.38,4.38,0,0,0,114.49,251.06Z"/><path class="cls-3" d="M102.86,173.36s9.63,34.69,8.78,46.51c-.34,4.64-.43,9.29-.43,9.29L41,229.44s-.57-11,.14-16.6,9-38.7,9-38.7Z"/><rect class="cls-4" x="97.31" y="174.21" width="5.01" height="16"/><circle class="cls-4" cx="92.99" cy="200.22" r="16.27" transform="translate(-123.37 244.08) rotate(-76.55)"/><circle class="cls-5" cx="92.99" cy="200.22" r="11.13" transform="translate(-123.32 244.29) rotate(-76.6)"/><rect class="cls-4" x="49.8" y="174.21" width="5.01" height="16" transform="translate(104.6 364.41) rotate(180)"/><circle class="cls-4" cx="59.95" cy="200.22" r="16.27" transform="translate(-44.93 19.44) rotate(-13.45)"/><circle class="cls-5" cx="59.95" cy="200.22" r="11.13" transform="translate(-44.76 19.34) rotate(-13.4)"/><path class="cls-3" d="M103,221.58c-6.63.73-23.6,1-26.95,1s-20.33-.3-27-1c-7.37-.81-8.2-1-8.2-1s-.3,6.8-.21,9.07c.21,5.43.76,9.36.76,9.36s16.35.66,34.61.66c17.42,0,34.6-.66,34.6-.66s.54-3.93,1-9.19a44.53,44.53,0,0,0-.48-9.24S110.38,220.77,103,221.58Z"/><polygon class="cls-2" points="98.26 221.62 98.61 243.9 55.71 243.9 56.33 222.01 98.26 221.62"/><rect class="cls-4" x="39.69" y="214.42" width="72.66" height="9.54" transform="translate(152.05 438.38) rotate(180)"/><path class="cls-6" d="M33.25,118.15s-.14-8.35-8.07-9.88-11.69,2.92-17.53,4.59-7.65,1-7.65,1,1.67,13.35,14.19,15.86,18.64-6.54,18.64-6.54Z"/><path class="cls-6" d="M118.87,118.15s.14-8.35,8.06-9.88,11.69,2.92,17.53,4.59,7.65,1,7.65,1-1.67,13.35-14.19,15.86-18.64-6.54-18.64-6.54Z"/><path class="cls-2" d="M114.45,117.73c1.34-2.19,5.33-2.75,6.89-.56s1.87,4.87.1,6.93a5,5,0,0,1-3.84,1.77,15,15,0,0,0-2.16-6.16A4.91,4.91,0,0,1,114.45,117.73Z"/><path class="cls-2" d="M37.66,117.73c-1.34-2.19-5.33-2.75-6.88-.56s-1.88,4.87-.11,6.93a5,5,0,0,0,3.84,1.77,15.2,15.2,0,0,1,2.16-6.16A4.79,4.79,0,0,0,37.66,117.73Z"/><path class="cls-7" d="M112.79,159c-.8-4.3,4.16-15.24,4.16-15.24a14,14,0,0,1,5.62-.67c3.41.37,7.08,2.56,6.88,10.3a14.82,14.82,0,0,1-.46,3.48C126.37,166.94,113.52,162.94,112.79,159Z"/><path class="cls-7" d="M22.45,156.73c-.29-6.49,2.23-9.13,5.06-10.06a11.43,11.43,0,0,1,5.36-.25,13.14,13.14,0,0,1,1.9.45s5.17,10.84,4.45,15.15S23.1,171,22.45,156.73Z"/><path class="cls-8" d="M117.44,148.78s9.36-2.71,7.66,4.8c-1.56,6.89-8.57,4.39-9,1.32A11.17,11.17,0,0,1,117.44,148.78Z"/><path class="cls-9" d="M112.79,159c-.8-4.3,4.16-15.24,4.16-15.24a14,14,0,0,1,5.62-.67,50.89,50.89,0,0,1-3,12.13c-2.33,5.84,4.27,4.81,9.41,1.65C126.37,166.94,113.52,162.94,112.79,159Z"/><path class="cls-8" d="M34.38,151.85s-9.42-2.52-7.57,5c1.7,6.86,8.65,4.23,9,1.14A11.21,11.21,0,0,0,34.38,151.85Z"/><path class="cls-9" d="M22.45,156.73c-.29-6.49,2.23-9.13,5.06-10.06-8.31,18.41,9.66,18.41,6.86,12.51-1.58-3.33-1.71-8.65-1.5-12.76a13.14,13.14,0,0,1,1.9.45s5.17,10.84,4.45,15.15S23.1,171,22.45,156.73Z"/><path class="cls-1" d="M100.4,176.14c-5.84,3.63-13.29,6-22.57,6-36.21.36-43.47-22.38-43-39.05.48-18.21,13.43-35.12,41.35-37.92s34.75,15.61,40.45,29a22.6,22.6,0,0,1,1.61,7.69C118.75,152.75,113.75,167.85,100.4,176.14Z"/><g class="cls-10"><circle class="cls-8" cx="53.3" cy="166.45" r="9.12"/><circle class="cls-8" cx="100.85" cy="163.82" r="9.12" transform="translate(-15.11 10.32) rotate(-5.45)"/></g><path class="cls-9" d="M100.4,176.14c-5.84,3.63-13.29,6-22.57,6-36.21.36-43.47-22.38-43-39.05.48-18.21,13.43-35.12,41.35-37.92s34.75,15.61,40.45,29a22.6,22.6,0,0,1,1.61,7.69c-6.57-3.89-22-8.53-39-6.46-22,2.66-20.92,18.44-17.19,33.81C65,181.47,86.44,180.43,100.4,176.14Z"/><path class="cls-11" d="M120.47,141.23a12.07,12.07,0,0,0-3.1-2.16,57.93,57.93,0,0,0-10.13-3.78c-1.13-12.4-10.59-21.67-8.53-18.4s4.22,17.41,4.22,17.41c-4.57-1-18.5-1.83-18.5-1.83-1.4-13.41-8.29-18.66-7-15.85s1.67,15.65,1.67,15.65c-2.14-.1-7.26.13-11.88.4s-8.88.57-8.88.57c-1-2.53-.69-18.49-2.69-16.19s-3.35,19.28-3.35,19.28c-9.61,1.87-20.18,8.3-20.18,8.3C28.51,137.58,27.2,106.45,56,95a67.6,67.6,0,0,1,18.41-4.77h0c14.87-1.43,29,8.11,29,8.11C124.21,109.29,120.47,141.23,120.47,141.23Z"/><circle class="cls-12" cx="103.53" cy="147.26" r="6.05" transform="translate(-48.73 51.24) rotate(-22.66)"/><path class="cls-13" d="M107.32,146a2,2,0,1,1-2-2A2,2,0,0,1,107.32,146Z"/><circle class="cls-12" cx="51.79" cy="147.26" r="6.05" transform="translate(-52.73 31.31) rotate(-22.66)"/><circle class="cls-13" cx="53.58" cy="146.02" r="2"/><path class="cls-11" d="M108.4,142.34H90.66a3.44,3.44,0,0,1-3.44-3.44h0a3.45,3.45,0,0,1,3.44-3.45H108.4a3.45,3.45,0,0,1,3.44,3.45h0A3.44,3.44,0,0,1,108.4,142.34Z"/><path class="cls-11" d="M62.91,142.34H45.18a3.45,3.45,0,0,1-3.45-3.44h0a3.46,3.46,0,0,1,3.45-3.45H62.91a3.46,3.46,0,0,1,3.45,3.45h0A3.45,3.45,0,0,1,62.91,142.34Z"/><path class="cls-8" d="M79.67,154.14a3.71,3.71,0,0,1-2.55.72c-6.39-1.51-9.26-7.35-.07-7.44.6,0,1.15,0,1.64.05C85.39,148,82.61,152.36,79.67,154.14Z"/><g class="cls-14"><path class="cls-15" d="M52.71,160.54a.86.86,0,0,1-1.72,0,.86.86,0,0,1,1.72,0Z"/><path class="cls-15" d="M56.3,163.64a.86.86,0,1,1-.87-.84A.86.86,0,0,1,56.3,163.64Z"/><path class="cls-15" d="M61,160.17a.86.86,0,0,1-.85.86.86.86,0,1,1,.85-.86Z"/><path class="cls-15" d="M43.78,158.13a.86.86,0,0,1-1.72,0,.86.86,0,0,1,1.72,0Z"/><path class="cls-15" d="M46.59,162.88a.85.85,0,0,1-.84.87.86.86,0,1,1,0-1.72A.86.86,0,0,1,46.59,162.88Z"/></g><g class="cls-14"><path class="cls-15" d="M100.74,160.07a.85.85,0,0,0,.87.85.86.86,0,0,0,0-1.71A.86.86,0,0,0,100.74,160.07Z"/><path class="cls-15" d="M97.21,163.24a.86.86,0,1,0,.85-.86A.86.86,0,0,0,97.21,163.24Z"/><path class="cls-15" d="M92.47,159.86a.86.86,0,0,0,1.72,0,.86.86,0,0,0-1.72,0Z"/><path class="cls-15" d="M109.62,157.49a.86.86,0,1,0,.85-.87A.87.87,0,0,0,109.62,157.49Z"/><path class="cls-15" d="M106.9,162.29a.86.86,0,0,0,.86.85.86.86,0,1,0-.86-.85Z"/></g><path class="cls-16" d="M55.66,117.05c-2,2.31-3.35,19.28-3.35,19.28-9.61,1.87-20.18,8.3-20.18,8.3C28.51,137.58,27.2,106.45,56,95a67.6,67.6,0,0,1,18.41-4.77s-19.67,8.85-7.13,42.42c-4.7.27-8.88.57-8.88.57C57.32,130.71,57.66,114.75,55.66,117.05Z"/><path class="cls-17" d="M120.47,141.23a12.07,12.07,0,0,0-3.1-2.16,48.15,48.15,0,0,0-14-40.72C124.21,109.29,120.47,141.23,120.47,141.23Z"/><path class="cls-18" d="M79.67,154.14a3.71,3.71,0,0,1-2.55.72c-6.39-1.51-9.26-7.35-.07-7.44.6,0,1.15,0,1.64.05l.56.75s-4.44-.79-3.28,2.93C76.48,152.79,78.06,153.67,79.67,154.14Z"/><path class="cls-5" d="M105.29,29.23A29.24,29.24,0,0,1,82.72,57.7L76.05,72,69.38,57.7a29.24,29.24,0,1,1,35.91-28.47Z"/><path class="cls-13" d="M74.53,24.45l-3.91.84a.73.73,0,0,1-.89-.58l-.27-2.18a.9.9,0,0,1,.22-.8l6.41-5.38H79.2a.83.83,0,0,1,.8.84V45.76a.83.83,0,0,1-.8.84H75.38a.85.85,0,0,1-.85-.84Z"/></g></g></svg>