<svg xmlns="http://www.w3.org/2000/svg" viewBox="0 0 125.02 99.14"><defs><style>.cls-1{fill:#db4814;}.cls-2{fill:#a26015;}.cls-3{fill:#f5a67b;}.cls-4{fill:#ed6d6d;}.cls-5{fill:#e41919;}.cls-13,.cls-5{opacity:0.16;}.cls-6{fill:#f8b890;}.cls-7{opacity:0.53;}.cls-8{fill:#e9520e;}.cls-9{fill:#221a16;}.cls-10{fill:#fff;}.cls-11{opacity:0.48;}.cls-12{fill:#d12017;}.cls-13{fill:#a21916;}.cls-14{fill:#e4e362;opacity:0.25;}.cls-15{fill:#b41543;opacity:0.28;}</style></defs><title>Fichier 9</title><g id="Calque_2" data-name="Calque 2"><g id="Calque_1-2" data-name="Calque 1"><path class="cls-1" d="M24.51,26.56s5.8-6,1.28-12.69S15.46,7.67,10.15,4.72,4.05,0,4.05,0-4.21,10.62,2.87,21.25s17.8,8.55,17.8,8.55Z"/><path class="cls-2" d="M27.93,29.38c.59-2.49-1.83-5.71-4.47-5.26s-4.78,2.11-5,4.82a5,5,0,0,0,1.47,4,15.15,15.15,0,0,1,5.88-2.83A4.74,4.74,0,0,0,27.93,29.38Z"/><path class="cls-1" d="M100.51,26.56s-5.8-6-1.28-12.69,10.33-6.2,15.64-9.15S121,0,121,0s8.26,10.62,1.18,21.25-17.8,8.55-17.8,8.55Z"/><path class="cls-2" d="M97.09,29.38c-.6-2.49,1.83-5.71,4.47-5.26s4.77,2.11,5,4.82a5,5,0,0,1-1.46,4,15.19,15.19,0,0,0-5.89-2.83A4.74,4.74,0,0,1,97.09,29.38Z"/><path class="cls-3" d="M99.64,76c-.8-4.3,4.16-15.24,4.16-15.24a14,14,0,0,1,5.62-.67c3.41.38,7.08,2.56,6.88,10.3a14.82,14.82,0,0,1-.46,3.48C113.22,83.89,100.37,79.9,99.64,76Z"/><path class="cls-3" d="M9.3,73.69c-.29-6.5,2.23-9.13,5.06-10.07a11.56,11.56,0,0,1,5.36-.25,13.14,13.14,0,0,1,1.9.45S26.79,74.66,26.07,79,10,88,9.3,73.69Z"/><path class="cls-4" d="M104.29,65.73s9.36-2.7,7.66,4.8c-1.56,6.89-8.57,4.4-9,1.32A11.17,11.17,0,0,1,104.29,65.73Z"/><path class="cls-5" d="M99.64,76c-.8-4.3,4.16-15.24,4.16-15.24a14,14,0,0,1,5.62-.67,50.67,50.67,0,0,1-3,12.13c-2.33,5.84,4.27,4.81,9.41,1.65C113.22,83.89,100.37,79.9,99.64,76Z"/><path class="cls-4" d="M21.23,68.81s-9.42-2.52-7.57,5c1.7,6.86,8.65,4.22,9,1.14A11.17,11.17,0,0,0,21.23,68.81Z"/><path class="cls-5" d="M9.3,73.69c-.29-6.5,2.23-9.13,5.06-10.07C6.05,82,24,82,21.22,76.14c-1.58-3.34-1.71-8.65-1.5-12.77a13.14,13.14,0,0,1,1.9.45S26.79,74.66,26.07,79,10,88,9.3,73.69Z"/><path class="cls-6" d="M87.25,93.09c-5.84,3.63-13.29,6-22.57,6-36.21.35-43.47-22.39-43-39.06C22.13,41.88,35.08,25,63,22.16s34.75,15.61,40.45,29a22.6,22.6,0,0,1,1.61,7.69C105.6,69.7,100.61,84.8,87.25,93.09Z"/><g class="cls-7"><circle class="cls-4" cx="40.15" cy="83.4" r="9.12"/><circle class="cls-4" cx="87.7" cy="80.77" r="9.12" transform="matrix(1, -0.09, 0.09, 1, -7.28, 8.7)"/></g><path class="cls-5" d="M87.25,93.09c-5.84,3.63-13.29,6-22.57,6-36.21.35-43.47-22.39-43-39.06C22.13,41.88,35.08,25,63,22.16s34.75,15.61,40.45,29a22.6,22.6,0,0,1,1.61,7.69c-6.56-3.88-22-8.53-39-6.46C44,55,45.1,70.79,48.83,86.16,51.81,98.42,73.29,97.38,87.25,93.09Z"/><path class="cls-8" d="M107.32,58.19a11.84,11.84,0,0,0-3.1-2.17,57.93,57.93,0,0,0-10.13-3.78C93,39.84,83.5,30.57,85.56,33.84s4.22,17.42,4.22,17.42c-4.57-1-18.5-1.83-18.5-1.83C69.88,36,63,30.77,64.29,33.57S66,49.22,66,49.22c-2.14-.1-7.26.13-11.88.4s-8.87.57-8.87.57c-1-2.53-.7-18.48-2.7-16.19s-3.35,19.28-3.35,19.28C29.55,55.15,19,61.59,19,61.59,15.36,54.53,14.05,23.4,42.8,12A67.6,67.6,0,0,1,61.21,7.2h0c14.87-1.43,29,8.11,29,8.11C111.06,26.25,107.32,58.19,107.32,58.19Z"/><circle class="cls-9" cx="90.38" cy="64.21" r="6.05" transform="translate(-17.76 39.77) rotate(-22.66)"/><path class="cls-10" d="M94.17,63a2,2,0,1,1-2-2A2,2,0,0,1,94.17,63Z"/><circle class="cls-9" cx="38.64" cy="64.21" r="6.05" transform="translate(-21.75 19.84) rotate(-22.66)"/><circle class="cls-10" cx="40.43" cy="62.97" r="2"/><path class="cls-8" d="M95.25,59.29H77.51a3.44,3.44,0,0,1-3.44-3.44h0a3.44,3.44,0,0,1,3.44-3.44H95.25a3.44,3.44,0,0,1,3.44,3.44h0A3.44,3.44,0,0,1,95.25,59.29Z"/><path class="cls-8" d="M49.76,59.29H32a3.44,3.44,0,0,1-3.44-3.44h0A3.44,3.44,0,0,1,32,52.41H49.76a3.45,3.45,0,0,1,3.45,3.44h0A3.45,3.45,0,0,1,49.76,59.29Z"/><path class="cls-4" d="M66.52,71.1a3.82,3.82,0,0,1-2.55.72c-6.39-1.52-9.26-7.35-.07-7.45.6,0,1.15,0,1.64,0C72.24,64.94,69.46,69.31,66.52,71.1Z"/><g class="cls-11"><path class="cls-12" d="M39.56,77.5a.86.86,0,1,1-.87-.85A.86.86,0,0,1,39.56,77.5Z"/><path class="cls-12" d="M43.15,80.6a.86.86,0,1,1-.87-.85A.86.86,0,0,1,43.15,80.6Z"/><path class="cls-12" d="M47.82,77.12A.86.86,0,0,1,47,78a.86.86,0,1,1,.85-.86Z"/><path class="cls-12" d="M30.63,75.09a.86.86,0,1,1-.87-.85A.86.86,0,0,1,30.63,75.09Z"/><path class="cls-12" d="M33.44,79.84a.84.84,0,0,1-.84.86.86.86,0,1,1,.84-.86Z"/></g><g class="cls-11"><path class="cls-12" d="M87.59,77a.85.85,0,0,0,.87.85.86.86,0,0,0,0-1.71A.86.86,0,0,0,87.59,77Z"/><path class="cls-12" d="M84.06,80.2a.86.86,0,0,0,1.72,0,.86.86,0,1,0-1.72,0Z"/><path class="cls-12" d="M79.32,76.81a.86.86,0,1,0,.85-.87A.87.87,0,0,0,79.32,76.81Z"/><path class="cls-12" d="M96.47,74.44a.86.86,0,0,0,1.72,0,.86.86,0,0,0-1.72,0Z"/><path class="cls-12" d="M93.75,79.24a.86.86,0,1,0,.85-.86A.85.85,0,0,0,93.75,79.24Z"/></g><path class="cls-13" d="M42.51,34c-2,2.31-3.35,19.28-3.35,19.28C29.55,55.15,19,61.59,19,61.59,15.36,54.53,14.05,23.4,42.8,12A67.6,67.6,0,0,1,61.21,7.2s-19.67,8.85-7.13,42.42c-4.7.27-8.87.57-8.87.57C44.17,47.66,44.51,31.71,42.51,34Z"/><path class="cls-14" d="M107.32,58.19a11.84,11.84,0,0,0-3.1-2.17,48.12,48.12,0,0,0-14-40.71C111.06,26.25,107.32,58.19,107.32,58.19Z"/><path class="cls-15" d="M66.52,71.1a3.82,3.82,0,0,1-2.55.72c-6.39-1.52-9.26-7.35-.07-7.45.6,0,1.15,0,1.64,0l.56.75s-4.44-.79-3.28,2.93C63.33,69.74,64.91,70.63,66.52,71.1Z"/></g></g></svg>