<svg xmlns="http://www.w3.org/2000/svg" viewBox="0 0 148.73 232.26"><defs><style>.cls-1{fill:#e94756;}.cls-2{font-size:44.49px;font-family:BrandonGrotesque-Bold, Brandon Grotesque;font-weight:700;}.cls-12,.cls-2{fill:#fff;}.cls-3{fill:#b57f3f;}.cls-4{fill:#a26015;}.cls-5{fill:#797775;}.cls-6{fill:#aba9a8;}.cls-7{fill:#f7ceb9;}.cls-8{fill:#f8d2be;}.cls-9{fill:#f4c3a8;}.cls-10{fill:#f9dbcc;}.cls-11{fill:#221a16;}.cls-13{fill:#af341c;}.cls-14{fill:#f2a89a;}.cls-15{fill:#c1481c;}</style></defs><title>archer_2</title><g id="Calque_2" data-name="Calque 2"><g id="Calque_15" data-name="Calque 15"><path class="cls-1" d="M102.85,29.23A29.25,29.25,0,0,1,80.28,57.7L73.61,72,66.94,57.7a29.24,29.24,0,1,1,35.91-28.47Z"/><text class="cls-2" transform="translate(65.82 46.6)">1</text><path class="cls-3" d="M8.53,150.71s5.35,24.77,10.7,37.26,10.7,19.22,10.7,19.22l11.89,3.17s8.12-33.69,9.51-39.83,2-20.22,2-20.22Z"/><ellipse class="cls-4" cx="30.82" cy="150.81" rx="22.2" ry="3.37"/><path class="cls-5" d="M15.67,148.35,9.89,129.52l-1.17.36,5.72,18.65,1.47,4.77,1.33.17Z"/><polygon class="cls-6" points="9.82 131.2 16.2 134.03 5.41 116.99 6.03 137.15 9.72 131.23 9.72 131.24 9.77 131.22 9.83 131.21 9.82 131.2"/><path class="cls-5" d="M22.3,147.7l-4.89-28.33-1.21.2,4.87,28.21,1.06,6.13,1.26.07Z"/><polygon class="cls-6" points="17.12 121.02 23.09 124.63 14.54 106.37 12.61 126.45 17.02 121.04 17.02 121.05 17.07 121.03 17.12 121.03 17.12 121.02"/><path class="cls-5" d="M28.43,147.46l-.7-21-1.23,0,.7,21,.22,6.66,1.23,0Z"/><polygon class="cls-6" points="27.22 128.02 32.63 132.42 26.67 113.15 22 132.77 27.11 128.02 27.11 128.03 27.16 128.03 27.22 128.03 27.22 128.02"/><path class="cls-7" d="M48.66,156s-20.15,7.33-23.59,36.56a66.13,66.13,0,0,0,.54,16.35s-2.08,7.93.29,8.53,9.76,2.08,10.75.59-.64-7.83,0-13,2.3-16.06,3.83-21.5c1.59-5.65,8.23-15.46,8.23-15.46Z"/><path class="cls-4" d="M24.52,201.54a61.73,61.73,0,0,1,6.54-.4,42.45,42.45,0,0,1,6.24.5l-.4,7.43-12-.39Z"/><path class="cls-8" d="M105.24,201.24a91.61,91.61,0,0,0-2.58-20c-2.58-10.11-11.1-26.76-11.1-26.76l-19.32.95-19.33-.95s-8.52,16.65-11.09,26.76a91.61,91.61,0,0,0-2.58,20s9.12,4,11.89,5c2.32.83,16,1.1,20.42,1.17v0h1.38v0c4.42-.07,18.1-.34,20.42-1.17C96.12,205.21,105.24,201.24,105.24,201.24Z"/><path class="cls-8" d="M133.25,179.91s5.35-3.11,7.46-3.17S142.36,188,142.36,188s-4.69,2.18-6.27,2.11S133.25,179.91,133.25,179.91Z"/><path class="cls-8" d="M88.33,158.64s17.24,30.28,20.61,34.35,7.59,5.58,13.54,3.2a53.9,53.9,0,0,0,9.11-4.59l-2.47-10.37s-6.54,4.36-10.28-.27c-1.37-1.7-3.17-9.11-7.13-15.32a27,27,0,0,0-10.31-9.38Z"/><path class="cls-8" d="M108.74,227.8c-3.17-1.19-6.44.53-8.62-.6-1.58-.81.59-7.72.89-12.88a48.88,48.88,0,0,0-.89-10.9l-27.68.76-27.68-.76a49.24,49.24,0,0,0-.9,10.9c.3,5.16,2.47,12.07.9,12.88-2.18,1.13-5.45-.59-8.63.6a4.16,4.16,0,0,0-2.67,4.46H56.55s-1-9,2.18-14.17c1.82-2.94,8-3.64,12-3.77h0s.6,0,1.57,0h.35c1,0,1.57,0,1.57,0h0c4,.13,10.14.83,12,3.77,3.2,5.15,2.18,14.17,2.18,14.17h23.09A4.18,4.18,0,0,0,108.74,227.8Z"/><path class="cls-4" d="M36.13,227.8c3.18-1.19,6.45.53,8.63-.6.5-.25.62-1.13.54-2.37H56.63a35.6,35.6,0,0,0-.08,7.43H33.46A4.16,4.16,0,0,1,36.13,227.8Z"/><path class="cls-4" d="M108.74,227.8c-3.17-1.19-6.44.53-8.62-.6-.5-.25-.62-1.13-.54-2.37H88.24a35.22,35.22,0,0,1,.09,7.43h23.09A4.18,4.18,0,0,0,108.74,227.8Z"/><path class="cls-4" d="M130.6,192.81a63.42,63.42,0,0,1-2.43-6.08,44.19,44.19,0,0,1-1.49-6.09l7.18-1.95,3.39,11.5Z"/><rect class="cls-3" x="92.42" y="154.81" width="4.76" height="15.19"/><circle class="cls-4" cx="88.33" cy="179.51" r="15.46" transform="translate(-106.81 223.65) rotate(-76.55)"/><circle class="cls-3" cx="88.33" cy="179.51" r="10.57" transform="translate(-106.77 223.84) rotate(-76.6)"/><rect class="cls-3" x="47.3" y="154.81" width="4.76" height="15.19" transform="translate(99.35 324.8) rotate(180)"/><circle class="cls-4" cx="56.94" cy="179.51" r="15.46" transform="translate(-40.2 18.17) rotate(-13.45)"/><circle class="cls-3" cx="56.94" cy="179.51" r="10.57" transform="translate(-40.05 18.08) rotate(-13.4)"/><path class="cls-4" d="M97.84,200c-6.3.83-22.42,1.13-25.6,1.18s-19.31-.35-25.6-1.18c-7-.93-7.79-1.12-7.79-1.12s-.28,7.77-.2,10.37c.2,6.21.72,10.7.72,10.7s15.53.76,32.87.76c16.55,0,32.86-.76,32.86-.76s.52-4.48.93-10.5a61.22,61.22,0,0,0-.46-10.57S104.84,199.06,97.84,200Z"/><path class="cls-5" d="M37.26,209.11s2.13,1.21,3.17-1.52c4.76-12.49,7.64-52,7.64-52l-3-.4a225.16,225.16,0,0,1-3,29.32C39.34,201.94,37.26,209.11,37.26,209.11Z"/><path class="cls-9" d="M110.44,125.49a13.18,13.18,0,0,1,8.34-1.24,6.35,6.35,0,0,1,5.08,4.16c1.79,5.75-1.82,9-6.9,9.84a20.32,20.32,0,0,1-6.87,0A64.09,64.09,0,0,1,110.44,125.49Z"/><path class="cls-9" d="M34.5,125.49a13.2,13.2,0,0,0-8.34-1.24,6.38,6.38,0,0,0-5.09,4.16c-1.78,5.75,1.83,9,6.91,9.84a20.32,20.32,0,0,0,6.87,0A64.09,64.09,0,0,0,34.5,125.49Z"/><path class="cls-10" d="M113.56,112.66c-1.19-10.31-6.34-16-14.07-21.4s-14.86-6.15-18-7.14c-2.33-.72-14.81-1-18,0s-10.3,1.79-18,7.14-12.88,11.09-14.07,21.4-.85,32.93,4.36,41.62c3.25,5.41,24.31,6.08,37.33,6,12.56.12,32.88-.55,36.13-6C114.41,145.59,114.75,123,113.56,112.66Z"/><circle class="cls-11" cx="98.33" cy="129.21" r="5.75" transform="translate(-42.18 47.85) rotate(-22.66)"/><path class="cls-12" d="M101.93,128a1.9,1.9,0,1,1-1.9-1.9A1.9,1.9,0,0,1,101.93,128Z"/><circle class="cls-11" cx="49.19" cy="129.21" r="5.75" transform="translate(-45.98 28.92) rotate(-22.66)"/><circle class="cls-12" cx="50.89" cy="128.04" r="1.9"/><path class="cls-13" d="M103,120.54H86.11a3.28,3.28,0,0,1-3.27-3.27h0A3.27,3.27,0,0,1,86.11,114H103a3.27,3.27,0,0,1,3.27,3.27h0A3.28,3.28,0,0,1,103,120.54Z"/><path class="cls-13" d="M59.75,120.54H42.91a3.27,3.27,0,0,1-3.27-3.27h0A3.26,3.26,0,0,1,42.91,114H59.75A3.26,3.26,0,0,1,63,117.27h0A3.27,3.27,0,0,1,59.75,120.54Z"/><path class="cls-14" d="M86.25,135c-1.45-3.7-13.74-19-13.74-19h0s-12.28,15.32-13.74,19-1.35,5.06,3.31,5.81a79.3,79.3,0,0,0,9.21,1v0h2.44v0a79.64,79.64,0,0,0,9.22-1C87.6,140.05,87.7,138.69,86.25,135Z"/><path class="cls-15" d="M112.9,101.56s.13-7.93,7.66-9.38,11.1,2.78,16.65,4.36,7.27.93,7.27.93-1.59,12.68-13.48,15.06-17.7-6.21-17.7-6.21Z"/><path class="cls-4" d="M108.7,101.17c1.28-2.08,5.07-2.62,6.54-.54s1.79,4.62.1,6.58a4.74,4.74,0,0,1-3.65,1.68,14.28,14.28,0,0,0-2-5.85A4.64,4.64,0,0,1,108.7,101.17Z"/><path class="cls-15" d="M71.74,82.73s.2,7.93,14.07,21.61a117,117,0,0,0,29.27,20.8s2.71-20.39-9.25-30.51C90.37,81.55,71.74,82.73,71.74,82.73Z"/><path class="cls-15" d="M31.58,101.56s-.14-7.93-7.67-9.38S12.82,95,7.27,96.54,0,97.47,0,97.47s1.59,12.68,13.48,15.06,17.7-6.21,17.7-6.21Z"/><path class="cls-4" d="M35.77,101.17c-1.28-2.08-5.06-2.62-6.54-.54s-1.78,4.62-.1,6.58a4.77,4.77,0,0,0,3.65,1.68,14.43,14.43,0,0,1,2-5.85A4.64,4.64,0,0,0,35.77,101.17Z"/><path class="cls-15" d="M72.73,82.73s-.2,7.93-14.07,21.61a116.82,116.82,0,0,1-29.26,20.8s-2.72-20.39,9.24-30.51C54.1,81.55,72.73,82.73,72.73,82.73Z"/><rect class="cls-5" x="116.61" y="140.77" width="0.91" height="79.68"/><path class="cls-3" d="M143.05,160.93c-4.11-8.33-12.27-12.34-20-18.23a34.74,34.74,0,0,1-10.51-13.16,21,21,0,0,0,9.66,17.87c10.38,6.76,16.3,11.59,18.59,18.11a41.12,41.12,0,0,1,1.75,11.83h-.06s.06.89.07,2.29-.07,2.3-.07,2.3h.06a41.12,41.12,0,0,1-1.75,11.83c-2.29,6.52-8.21,11.35-18.59,18.11a21,21,0,0,0-9.66,17.87A34.74,34.74,0,0,1,123,216.59c7.77-5.89,15.93-9.9,20-18.23,3-6.16,3.16-14.68,3-18.72C146.21,175.61,146.08,167.09,143.05,160.93Z"/><path class="cls-8" d="M140.24,175.74l-.07,13.62,4.94.42a3.36,3.36,0,0,0,3.62-3.46l-.11-7.16a3.12,3.12,0,0,0-2.9-3.08Z"/></g></g></svg>