<svg xmlns="http://www.w3.org/2000/svg" viewBox="0 0 53.63 28.79"><defs><style>.cls-1{fill:#f4c3a8;}.cls-2{fill:#f9dbcc;}.cls-3{fill:#221a16;}.cls-4{fill:#fff;}.cls-5{fill:#af341c;}.cls-6{fill:#f2a89a;}.cls-7{fill:#c1481c;}.cls-8{fill:#a26015;}</style></defs><title>archer_face</title><g id="Calque_2" data-name="Calque 2"><g id="Calque_15" data-name="Calque 15"><path class="cls-1" d="M41,15.88a4.9,4.9,0,0,1,3.09-.46A2.35,2.35,0,0,1,46,17c.66,2.13-.68,3.35-2.56,3.65a7.8,7.8,0,0,1-2.55,0A23.77,23.77,0,0,1,41,15.88Z"/><path class="cls-1" d="M12.81,15.88a4.94,4.94,0,0,0-3.1-.46A2.35,2.35,0,0,0,7.82,17c-.66,2.13.68,3.35,2.57,3.65a7.8,7.8,0,0,0,2.55,0A24.55,24.55,0,0,0,12.81,15.88Z"/><path class="cls-2" d="M42.15,11.12c-.44-3.83-2.35-6-5.22-7.95A18.71,18.71,0,0,0,30.24.53a23.27,23.27,0,0,0-6.67,0,18.67,18.67,0,0,0-6.7,2.64c-2.87,2-4.78,4.12-5.22,8s-.32,12.22,1.62,15.45c1.2,2,9,2.26,13.86,2.21,4.66,0,12.2-.2,13.41-2.21C42.47,23.34,42.6,14.94,42.15,11.12Z"/><circle class="cls-3" cx="36.5" cy="17.26" r="2.13"/><path class="cls-4" d="M37.84,16.83a.7.7,0,0,1-.71.7.7.7,0,0,1-.7-.7.7.7,0,0,1,.7-.71A.71.71,0,0,1,37.84,16.83Z"/><circle class="cls-3" cx="18.26" cy="17.26" r="2.13"/><circle class="cls-4" cx="18.89" cy="16.83" r="0.7"/><path class="cls-5" d="M38.22,14H32a1.22,1.22,0,0,1-1.22-1.21h0A1.22,1.22,0,0,1,32,11.62h6.25a1.21,1.21,0,0,1,1.21,1.21h0A1.21,1.21,0,0,1,38.22,14Z"/><path class="cls-5" d="M22.18,14H15.93a1.22,1.22,0,0,1-1.22-1.21h0a1.22,1.22,0,0,1,1.22-1.21h6.25a1.22,1.22,0,0,1,1.22,1.21h0A1.22,1.22,0,0,1,22.18,14Z"/><path class="cls-6" d="M32,19.41c-.54-1.37-5.1-7.06-5.1-7.06h0s-4.56,5.69-5.1,7.06-.5,1.87,1.23,2.16a29.42,29.42,0,0,0,3.42.36v0h.91v0a29.42,29.42,0,0,0,3.42-.36C32.52,21.28,32.56,20.78,32,19.41Z"/><path class="cls-7" d="M41.91,7a3.64,3.64,0,0,1,2.84-3.48c2.8-.54,4.12,1,6.18,1.62s2.7.34,2.7.34-.59,4.71-5,5.59a6.41,6.41,0,0,1-6.57-2.31Z"/><path class="cls-8" d="M40.35,6.85a1.57,1.57,0,0,1,2.43-.2,2,2,0,0,1,0,2.45,1.8,1.8,0,0,1-1.36.62,5.27,5.27,0,0,0-.76-2.17A1.71,1.71,0,0,1,40.35,6.85Z"/><path class="cls-7" d="M26.63,0S26.71,3,31.86,8a43.32,43.32,0,0,0,10.86,7.72s1-7.57-3.43-11.33A19.51,19.51,0,0,0,26.63,0Z"/><path class="cls-7" d="M11.72,7A3.64,3.64,0,0,0,8.88,3.52C6.08,3,4.76,4.55,2.7,5.14S0,5.48,0,5.48s.59,4.71,5,5.59a6.41,6.41,0,0,0,6.57-2.31Z"/><path class="cls-8" d="M13.28,6.85a1.57,1.57,0,0,0-2.43-.2,2,2,0,0,0,0,2.45,1.8,1.8,0,0,0,1.36.62,5.27,5.27,0,0,1,.76-2.17A1.71,1.71,0,0,0,13.28,6.85Z"/><path class="cls-7" d="M27,0S26.92,3,21.78,8a43.46,43.46,0,0,1-10.87,7.72s-1-7.57,3.44-11.33A19.48,19.48,0,0,1,27,0Z"/></g></g></svg>