<svg xmlns="http://www.w3.org/2000/svg" viewBox="0 0 106.21 255.75"><defs><style>.cls-1{fill:#887d70;}.cls-2{fill:#b5b1af;}.cls-3{fill:#a26015;}.cls-4{fill:#e5b409;}.cls-5{fill:#e94756;}.cls-6{fill:#716e6c;}.cls-7{fill:#95908d;}.cls-8{fill:#d5b894;}.cls-9{fill:#f5a67b;}.cls-10{fill:#ed6d6d;}.cls-11{fill:#e41919;}.cls-11,.cls-16{opacity:0.16;}.cls-12{fill:#f8b890;}.cls-13{opacity:0.53;}.cls-14{opacity:0.48;}.cls-15{fill:#d12017;}.cls-16{fill:#a21916;}.cls-17{fill:#e4e362;opacity:0.25;}.cls-18{fill:#b41543;opacity:0.28;}.cls-19{fill:#221a16;}.cls-20{fill:#fff;}.cls-21{fill:#cfa409;}.cls-22{fill:#eec602;}</style></defs><title>B</title><g id="Calque_2" data-name="Calque 2"><g id="Calque_1-2" data-name="Calque 1"><path class="cls-1" d="M14.38,251c3.38-1.27,6.86.56,9.18-.64,1.68-.86-.63-8.23-.95-13.72A52.61,52.61,0,0,1,23.56,225l29.49.81L82.53,225a51.93,51.93,0,0,1,1,11.61c-.32,5.49-2.63,12.86-1,13.72,2.32,1.2,5.81-.63,9.18.64a4.42,4.42,0,0,1,2.85,4.74H70s1.09-9.6-2.32-15.09c-2-3.13-8.51-3.87-12.74-4h0s-.64,0-1.68,0h-.37c-1,0-1.67,0-1.67,0h0c-4.23.15-10.8.89-12.75,4-3.41,5.49-2.32,15.09-2.32,15.09H11.53A4.42,4.42,0,0,1,14.38,251Z"/><path class="cls-2" d="M82.52,243.62H69a21.89,21.89,0,0,1,.9,4.22H82C82,246.67,82.26,245.2,82.52,243.62Z"/><path class="cls-3" d="M91.71,251c-3.37-1.27-6.86.56-9.18-.64-.53-.27-.66-1.21-.58-2.53H69.88a37.37,37.37,0,0,1,.09,7.91H94.56A4.42,4.42,0,0,0,91.71,251Z"/><path class="cls-2" d="M23.57,243.62H37.11a23.49,23.49,0,0,0-.9,4.22H24.14A42,42,0,0,0,23.57,243.62Z"/><path class="cls-3" d="M14.38,251c3.38-1.27,6.86.56,9.18-.64.54-.27.66-1.21.58-2.53H36.21a38.17,38.17,0,0,0-.09,7.91H11.53A4.42,4.42,0,0,1,14.38,251Z"/><path class="cls-4" d="M81.69,174.24S89,209.14,88.15,221c-.33,4.63-.42,9.29-.42,9.29l-70.22.28s-.56-11,.14-16.6,9-38.7,9-38.7Z"/><polygon class="cls-5" points="73.72 174.24 74.07 241.38 31.17 241.38 31.79 175.43 73.72 174.24"/><rect class="cls-6" x="17.24" y="208.86" width="71.63" height="3.52" transform="translate(106.11 421.24) rotate(180)"/><path class="cls-7" d="M93.68,180.58s6.75,2.42,7.59,5.27,3.38,19.42,3.7,27.87a122.94,122.94,0,0,1-.74,17s2.22,8.44-.32,9.07-10.39,2.22-11.45.64.69-8.34.05-13.83-2.11-16-3.27-22S86.6,193,86.6,193Z"/><path class="cls-2" d="M89,203.56a122.11,122.11,0,0,1,15.06.1c0,.3.07.6.1.89a120.16,120.16,0,0,1-14.94.12v0Z"/><path class="cls-2" d="M104.9,212.42c0,.31,0,.61,0,.9a101,101,0,0,1-14.24,0c0-.29-.09-.58-.13-.86A99.17,99.17,0,0,1,104.9,212.42Z"/><path class="cls-2" d="M104.51,228c-.15,1.68-.28,2.71-.28,2.71s2.22,8.44-.32,9.07-10.39,2.22-11.45.64.6-8,.09-13.44C96.54,226.55,100.52,227.32,104.51,228Z"/><path class="cls-2" d="M89,203.56a122.11,122.11,0,0,1,15.06.1c0,.3.07.6.1.89a120.16,120.16,0,0,1-14.94.12v0Z"/><path class="cls-2" d="M104.9,212.42c0,.31,0,.61,0,.9a101,101,0,0,1-14.24,0c0-.29-.09-.58-.13-.86A99.17,99.17,0,0,1,104.9,212.42Z"/><path class="cls-7" d="M92.55,227c4-.43,8,.34,12,1-.15,1.68-.28,2.71-.28,2.71s.21.8.43,1.93a61,61,0,0,0-12.22,1A38.58,38.58,0,0,0,92.55,227Z"/><polygon class="cls-2" points="106.21 219.87 104.63 231.06 92.07 231.69 90.8 218.82 106.21 219.87"/><path class="cls-6" d="M67.49,173.54a28.36,28.36,0,0,0,10.34,16.68c9.39,7.17,25.75,9.49,25.75,9.49s4.12-5.48,0-14.35c-4.38-9.43-19.21-11-23.43-11.4S67.49,173.54,67.49,173.54Z"/><path class="cls-8" d="M91.53,180c-.42.83,1.09,2.43,3.37,3.58s4.47,1.42,4.89.6-1.1-2.43-3.38-3.58S92,179.18,91.53,180Z"/><path class="cls-7" d="M12.64,180.58S5.89,183,5,185.85s-3.38,19.42-3.69,27.87a121.16,121.16,0,0,0,.74,17s-2.22,8.44.31,9.07,10.4,2.22,11.45.64-.68-8.34,0-13.83,2.11-16,3.27-22S19.71,193,19.71,193Z"/><path class="cls-2" d="M17.29,203.56a122.28,122.28,0,0,0-15.07.1c0,.3-.06.6-.1.89a120.34,120.34,0,0,0,15,.12v0C17.14,204.28,17.22,203.92,17.29,203.56Z"/><path class="cls-2" d="M1.41,212.42c0,.31,0,.61,0,.9a101,101,0,0,0,14.24,0c0-.29.09-.58.13-.86A99.31,99.31,0,0,0,1.41,212.42Z"/><path class="cls-2" d="M1.81,228c.15,1.68.28,2.71.28,2.71s-2.22,8.44.31,9.07,10.4,2.22,11.45.64-.6-8-.08-13.44C9.78,226.55,5.79,227.32,1.81,228Z"/><path class="cls-2" d="M17.29,203.56a122.28,122.28,0,0,0-15.07.1c0,.3-.06.6-.1.89a120.34,120.34,0,0,0,15,.12v0C17.14,204.28,17.22,203.92,17.29,203.56Z"/><path class="cls-2" d="M1.41,212.42c0,.31,0,.61,0,.9a101,101,0,0,0,14.24,0c0-.29.09-.58.13-.86A99.31,99.31,0,0,0,1.41,212.42Z"/><path class="cls-7" d="M13.77,227c-4-.43-8,.34-12,1,.15,1.68.28,2.71.28,2.71s-.21.8-.43,1.93a60.92,60.92,0,0,1,12.21,1A38.58,38.58,0,0,1,13.77,227Z"/><polygon class="cls-2" points="0.1 219.87 1.69 231.06 14.25 231.69 15.51 218.82 0.1 219.87"/><path class="cls-6" d="M38.83,173.54a28.42,28.42,0,0,1-10.34,16.68c-9.4,7.17-25.75,9.49-25.75,9.49s-4.12-5.48,0-14.35c4.37-9.43,19.2-11,23.42-11.4S38.83,173.54,38.83,173.54Z"/><path class="cls-8" d="M14.79,180c.41.83-1.1,2.43-3.38,3.58S7,185,6.53,184.18s1.09-2.43,3.37-3.58S14.37,179.18,14.79,180Z"/><path class="cls-9" d="M88.23,160.22C87.66,156,93,145.53,93,145.53a13.64,13.64,0,0,1,5.53-.38c3.32.53,6.8,2.85,6.23,10.41a15.1,15.1,0,0,1-.62,3.38C101.12,168.61,88.76,164.08,88.23,160.22Z"/><path class="cls-9" d="M0,153.55c0-6.36,2.62-8.81,5.44-9.59a11.29,11.29,0,0,1,5.25,0,13.66,13.66,0,0,1,1.83.54s4.53,10.85,3.62,15S-.07,167.57,0,153.55Z"/><path class="cls-10" d="M93.28,150.42s9.28-2.19,7.26,5.07c-1.87,6.66-8.6,3.88-8.85.85A10.94,10.94,0,0,1,93.28,150.42Z"/><path class="cls-11" d="M88.23,160.22C87.66,156,93,145.53,93,145.53a13.64,13.64,0,0,1,5.53-.38,49.72,49.72,0,0,1-3.51,11.71c-2.57,5.6,3.93,4.92,9.12,2.08C101.12,168.61,88.76,164.08,88.23,160.22Z"/><path class="cls-10" d="M11.9,149.37s-9.08-2.93-7.64,4.47c1.32,6.79,8.25,4.55,8.74,1.55A10.86,10.86,0,0,0,11.9,149.37Z"/><path class="cls-11" d="M0,153.55c0-6.36,2.62-8.81,5.44-9.59-9,17.6,8.54,18.48,6.1,12.57-1.39-3.33-1.26-8.54-.85-12.56a13.66,13.66,0,0,1,1.83.54s4.53,10.85,3.62,15S-.07,167.57,0,153.55Z"/><path class="cls-12" d="M75.28,176.35c-5.9,3.26-13.29,5.17-22.37,4.8-35.43-1.42-41.42-24-40.17-40.3C14.1,123.07,27.59,107.17,55,105.79s33.22,17,38.15,30.3a22.5,22.5,0,0,1,1.19,7.6C94.37,154.37,88.74,168.89,75.28,176.35Z"/><g class="cls-13"><circle class="cls-10" cx="29.69" cy="164.56" r="8.93"/><circle class="cls-10" cx="76.32" cy="164.32" r="8.93" transform="translate(-7.34 3.61) rotate(-2.59)"/></g><path class="cls-11" d="M75.28,176.35c-5.9,3.26-13.29,5.17-22.37,4.8-35.43-1.42-41.42-24-40.17-40.3C14.1,123.07,27.59,107.17,55,105.79s33.22,17,38.15,30.3a22.5,22.5,0,0,1,1.19,7.6c-6.23-4.12-21.1-9.41-37.86-8.22-21.63,1.53-21.36,17-18.46,32.22C40.36,179.82,61.41,179.85,75.28,176.35Z"/><path class="cls-4" d="M96.61,143.19a11.72,11.72,0,0,0-2.93-2.27A55.94,55.94,0,0,0,84,136.73c-.51-12.18-9.3-21.71-7.45-18.41s3.28,17.24,3.28,17.24c-4.42-1.19-18-2.7-18-2.7-.71-13.18-7.19-18.65-6.06-15.85s.87,15.39.87,15.39c-2.08-.2-7.1-.22-11.64-.19s-8.7.12-8.7.12c-.89-2.52.23-18.11-1.84-16s-4.23,18.69-4.23,18.69c-9.48,1.36-20.14,7.14-20.14,7.14-3.19-7.08-3-37.59,25.73-47.36A66.39,66.39,0,0,1,54,91.07h0c14.61-.67,19.88,6.05,19.88,6.05s-8-10.5-4.23-12.08,8.4,13.24,8.4,13.24c3.9-4.56,14.47-8.1,15.58-4.83s-11.39,6.88-11.69,7h0C101.83,112.14,96.61,143.19,96.61,143.19Z"/><path class="cls-10" d="M56.08,153.82a3.7,3.7,0,0,1-2.53.58c-6.17-1.8-8.69-7.64.3-7.28a14.6,14.6,0,0,1,1.6.13C62,148.08,59,152.22,56.08,153.82Z"/><g class="cls-14"><path class="cls-15" d="M29.4,158.76a.85.85,0,0,1-.87.81.84.84,0,1,1,.87-.81Z"/><path class="cls-15" d="M32.76,162a.84.84,0,1,1-.81-.87A.84.84,0,0,1,32.76,162Z"/><path class="cls-15" d="M37.5,158.79a.84.84,0,1,1-.81-.87A.84.84,0,0,1,37.5,158.79Z"/><path class="cls-15" d="M20.78,156a.84.84,0,1,1-.8-.87A.83.83,0,0,1,20.78,156Z"/><path class="cls-15" d="M23.31,160.75a.84.84,0,0,1-.88.8.83.83,0,0,1-.8-.87.84.84,0,0,1,1.68.07Z"/></g><g class="cls-14"><path class="cls-15" d="M76.4,160.65a.84.84,0,1,0,.87-.81A.84.84,0,0,0,76.4,160.65Z"/><path class="cls-15" d="M72.79,163.58a.84.84,0,1,0,.87-.81A.84.84,0,0,0,72.79,163.58Z"/><path class="cls-15" d="M68.32,160a.84.84,0,0,0,.81.88.85.85,0,0,0,.87-.81.84.84,0,0,0-1.68-.07Z"/><path class="cls-15" d="M85.21,158.56a.84.84,0,0,0,.8.87.83.83,0,0,0,.87-.81.84.84,0,1,0-1.67-.06Z"/><path class="cls-15" d="M82.31,163.12a.84.84,0,0,0,1.68.07.85.85,0,0,0-.81-.87A.84.84,0,0,0,82.31,163.12Z"/></g><path class="cls-16" d="M34.42,116.37c-2.08,2.16-4.23,18.69-4.23,18.69-9.48,1.36-20.14,7.14-20.14,7.14-3.19-7.08-3-37.59,25.73-47.36A66.39,66.39,0,0,1,54,91.07s-19.66,7.7-9,41.14c-4.6,0-8.7.12-8.7.12C35.37,129.81,36.49,114.22,34.42,116.37Z"/><path class="cls-17" d="M96.61,143.19a11.72,11.72,0,0,0-2.93-2.27A47.12,47.12,0,0,0,82,100.42C101.83,112.14,96.61,143.19,96.61,143.19Z"/><path class="cls-18" d="M56.08,153.82a3.7,3.7,0,0,1-2.53.58c-6.17-1.8-8.69-7.64.3-7.28a14.6,14.6,0,0,1,1.6.13L56,148s-4.31-1-3.36,2.7A4.93,4.93,0,0,0,56.08,153.82Z"/><circle class="cls-19" cx="81.1" cy="149.36" r="6.05" transform="translate(-51.28 42.77) rotate(-22.66)"/><path class="cls-20" d="M84.89,148.13a2,2,0,1,1-2-2A2,2,0,0,1,84.89,148.13Z"/><circle class="cls-19" cx="29.35" cy="149.36" r="6.05" transform="translate(-55.27 22.83) rotate(-22.66)"/><circle class="cls-20" cx="31.14" cy="148.13" r="2"/><path class="cls-21" d="M86,144.45H68.23A3.45,3.45,0,0,1,64.79,141h0a3.44,3.44,0,0,1,3.44-3.44H86A3.44,3.44,0,0,1,89.41,141h0A3.45,3.45,0,0,1,86,144.45Z"/><path class="cls-21" d="M40.48,144.45H22.75A3.45,3.45,0,0,1,19.3,141h0a3.44,3.44,0,0,1,3.45-3.44H40.48A3.44,3.44,0,0,1,43.92,141h0A3.45,3.45,0,0,1,40.48,144.45Z"/><path class="cls-22" d="M62.47,200.73h-15a2.32,2.32,0,0,0-2.3,2.31V217.8a2.31,2.31,0,0,0,2.3,2.3h15a2.31,2.31,0,0,0,2.3-2.3V203A2.32,2.32,0,0,0,62.47,200.73Zm-.92,14.64A1.55,1.55,0,0,1,60,216.92H50a1.55,1.55,0,0,1-1.54-1.55v-9.9A1.55,1.55,0,0,1,50,203.92H60a1.55,1.55,0,0,1,1.54,1.55Z"/><rect class="cls-22" x="46.54" y="209.31" width="7.7" height="2.52" rx="1.26"/><path class="cls-5" d="M82.34,29.23A29.24,29.24,0,0,1,59.77,57.7L53.1,72,46.43,57.7A29.24,29.24,0,1,1,82.34,29.23Z"/><path class="cls-20" d="M43.69,42.74c2.93-3.56,8.54-10.86,11.52-14.82A8.5,8.5,0,0,0,57.48,23c0-2-1.51-4.05-4.72-4.05-2.13,0-4,1.51-5,2.63a.82.82,0,0,1-1.2,0l-2.14-2.14a.89.89,0,0,1,0-1.16s3.47-4.36,8.76-4.36c6.37,0,9.93,4,9.93,8.86,0,2.89-1.25,4.71-3,7.21-1.91,2.71-5.29,6.89-7.65,9.87h9.61a.88.88,0,0,1,.85.85v3.07a.87.87,0,0,1-.85.84H44.53a.84.84,0,0,1-.84-.84Z"/></g></g></svg>