<svg xmlns="http://www.w3.org/2000/svg" viewBox="0 0 104.86 96.28"><defs><style>.cls-1{fill:#f5a67b;}.cls-2{fill:#ed6d6d;}.cls-3{fill:#e41919;}.cls-3,.cls-9{opacity:0.16;}.cls-4{fill:#f8b890;}.cls-5{opacity:0.53;}.cls-6{fill:#e5b409;}.cls-7{opacity:0.48;}.cls-8{fill:#d12017;}.cls-9{fill:#a21916;}.cls-10{fill:#e4e362;opacity:0.25;}.cls-11{fill:#b41543;opacity:0.28;}.cls-12{fill:#221a16;}.cls-13{fill:#fff;}.cls-14{fill:#cfa409;}</style></defs><title>B_tete</title><g id="Calque_2" data-name="Calque 2"><g id="Calque_1-2" data-name="Calque 1"><path class="cls-1" d="M88.23,75.3C87.66,71.06,93,60.61,93,60.61a13.64,13.64,0,0,1,5.53-.38c3.32.53,6.8,2.85,6.23,10.41a15.1,15.1,0,0,1-.62,3.38C101.12,83.69,88.76,79.16,88.23,75.3Z"/><path class="cls-1" d="M0,68.63C0,62.27,2.62,59.82,5.44,59a11.29,11.29,0,0,1,5.25,0,13.66,13.66,0,0,1,1.83.54s4.53,10.85,3.62,15S-.07,82.65,0,68.63Z"/><path class="cls-2" d="M93.28,65.5s9.28-2.19,7.26,5.07c-1.87,6.66-8.6,3.88-8.85.85A10.94,10.94,0,0,1,93.28,65.5Z"/><path class="cls-3" d="M88.23,75.3C87.66,71.06,93,60.61,93,60.61a13.64,13.64,0,0,1,5.53-.38,49.72,49.72,0,0,1-3.51,11.71c-2.57,5.6,3.93,4.92,9.12,2.08C101.12,83.69,88.76,79.16,88.23,75.3Z"/><path class="cls-2" d="M11.9,64.45s-9.08-2.93-7.64,4.47c1.32,6.79,8.25,4.55,8.74,1.55A10.86,10.86,0,0,0,11.9,64.45Z"/><path class="cls-3" d="M0,68.63C0,62.27,2.62,59.82,5.44,59c-9,17.6,8.54,18.48,6.1,12.57-1.39-3.33-1.26-8.54-.85-12.56a13.66,13.66,0,0,1,1.83.54s4.53,10.85,3.62,15S-.07,82.65,0,68.63Z"/><path class="cls-4" d="M75.28,91.43c-5.9,3.26-13.29,5.17-22.37,4.8-35.43-1.42-41.42-24-40.17-40.3C14.1,38.15,27.59,22.25,55,20.87s33.22,17,38.15,30.3a22.5,22.5,0,0,1,1.19,7.6C94.37,69.45,88.74,84,75.28,91.43Z"/><g class="cls-5"><circle class="cls-2" cx="29.69" cy="79.64" r="8.93"/><circle class="cls-2" cx="76.32" cy="79.4" r="8.93" transform="translate(-3.51 3.53) rotate(-2.59)"/></g><path class="cls-3" d="M75.28,91.43c-5.9,3.26-13.29,5.17-22.37,4.8-35.43-1.42-41.42-24-40.17-40.3C14.1,38.15,27.59,22.25,55,20.87s33.22,17,38.15,30.3a22.5,22.5,0,0,1,1.19,7.6c-6.23-4.12-21.1-9.41-37.86-8.22-21.63,1.53-21.36,17-18.46,32.22C40.36,94.9,61.41,94.93,75.28,91.43Z"/><path class="cls-6" d="M96.61,58.27A11.72,11.72,0,0,0,93.68,56,55.94,55.94,0,0,0,84,51.81c-.51-12.18-9.3-21.71-7.45-18.41S79.8,50.64,79.8,50.64c-4.42-1.19-18-2.7-18-2.7-.71-13.18-7.19-18.65-6.06-15.85s.87,15.39.87,15.39c-2.08-.2-7.1-.22-11.64-.19s-8.7.12-8.7.12c-.89-2.52.23-18.11-1.84-16s-4.23,18.69-4.23,18.69c-9.48,1.36-20.14,7.14-20.14,7.14C6.86,50.2,7.1,19.69,35.78,9.92A66.39,66.39,0,0,1,54,6.15h0c14.61-.67,19.88,6,19.88,6S65.88,1.7,69.67.12s8.4,13.24,8.4,13.24C82,8.8,92.54,5.26,93.65,8.53S82.26,15.41,82,15.5h0C101.83,27.22,96.61,58.27,96.61,58.27Z"/><path class="cls-2" d="M56.08,68.9a3.7,3.7,0,0,1-2.53.58c-6.17-1.8-8.69-7.64.3-7.28a14.6,14.6,0,0,1,1.6.13C62,63.16,59,67.3,56.08,68.9Z"/><g class="cls-7"><path class="cls-8" d="M29.4,73.84a.85.85,0,0,1-.87.81.84.84,0,1,1,.87-.81Z"/><path class="cls-8" d="M32.76,77.05a.84.84,0,1,1-.81-.87A.84.84,0,0,1,32.76,77.05Z"/><path class="cls-8" d="M37.5,73.87a.84.84,0,1,1-.81-.87A.84.84,0,0,1,37.5,73.87Z"/><path class="cls-8" d="M20.78,71.05a.84.84,0,1,1-.8-.87A.83.83,0,0,1,20.78,71.05Z"/><path class="cls-8" d="M23.31,75.83a.84.84,0,0,1-.88.8.83.83,0,0,1-.8-.87.84.84,0,0,1,1.68.07Z"/></g><g class="cls-7"><path class="cls-8" d="M76.4,75.73a.84.84,0,1,0,.87-.81A.84.84,0,0,0,76.4,75.73Z"/><path class="cls-8" d="M72.79,78.66a.84.84,0,1,0,.87-.81A.84.84,0,0,0,72.79,78.66Z"/><path class="cls-8" d="M68.32,75.11a.84.84,0,0,0,.81.88.85.85,0,0,0,.87-.81.84.84,0,0,0-1.68-.07Z"/><path class="cls-8" d="M85.21,73.64a.84.84,0,0,0,.8.87.83.83,0,0,0,.87-.81.84.84,0,1,0-1.67-.06Z"/><path class="cls-8" d="M82.31,78.2a.84.84,0,0,0,1.68.07.85.85,0,0,0-.81-.87A.84.84,0,0,0,82.31,78.2Z"/></g><path class="cls-9" d="M34.42,31.45c-2.08,2.16-4.23,18.69-4.23,18.69-9.48,1.36-20.14,7.14-20.14,7.14C6.86,50.2,7.1,19.69,35.78,9.92A66.39,66.39,0,0,1,54,6.15s-19.66,7.7-9,41.14c-4.6,0-8.7.12-8.7.12C35.37,44.89,36.49,29.3,34.42,31.45Z"/><path class="cls-10" d="M96.61,58.27A11.72,11.72,0,0,0,93.68,56,47.12,47.12,0,0,0,82,15.5C101.83,27.22,96.61,58.27,96.61,58.27Z"/><path class="cls-11" d="M56.08,68.9a3.7,3.7,0,0,1-2.53.58c-6.17-1.8-8.69-7.64.3-7.28a14.6,14.6,0,0,1,1.6.13l.51.76s-4.31-1-3.36,2.7A4.93,4.93,0,0,0,56.08,68.9Z"/><circle class="cls-12" cx="81.1" cy="64.44" r="6.05" transform="translate(-18.57 36.21) rotate(-22.66)"/><path class="cls-13" d="M84.89,63.21a2,2,0,1,1-2-2A2,2,0,0,1,84.89,63.21Z"/><circle class="cls-12" cx="29.35" cy="64.44" r="6.05" transform="translate(-22.56 16.28) rotate(-22.66)"/><circle class="cls-13" cx="31.14" cy="63.21" r="2"/><path class="cls-14" d="M86,59.53H68.23a3.45,3.45,0,0,1-3.44-3.45h0a3.44,3.44,0,0,1,3.44-3.44H86a3.44,3.44,0,0,1,3.44,3.44h0A3.45,3.45,0,0,1,86,59.53Z"/><path class="cls-14" d="M40.48,59.53H22.75a3.45,3.45,0,0,1-3.45-3.45h0a3.44,3.44,0,0,1,3.45-3.44H40.48a3.44,3.44,0,0,1,3.44,3.44h0A3.45,3.45,0,0,1,40.48,59.53Z"/></g></g></svg>