<svg xmlns="http://www.w3.org/2000/svg" viewBox="0 0 485.46 247.12"><defs><style>.cls-1{fill:#544440;}.cls-2{fill:#a9d4d9;}.cls-3{fill:#8ebac6;}.cls-4{fill:#695550;}.cls-5{fill:#735e58;}.cls-6{fill:#89c280;fill-rule:evenodd;}</style></defs><title>bridge</title><g id="Calque_2" data-name="Calque 2"><g id="Calque_15" data-name="Calque 15"><polygon class="cls-1" points="457.33 245 485.46 216.09 451.45 207.43 448.74 243.44 457.33 245"/><path class="cls-1" d="M133.85,228.59l33.94-30.22,2-62.76s-45.32,25-46.1,28.13S133.85,228.59,133.85,228.59Z"/><path class="cls-1" d="M250.88,9.54l29.26,1.8V67.39l-29.26-1.81Z"/><path class="cls-1" d="M309.39,16.61q14.63.87,29.26,1.7V74.36q-14.64-.83-29.26-1.71Z"/><path class="cls-1" d="M367.9,31.48q14.63.75,29.26,1.4V88.93q-14.64-.66-29.26-1.41Z"/><path class="cls-1" d="M133.86,18.14q14.63.64,29.26,1.4V75.59q-14.64-.75-29.26-1.41Z"/><path class="cls-1" d="M192.37,9.54q14.63.83,29.26,1.71v56q-14.64-.87-29.26-1.7Z"/><path class="cls-1" d="M265.51,10.44l14.63.9V67.39l-14.63-.9Z"/><path class="cls-1" d="M484.92,102q-14.62.17-29.25.16c-2.64-40-88.06-75.51-190.16-82.33C160.77,12.78,75.35,43.49,75.35,85q-14.62-.37-29.25-.59c0-52,98.29-91.65,219.41-83.35C385.16,9.27,481.41,51.3,484.92,102Z"/><path class="cls-1" d="M265.51,19.78V1.1C385.16,9.27,481.41,51.3,484.92,102q-14.62.17-29.25.16c-2.64-40-88.06-75.51-190.16-82.33Z"/><path class="cls-1" d="M484.92,169.58q-14.62,23.32-29.25,46.49c-29.26-.76-58.51-2-87.77-3.51v-28c0-36-45.93-67.78-102.39-71.35s-102.39,23.32-102.39,59.42v28c-29.26-1.5-58.51-2.74-87.77-3.5Q60.72,173.21,46.1,149.46,60.73,122,75.35,94.75C116.6,64,195.3,52.61,265.51,57.15c70.79,4.57,149.2,24.35,190.16,56.54Q470.3,141.73,484.92,169.58Z"/><path class="cls-1" d="M455.67,113.69q14.63,28,29.25,55.89-14.62,23.32-29.25,46.49c-29.26-.76-58.51-2-87.77-3.51v-28c0-36-45.93-67.78-102.39-71.35v-56c70.79,4.57,149.2,24.35,190.16,56.54Z"/><path class="cls-1" d="M45.56,82.48q14.89,0,29.79.44V196.56q-14.89-.44-29.79-.45Z"/><path class="cls-1" d="M455.67,98.11q14.9.44,29.79.46V216.09q-14.9,0-29.79-.46Z"/><path class="cls-2" d="M222,37.67l29.26,1.8V95.52L222,93.71Z"/><path class="cls-3" d="M280.48,44.74q14.63.87,29.26,1.7v56.05q-14.64-.83-29.26-1.71Z"/><path class="cls-3" d="M339,59.61q14.63.75,29.26,1.4v56.05q-14.64-.66-29.26-1.41Z"/><path class="cls-2" d="M105,46.27q14.63.65,29.26,1.4v56.05Q119.57,103,105,102.31Z"/><path class="cls-2" d="M163.46,37.67q14.63.82,29.26,1.7V95.42q-14.64-.87-29.26-1.71Z"/><path class="cls-3" d="M236.6,38.57l14.63.9V95.52l-14.63-.91Z"/><path class="cls-2" d="M456,130.08q-14.62.16-29.25.16c-2.64-40-88.06-75.51-190.16-82.33-104.74-7-190.16,23.71-190.16,65.26q-14.62-.39-29.25-.59c0-52,98.29-91.65,219.41-83.35C356.25,37.4,452.5,79.43,456,130.08Z"/><path class="cls-3" d="M236.6,47.91V29.23C356.25,37.4,452.5,79.43,456,130.08q-14.62.16-29.25.16c-2.64-40-88.06-75.51-190.16-82.33Z"/><path class="cls-4" d="M456,197.7Q441.39,221,426.76,244.19c-29.26-.75-58.51-2-87.77-3.5v-28c0-36-45.93-67.78-102.39-71.35s-102.39,23.32-102.39,59.42v28c-29.26-1.5-58.51-2.75-87.77-3.5q-14.62-23.92-29.25-47.67,14.63-27.45,29.25-54.71c41.25-30.75,120-42.14,190.16-37.61,70.79,4.58,149.2,24.35,190.16,56.55Q441.39,169.84,456,197.7Z"/><path class="cls-1" d="M426.76,141.82q14.63,28,29.25,55.88Q441.39,221,426.76,244.19c-29.26-.75-58.51-2-87.77-3.5v-28c0-36-45.93-67.78-102.39-71.35v-56c70.79,4.58,149.2,24.35,190.16,56.55Z"/><path class="cls-5" d="M15.87,112.17q14.84,0,29.69.44V225.47Q30.71,225,15.87,225Z"/><path class="cls-4" d="M426.76,127.8q15.28.44,30.57.45V245q-15.29,0-30.57-.46Z"/><path class="cls-6" d="M420.8,240.58a44.68,44.68,0,0,0,9.2,6.54S428.87,244.36,420.8,240.58Z"/><path class="cls-6" d="M419.82,233.65s9,8.48,18.43,13.08C438.25,246.73,436,241.22,419.82,233.65Z"/><path class="cls-6" d="M431.48,236.14s7.39,6.94,15.07,10.71C446.55,246.85,444.7,242.33,431.48,236.14Z"/><path class="cls-6" d="M466.87,234.7s-8.48,8-17.28,12.28C449.59,247,451.71,241.81,466.87,234.7Z"/><path class="cls-6" d="M466.33,240.58a44.57,44.57,0,0,1-9.21,6.54S458.26,244.36,466.33,240.58Z"/><path class="cls-6" d="M473.19,240.58a44.89,44.89,0,0,1-9.21,6.54S465.11,244.36,473.19,240.58Z"/><path class="cls-6" d="M1,221.46a44.68,44.68,0,0,0,9.2,6.54S9,225.24,1,221.46Z"/><path class="cls-6" d="M0,214.53S9,223,18.42,227.62C18.42,227.62,16.16,222.11,0,214.53Z"/><path class="cls-6" d="M11.66,217s7.39,6.94,15.07,10.71C26.73,227.73,24.88,223.22,11.66,217Z"/><path class="cls-6" d="M47.05,215.58s-8.48,8-17.29,12.29C29.76,227.87,31.88,222.69,47.05,215.58Z"/><path class="cls-6" d="M46.5,221.46A44.68,44.68,0,0,1,37.3,228S38.43,225.24,46.5,221.46Z"/><path class="cls-6" d="M53.36,221.46A44.89,44.89,0,0,1,44.15,228S45.28,225.24,53.36,221.46Z"/><path class="cls-6" d="M91.32,224.51a44.36,44.36,0,0,0,9.2,6.54S99.39,228.3,91.32,224.51Z"/><path class="cls-6" d="M90.34,217.58s9,8.49,18.43,13.09C108.77,230.67,106.5,225.15,90.34,217.58Z"/><path class="cls-6" d="M102,220.07s7.39,6.94,15.07,10.71C117.07,230.78,115.22,226.27,102,220.07Z"/><path class="cls-6" d="M137.39,218.64s-8.48,8-17.29,12.28C120.1,230.92,122.23,225.74,137.39,218.64Z"/><path class="cls-6" d="M136.85,224.51a44.57,44.57,0,0,1-9.21,6.54S128.77,228.3,136.85,224.51Z"/><path class="cls-6" d="M143.7,224.51a44.68,44.68,0,0,1-9.2,6.54S135.63,228.3,143.7,224.51Z"/></g></g></svg>