<svg xmlns="http://www.w3.org/2000/svg" viewBox="0 0 110.73 255.75"><defs><style>.cls-1{fill:#f8b890;}.cls-2{fill:#a26015;}.cls-3{fill:#e94756;}.cls-4{fill:#887d70;}.cls-5{fill:#eec602;}.cls-6{fill:#2a0e15;}.cls-7{fill:#120506;opacity:0.67;}.cls-8{fill:#f5a67b;}.cls-9{fill:#ed6d6d;}.cls-10{fill:#e41919;opacity:0.16;}.cls-11{opacity:0.61;}.cls-12{fill:#d12017;}.cls-13{fill:#fff;}.cls-14{fill:#b41543;opacity:0.28;}.cls-15{fill:#f1886e;opacity:0.25;}.cls-16{fill:#221a16;}</style></defs><title>C</title><g id="Calque_2" data-name="Calque 2"><g id="Calque_1-2" data-name="Calque 1"><path class="cls-1" d="M79,172s19.12-8.38,29,13.75c3.2,7.16,3.32,18.58,1.7,28.07-1.44,8.41-3.31,15.91-3.31,15.91s2.23,8.52-.32,9.16-10.49,2.23-11.56.64.7-8.42.06-14-2.13-16.18-3.3-22.15S84.44,188,84.44,188Z"/><path class="cls-2" d="M108.1,222.06a60.62,60.62,0,0,0-7.56-.6,46.4,46.4,0,0,0-6.71.53l.43,8,13.42-.26Z"/><path class="cls-1" d="M31.73,172s-19.12-8.38-29,13.75C-.48,193-.6,204.37,1,213.86c1.44,8.41,3.31,15.91,3.31,15.91s-2.24,8.52.32,9.16,10.49,2.23,11.56.64-.7-8.42-.06-14,2.13-16.18,3.3-22.15S26.29,188,26.29,188Z"/><path class="cls-2" d="M2.63,222.06a60.62,60.62,0,0,1,7.56-.6,46.4,46.4,0,0,1,6.71.53l-.43,8-13.42-.26Z"/><path class="cls-3" d="M16.19,251c3.41-1.28,6.92.57,9.27-.64,1.16-.6.9-4.39-.29-8.34a60.55,60.55,0,0,0-4.94-10.41c-3.25-5.8-5.61-10.14-4.32-21.19,6.44.89,13,2.23,19.76,1a278.93,278.93,0,0,1,58.81-1.34c1.36,11.27-1,15.64-4.28,21.48A60.55,60.55,0,0,0,85.26,242c-1.19,3.95-1.46,7.75-.29,8.35,2.34,1.21,5.86-.64,9.27.64a4.48,4.48,0,0,1,2.87,4.79H72.3s1.1-9.69-2.35-15.23c-2-3.16-8.59-3.91-12.85-4h0s-.6,0-1.56,0v0H55c-1,0-1.69,0-1.69,0h0c-4.26.15-10.89.9-12.86,4.06-3.44,5.53-2.34,15.22-2.34,15.22H13.32A4.47,4.47,0,0,1,16.19,251Z"/><path class="cls-1" d="M35.67,211.41c-6.8,1.2-13.32-.14-19.76-1,.28-2.42.74-5.15,1.4-8.29a78,78,0,0,1,14.12-30.24l23-1.58v-.13l.91.07.7-.05v.09l23,1.59a77.8,77.8,0,0,1,14.13,30.23c.63,3,1.08,5.65,1.36,8A278.93,278.93,0,0,0,35.67,211.41Z"/><path class="cls-4" d="M85,243.51H71.29a23.27,23.27,0,0,1,.91,4.26H84.38C84.45,246.59,84.69,245.11,85,243.51Z"/><path class="cls-2" d="M94.23,251c-3.41-1.28-6.92.57-9.27-.64-.53-.27-.66-1.22-.58-2.55H72.2a38,38,0,0,1,.09,8H97.1A4.47,4.47,0,0,0,94.23,251Z"/><path class="cls-4" d="M25.46,243.51H39.13a23.27,23.27,0,0,0-.91,4.26H26C26,246.59,25.73,245.11,25.46,243.51Z"/><path class="cls-2" d="M16.19,251c3.41-1.28,6.92.57,9.27-.64.54-.27.66-1.22.58-2.55H38.22a38,38,0,0,0-.09,8H13.32A4.47,4.47,0,0,1,16.19,251Z"/><path class="cls-4" d="M96.09,217.24H13.92s.21-3.67.47-7a52.8,52.8,0,0,1,.84-5.75H94.67a54.11,54.11,0,0,1,1.47,6A27,27,0,0,1,96.09,217.24Z"/><path class="cls-5" d="M41.83,200.55v20.87a3.27,3.27,0,0,0,3.26,3.26H66.23a3.27,3.27,0,0,0,3.26-3.26V200.55a3.27,3.27,0,0,0-3.26-3.26H45.09A3.27,3.27,0,0,0,41.83,200.55ZM46.38,204a2.19,2.19,0,0,1,2.19-2.18H62.76A2.19,2.19,0,0,1,64.94,204v14a2.19,2.19,0,0,1-2.18,2.18H48.57A2.19,2.19,0,0,1,46.38,218Z"/><path class="cls-5" d="M58.51,213h7.32a1.78,1.78,0,0,0,1.78-1.78h0a1.79,1.79,0,0,0-1.78-1.79H58.51a1.79,1.79,0,0,0-1.78,1.79h0A1.78,1.78,0,0,0,58.51,213Z"/><path class="cls-6" d="M3.16,115.58c2.83-.1,5.74,2.47,5.92,2.63-1.62-1.6-2.24-6.58-1.24-10.2A33.1,33.1,0,0,0,9,102.22a30.11,30.11,0,0,1,10.23,3.6c1.6-5.44,4.22-14.07,13.26-18.93s10.17-6.07,10.17-6.07.08.22.11.33a26.34,26.34,0,0,1,.38,14,32,32,0,0,1,3.88-4c10.53-9,20.73-3.29,30.14,1C87.71,96.92,93,88.39,93,88.39c6.55,11-.31,18.68-.31,18.68a20.94,20.94,0,0,0,7.75-8c9.84,22.77-.21,41-5.59,48.44a35.75,35.75,0,0,1-2.92,3.61,32.65,32.65,0,0,0,.37-5.44,23.83,23.83,0,0,0-.92-6.22,16.59,16.59,0,0,0-13.73-12.07c-9.13-1.43-10.72-4.57-10.72-4.57a62.57,62.57,0,0,0,1.71,8.47c-12.91,1.12-24.57-12.16-24.57-12.16-2.68,2-3.94,1.26-15.86,7.07s-10,27.49-10,27.49a25.59,25.59,0,0,1-10.59-8.2C-1.54,133.21,3.16,115.58,3.16,115.58Z"/><path class="cls-7" d="M47,91.14c10.53-9,20.73-3.29,30.14,1C87.71,96.92,93,88.39,93,88.39c6.55,11-.31,18.68-.31,18.68a20.94,20.94,0,0,0,7.75-8c9.84,22.77-.21,41-5.59,48.44a4.76,4.76,0,0,1-2.55-1.83A13.45,13.45,0,0,1,90.17,141a8.42,8.42,0,0,1,1.22-1.61,12.66,12.66,0,0,1,4.6-3.11s4.5-10.56-.38-24.5c0,0-4.07,5.08-10.67,1.25,0,0,5-7.57,4-11.83,0,0-10,5.45-17.4-3.71C64.43,88.75,53.83,87,47,91.14Z"/><path class="cls-8" d="M92.11,155.85l.79-11.3s3.55-9.1,10.22-4.62c3.77,2.53,3.64,7.6.63,11.35a12.67,12.67,0,0,1-8.57,4.53A15.64,15.64,0,0,1,92.11,155.85Z"/><path class="cls-8" d="M7.12,143.28c6.33-4.94,10.51,3.9,10.51,3.9l1.58,11.22a16.93,16.93,0,0,1-2.8.18,12.17,12.17,0,0,1-11-6.66h0C4,148.84,4.39,145.41,7.12,143.28Z"/><path class="cls-9" d="M93.08,149.77s3-7.55,6.74-4.55-.71,8.05-6.63,7.6Z"/><path class="cls-10" d="M92.11,155.85l.79-11.3s3.55-9.1,10.22-4.62c3.77,2.53,3.64,7.6.63,11.35,1.84-8.06-7.74-10.5-7.21-6.29.44,3.42-.68,8.29-1.36,10.82A15.64,15.64,0,0,1,92.11,155.85Z"/><path class="cls-9" d="M17.81,152.4s-3.55-7.32-7-4.07,1.27,8,7.14,7.12Z"/><path class="cls-10" d="M7.12,143.28c6.33-4.94,10.51,3.9,10.51,3.9l1.58,11.22a16.93,16.93,0,0,1-2.8.18,20.28,20.28,0,0,1-2.08-8.38c-.5-7.51-10-6.07-8.89,1.72C4,148.84,4.39,145.41,7.12,143.28Z"/><path class="cls-1" d="M17.06,152.53v0c0-.2,0-.39-.06-.58,0-.46-.08-.92-.1-1.38-.68-11.5,3.29-24,15.28-28.55,12.46-4.7,13.35-7.88,13.35-7.88,3.8,12.44,20.06,15.24,20.06,15.24a27.49,27.49,0,0,1-1.16-7.73,14.64,14.64,0,0,0-1.58-6.75c3.3,4.15,10.21,9.73,14.67,10.92s16.7.54,16.58,23-16.89,30.8-37,30.92A74.09,74.09,0,0,1,46.35,179h0C24.56,175.9,18.2,162.79,17.06,152.53Z"/><path class="cls-10" d="M16.9,150.53c-.68-11.5,3.29-24,15.28-28.55,12.46-4.7,13.35-7.88,13.35-7.88,3.8,12.44,20.06,15.24,20.06,15.24a27.49,27.49,0,0,1-1.16-7.73,14.64,14.64,0,0,0-1.58-6.75c3.3,4.15,10.21,9.73,14.67,10.92s16.7.54,16.58,23-16.89,30.8-37,30.92A74.09,74.09,0,0,1,46.35,179c.86-.06,28.68-1.53,31.54-22.24,3.36-24.34-6.43-31.3-10.19-34.61,0,0-1.48,5-.69,9.16,0,0-16.84-2.77-22.12-13.55,0,0-5.4,5.79-13,6.64C24.68,125.21,16.71,141.06,16.9,150.53Z"/><g class="cls-11"><path class="cls-9" d="M39,162a8.08,8.08,0,1,1-8.35-7.79A8.08,8.08,0,0,1,39,162Z"/><path class="cls-9" d="M89.81,160.22a8.07,8.07,0,1,1-8.35-7.79A8.07,8.07,0,0,1,89.81,160.22Z"/></g><path class="cls-9" d="M51,151.61c-.08-1.32,1.38-2.47,5.12-2.6,10-.36,2.83,7.14.23,6.59a11,11,0,0,1-2.17-.7h0C52.29,154.05,51.05,152.76,51,151.61Z"/><g class="cls-11"><path class="cls-12" d="M31.75,156.55a.76.76,0,1,1-1.52,0,.75.75,0,0,1,.73-.78A.76.76,0,0,1,31.75,156.55Z"/><path class="cls-12" d="M35,159.22a.76.76,0,1,1-.78-.73A.75.75,0,0,1,35,159.22Z"/><path class="cls-12" d="M39.06,156a.78.78,0,0,1-.74.79.76.76,0,0,1-.78-.73.75.75,0,0,1,.73-.79A.77.77,0,0,1,39.06,156Z"/><path class="cls-12" d="M23.78,154.62a.76.76,0,1,1-1.51,0,.76.76,0,1,1,1.51,0Z"/><circle class="cls-12" cx="25.63" cy="158.78" r="0.76" transform="matrix(0.1, -0.99, 0.99, 0.1, -134.95, 167.9)"/></g><g class="cls-11"><path class="cls-12" d="M80.22,156.53a.76.76,0,0,0,.79.73.75.75,0,0,0,.73-.78.78.78,0,0,0-.79-.74A.77.77,0,0,0,80.22,156.53Z"/><path class="cls-12" d="M77.17,159.42a.76.76,0,0,0,.78.73.78.78,0,0,0,.74-.79.76.76,0,1,0-1.52.06Z"/><path class="cls-12" d="M72.89,156.52a.76.76,0,0,0,.79.73.76.76,0,0,0-.05-1.51A.76.76,0,0,0,72.89,156.52Z"/><path class="cls-12" d="M88,154a.76.76,0,1,0,1.52,0,.76.76,0,0,0-.79-.73A.75.75,0,0,0,88,154Z"/><path class="cls-12" d="M85.72,158.36a.77.77,0,0,0,.79.73.76.76,0,0,0-.05-1.52A.78.78,0,0,0,85.72,158.36Z"/></g><path class="cls-13" d="M44.85,162.14c.75-2.1,3.27-2.9,5.43-2.43a15.46,15.46,0,0,0,8,0c.22,1.18.24,3-1.58,3.77C54.42,164.45,46.79,165.36,44.85,162.14Z"/><path class="cls-13" d="M61.37,158.64a7.83,7.83,0,0,1,5-.26c.41,1.82,1,4.07-2.46,3.63C61,161.64,61,159.88,61.37,158.64Z"/><path class="cls-14" d="M51,151.61c-.08-1.32,1.38-2.47,5.12-2.6,10-.36,2.83,7.14.23,6.59a11,11,0,0,1-2.17-.7h0s4.33-.28,3.13-3.09C56.43,149.74,53.21,150.2,51,151.61Z"/><path class="cls-15" d="M3.16,115.58c2.83-.1,5.74,2.47,5.92,2.63-1.62-1.6-2.24-6.58-1.24-10.2A33.1,33.1,0,0,0,9,102.22a30.11,30.11,0,0,1,10.23,3.6c1.6-5.44,4.22-14.07,13.26-18.93s10.17-6.07,10.17-6.07.08.22.11.33c0,6.82-8.34,9.54-14.56,13.85-6.81,4.73-7.35,16.55-7.35,16.55a12.62,12.62,0,0,0-9.73-5.28,6,6,0,0,1,.22,5.26c-1.19,3.08.72,11.23.72,11.23-5.31-3.07-7.19-2.24-7.19-2.24a33.47,33.47,0,0,0,3.3,23.87l-.57,1.06C-1.54,133.21,3.16,115.58,3.16,115.58Z"/><circle class="cls-16" cx="77.19" cy="142.44" r="6.18" transform="translate(-77.89 189.32) rotate(-78.36)"/><circle class="cls-13" cx="79.02" cy="141.18" r="2.04"/><circle class="cls-16" cx="34.37" cy="142.44" r="6.18" transform="translate(-112.16 142.99) rotate(-76.65)"/><circle class="cls-13" cx="36.2" cy="141.18" r="2.04"/><path class="cls-6" d="M85.24,138H68.39a3.27,3.27,0,0,1-3.27-3.27h0a3.28,3.28,0,0,1,3.27-3.27H85.24a3.28,3.28,0,0,1,3.27,3.27h0A3.27,3.27,0,0,1,85.24,138Z"/><path class="cls-6" d="M42,138H25.19a3.27,3.27,0,0,1-3.27-3.27h0a3.28,3.28,0,0,1,3.27-3.27H42a3.28,3.28,0,0,1,3.27,3.27h0A3.27,3.27,0,0,1,42,138Z"/><path class="cls-3" d="M85,29.23A29.25,29.25,0,0,1,62.39,57.7L55.72,72,49.05,57.7A29.24,29.24,0,1,1,85,29.23Z"/><path class="cls-13" d="M47.37,39.84l2.22-2.18a.78.78,0,0,1,1.07,0,9.57,9.57,0,0,0,5.74,2.49,5.15,5.15,0,0,0,5.16-5.25c0-2.76-1.86-5-5.38-5H49.33A1.48,1.48,0,0,1,48,28.32V15.19a.84.84,0,0,1,.84-.84H62.85a.85.85,0,0,1,.85.84v3a.85.85,0,0,1-.85.84H53V25H56.8C63.12,25,67,29,67,34.86c0,5.56-4.63,10.19-10.77,10.19a11.37,11.37,0,0,1-8.76-3.69C46.88,40.69,46.84,40.38,47.37,39.84Z"/></g></g></svg>