<svg xmlns="http://www.w3.org/2000/svg" viewBox="0 0 104.03 98.87"><defs><style>.cls-1{fill:#2a0e15;}.cls-2{fill:#120506;opacity:0.67;}.cls-3{fill:#f5a67b;}.cls-4{fill:#ed6d6d;}.cls-5{fill:#e41919;opacity:0.16;}.cls-6{fill:#f8b890;}.cls-7{opacity:0.61;}.cls-8{fill:#d12017;}.cls-9{fill:#fff;}.cls-10{fill:#b41543;opacity:0.28;}.cls-11{fill:#f1886e;opacity:0.25;}.cls-12{fill:#221a16;}</style></defs><title>C_tete</title><g id="Calque_2" data-name="Calque 2"><g id="Calque_1-2" data-name="Calque 1"><path class="cls-1" d="M1.21,34.76C4,34.66,7,37.23,7.13,37.39c-1.62-1.6-2.24-6.58-1.24-10.2A33.28,33.28,0,0,0,7,21.4,30.24,30.24,0,0,1,17.26,25c1.6-5.43,4.22-14.06,13.26-18.92S40.69,0,40.69,0s.08.22.11.33a26.3,26.3,0,0,1,.38,14,32.54,32.54,0,0,1,3.88-4c10.53-9,20.73-3.29,30.14,1,10.56,4.8,15.86-3.74,15.86-3.74,6.55,11-.31,18.69-.31,18.69a20.94,20.94,0,0,0,7.75-8c9.84,22.77-.21,41-5.59,48.44A35.75,35.75,0,0,1,90,70.26a31.62,31.62,0,0,0,.37-5.44,23.83,23.83,0,0,0-.92-6.22A16.61,16.61,0,0,0,75.71,46.52C66.58,45.1,65,42,65,42a62.57,62.57,0,0,0,1.71,8.47C53.79,51.55,42.13,38.27,42.13,38.27c-2.68,2-3.94,1.26-15.86,7.07s-10,27.49-10,27.49a25.59,25.59,0,0,1-10.59-8.2C-3.49,52.39,1.21,34.76,1.21,34.76Z"/><path class="cls-2" d="M45.06,10.32c10.53-9,20.73-3.29,30.14,1,10.56,4.8,15.86-3.74,15.86-3.74,6.55,11-.31,18.69-.31,18.69a20.94,20.94,0,0,0,7.75-8c9.84,22.77-.21,41-5.59,48.44a4.76,4.76,0,0,1-2.55-1.83,13.45,13.45,0,0,1-2.14-4.61,8.42,8.42,0,0,1,1.22-1.61A12.66,12.66,0,0,1,94,55.49s4.5-10.56-.37-24.5c0,0-4.08,5.08-10.68,1.25,0,0,5-7.57,4-11.83,0,0-10,5.45-17.39-3.71C62.48,7.93,51.88,6.15,45.06,10.32Z"/><path class="cls-3" d="M90.16,75,91,63.73s3.55-9.1,10.22-4.62c3.77,2.53,3.64,7.6.63,11.35A12.67,12.67,0,0,1,93.23,75,15.64,15.64,0,0,1,90.16,75Z"/><path class="cls-3" d="M5.17,62.46c6.34-4.94,10.51,3.89,10.51,3.89l1.58,11.23a16.88,16.88,0,0,1-2.79.18,12.19,12.19,0,0,1-11-6.66h0C2.07,68,2.44,64.58,5.17,62.46Z"/><path class="cls-4" d="M91.13,69s3-7.55,6.74-4.55-.71,8-6.63,7.6Z"/><path class="cls-5" d="M90.16,75,91,63.73s3.55-9.1,10.22-4.62c3.77,2.53,3.64,7.6.63,11.35,1.84-8.06-7.74-10.5-7.2-6.29.43,3.42-.69,8.29-1.37,10.82A15.64,15.64,0,0,1,90.16,75Z"/><path class="cls-4" d="M15.86,71.58s-3.55-7.32-7-4.07,1.27,8,7.14,7.12Z"/><path class="cls-5" d="M5.17,62.46c6.34-4.94,10.51,3.89,10.51,3.89l1.58,11.23a16.88,16.88,0,0,1-2.79.18,20.08,20.08,0,0,1-2.09-8.38c-.5-7.51-10-6.07-8.89,1.72C2.07,68,2.44,64.58,5.17,62.46Z"/><path class="cls-6" d="M15.11,71.71v0c0-.2,0-.39-.06-.58,0-.46-.08-.92-.1-1.38-.68-11.5,3.29-24,15.28-28.56,12.46-4.7,13.35-7.87,13.35-7.87,3.8,12.44,20.06,15.24,20.06,15.24a27.49,27.49,0,0,1-1.16-7.73A14.64,14.64,0,0,0,60.9,34C64.2,38.18,71.11,43.77,75.57,45s16.7.54,16.58,23-16.89,30.8-37,30.92a74.09,74.09,0,0,1-10.78-.68h0C22.61,95.08,16.25,82,15.11,71.71Z"/><path class="cls-5" d="M15,69.71c-.68-11.5,3.29-24,15.28-28.56,12.46-4.7,13.35-7.87,13.35-7.87,3.8,12.44,20.06,15.24,20.06,15.24a27.49,27.49,0,0,1-1.16-7.73A14.64,14.64,0,0,0,60.9,34C64.2,38.18,71.11,43.77,75.57,45s16.7.54,16.58,23-16.89,30.8-37,30.92a74.09,74.09,0,0,1-10.78-.68c.86-.06,28.68-1.53,31.54-22.24,3.36-24.34-6.43-31.3-10.19-34.61,0,0-1.48,5-.69,9.16,0,0-16.84-2.77-22.12-13.55,0,0-5.4,5.79-13,6.64C22.73,44.39,14.76,60.23,15,69.71Z"/><g class="cls-7"><path class="cls-4" d="M37,81.17a8.08,8.08,0,1,1-8.36-7.79A8.09,8.09,0,0,1,37,81.17Z"/><path class="cls-4" d="M87.86,79.4a8.07,8.07,0,1,1-8.35-7.79A8.07,8.07,0,0,1,87.86,79.4Z"/></g><path class="cls-4" d="M49.05,70.79c-.08-1.32,1.38-2.47,5.12-2.6,10-.36,2.83,7.14.23,6.59a11,11,0,0,1-2.17-.7h0C50.34,73.23,49.1,71.94,49.05,70.79Z"/><g class="cls-7"><path class="cls-8" d="M29.8,75.73a.75.75,0,0,1-.73.78.76.76,0,0,1-.79-.73A.75.75,0,0,1,29,75,.76.76,0,0,1,29.8,75.73Z"/><path class="cls-8" d="M33.05,78.4a.76.76,0,0,1-.74.78.75.75,0,0,1-.78-.73.76.76,0,0,1,.73-.79A.78.78,0,0,1,33.05,78.4Z"/><path class="cls-8" d="M37.11,75.21a.76.76,0,1,1-1.52.05.76.76,0,0,1,1.52-.05Z"/><path class="cls-8" d="M21.84,73.79a.78.78,0,0,1-.74.79.75.75,0,0,1-.78-.73.76.76,0,0,1,.73-.79A.77.77,0,0,1,21.84,73.79Z"/><circle class="cls-8" cx="23.68" cy="77.96" r="0.76" transform="translate(-56.31 93.48) rotate(-84.08)"/></g><g class="cls-7"><path class="cls-8" d="M78.27,75.71a.77.77,0,0,0,.79.73.76.76,0,0,0,.73-.78.76.76,0,1,0-1.52,0Z"/><path class="cls-8" d="M75.22,78.59a.77.77,0,0,0,.78.74.78.78,0,0,0,.74-.79.77.77,0,0,0-.79-.73A.75.75,0,0,0,75.22,78.59Z"/><path class="cls-8" d="M70.94,75.7a.76.76,0,0,0,.79.73.76.76,0,1,0,0-1.51A.76.76,0,0,0,70.94,75.7Z"/><path class="cls-8" d="M86.08,73.22a.76.76,0,1,0,.73-.78A.75.75,0,0,0,86.08,73.22Z"/><path class="cls-8" d="M83.77,77.54a.76.76,0,0,0,1.52-.06.75.75,0,0,0-.78-.73A.78.78,0,0,0,83.77,77.54Z"/></g><path class="cls-9" d="M42.91,81.32c.74-2.1,3.26-2.9,5.42-2.43a15.46,15.46,0,0,0,8,0c.22,1.18.24,3-1.58,3.77C52.47,83.63,44.84,84.54,42.91,81.32Z"/><path class="cls-9" d="M59.42,77.81a7.88,7.88,0,0,1,5-.25c.41,1.81,1,4.07-2.46,3.63C59,80.81,59,79.05,59.42,77.81Z"/><path class="cls-10" d="M49.05,70.79c-.08-1.32,1.38-2.47,5.12-2.6,10-.36,2.83,7.14.23,6.59a11,11,0,0,1-2.17-.7h0s4.33-.27,3.13-3.08C54.48,68.92,51.26,69.38,49.05,70.79Z"/><path class="cls-11" d="M1.21,34.76C4,34.66,7,37.23,7.13,37.39c-1.62-1.6-2.24-6.58-1.24-10.2A33.28,33.28,0,0,0,7,21.4,30.24,30.24,0,0,1,17.26,25c1.6-5.43,4.22-14.06,13.26-18.92S40.69,0,40.69,0s.08.22.11.33c0,6.82-8.34,9.54-14.56,13.85-6.81,4.73-7.35,16.55-7.35,16.55a12.62,12.62,0,0,0-9.73-5.28,6,6,0,0,1,.22,5.26c-1.19,3.08.72,11.23.72,11.23C4.79,38.87,2.91,39.7,2.91,39.7a33.48,33.48,0,0,0,3.3,23.87l-.57,1.06C-3.49,52.39,1.21,34.76,1.21,34.76Z"/><circle class="cls-12" cx="75.24" cy="61.62" r="6.18" transform="translate(-0.28 122.89) rotate(-78.36)"/><circle class="cls-9" cx="77.07" cy="60.36" r="2.04"/><circle class="cls-12" cx="32.42" cy="61.62" r="6.18" transform="translate(-35.02 78.93) rotate(-76.65)"/><circle class="cls-9" cx="34.25" cy="60.36" r="2.04"/><path class="cls-1" d="M83.29,57.21H66.44a3.27,3.27,0,0,1-3.27-3.27h0a3.28,3.28,0,0,1,3.27-3.27H83.29a3.27,3.27,0,0,1,3.27,3.27h0A3.26,3.26,0,0,1,83.29,57.21Z"/><path class="cls-1" d="M40.09,57.21H23.24A3.27,3.27,0,0,1,20,53.94h0a3.28,3.28,0,0,1,3.27-3.27H40.09a3.28,3.28,0,0,1,3.27,3.27h0A3.27,3.27,0,0,1,40.09,57.21Z"/></g></g></svg>