<svg xmlns="http://www.w3.org/2000/svg" viewBox="0 0 2040 764.57"><defs><style>.cls-1{fill:#fff;fill-rule:evenodd;opacity:0.1;}</style></defs><title>cloud</title><g id="Calque_2" data-name="Calque 2"><g id="Calque_15" data-name="Calque 15"><path class="cls-1" d="M2040,198.62v566H0V198.62a155,155,0,0,1,143.29,19.73C177.76,125.6,267.07,59.51,371.83,59.51A242.69,242.69,0,0,1,517,107.43a111.27,111.27,0,0,1,198.19,17.31A161,161,0,0,1,861.48,109,165.82,165.82,0,0,1,1017.28,0c.91,0,1.82,0,2.72,0s1.81,0,2.72,0a165.84,165.84,0,0,1,155.8,109,161,161,0,0,1,146.3,15.7A111.27,111.27,0,0,1,1523,107.43a242.7,242.7,0,0,1,145.16-47.92c104.75,0,194.06,66.09,228.54,158.84A155,155,0,0,1,2040,198.62Z"/></g></g></svg>