<svg xmlns="http://www.w3.org/2000/svg" viewBox="0 0 104.94 255.75"><defs><style>.cls-1{fill:#e94756;}.cls-2{fill:#eec602;}.cls-3{fill:#a97d3f;}.cls-4{fill:#887d70;}.cls-5{fill:#9c9895;}.cls-6{fill:#f293a5;}.cls-7{fill:#f5a67b;}.cls-8{fill:#ed6d6d;}.cls-9{fill:#e41919;opacity:0.16;}.cls-10{fill:#f8b890;}.cls-11{opacity:0.61;}.cls-12{fill:#461013;}.cls-13{fill:#fff;}.cls-14{fill:#f087b4;}.cls-15{fill:#d12017;}.cls-16{fill:#8b6833;}.cls-17{fill:#b41543;opacity:0.28;}.cls-18{fill:#221a16;}</style></defs><title>D</title><g id="Calque_2" data-name="Calque 2"><g id="Calque_1-2" data-name="Calque 1"><path class="cls-1" d="M91.42,185.3s6.34,2.28,7.14,5,3.17,18.23,3.46,26.16a114.27,114.27,0,0,1-.69,16s2.08,7.93-.3,8.52-9.76,2.08-10.75.6.65-7.83,0-13-2-15.07-3.07-20.61S84.78,197,84.78,197Z"/><path class="cls-2" d="M80.77,176.78s10.9.79,16.64,6.94,5.15,10.5,5.15,13.47a13.8,13.8,0,0,1-2,6.15l-16.25,4S81,187.68,80,184.31a23.15,23.15,0,0,0-3-6.14Z"/><path class="cls-1" d="M86.31,186.19a1.25,1.25,0,0,0-2,1.29c.09,1.05,1.41,2.42,2,3.32a15.47,15.47,0,0,1,2.71,6.67c.27,2.05.86,5.42,2.35,3.09s.39-5.7-.5-8C90.12,190.53,88.4,187.38,86.31,186.19Z"/><path class="cls-1" d="M93.45,184.35c-1.15-.66-2.08.07-2,1.28.09,1.05,1.4,2.42,2,3.32a15.33,15.33,0,0,1,2.7,6.67c.27,2,.87,5.42,2.35,3.09s.4-5.69-.49-8C97.25,188.68,95.53,185.53,93.45,184.35Z"/><path class="cls-3" d="M88.89,221s1.49,9.32,1.59,10.11,4.85,1.59,4.85,1.59l6-1a48.82,48.82,0,0,0,2.57-8.13c.6-3.37,1.09-10.5,1.09-10.5Z"/><path class="cls-3" d="M101.94,224.87a41.65,41.65,0,0,0-11.48,5.76c.07,4.64-1,9.57-.18,10.86,1,1.48,8.38,0,10.75-.6s.3-8.52.3-8.52S101.72,229.19,101.94,224.87Z"/><path class="cls-1" d="M13.52,185.3s-6.34,2.28-7.13,5-3.17,18.23-3.47,26.16a114.27,114.27,0,0,0,.69,16s-2.08,7.93.3,8.52,9.76,2.08,10.75.6-.64-7.83-.05-13,2-15.07,3.07-20.61S20.16,197,20.16,197Z"/><path class="cls-2" d="M24.18,176.78s-10.9.79-16.65,6.94-5.15,10.5-5.15,13.47a13.8,13.8,0,0,0,2,6.15l16.25,4s3.37-19.62,4.36-23a23.15,23.15,0,0,1,3-6.14Z"/><path class="cls-1" d="M18.63,186.19a1.25,1.25,0,0,1,2,1.29c-.09,1.05-1.4,2.42-2,3.32a15.33,15.33,0,0,0-2.7,6.67c-.27,2.05-.87,5.42-2.35,3.09s-.4-5.7.49-8C14.83,190.53,16.55,187.38,18.63,186.19Z"/><path class="cls-1" d="M11.49,184.35a1.25,1.25,0,0,1,2,1.28c-.09,1.05-1.41,2.42-2,3.32a15.57,15.57,0,0,0-2.7,6.67c-.27,2-.86,5.42-2.35,3.09s-.4-5.69.5-8C7.69,188.68,9.41,185.53,11.49,184.35Z"/><path class="cls-3" d="M16.05,221s-1.48,9.32-1.58,10.11-4.86,1.59-4.86,1.59l-5.94-1a48.45,48.45,0,0,1-2.58-8.13C.5,220.18,0,213.05,0,213.05Z"/><path class="cls-3" d="M3,224.87a41.51,41.51,0,0,1,11.48,5.76c-.07,4.64,1,9.57.18,10.86-1,1.48-8.37,0-10.75-.6s-.3-8.52-.3-8.52S3.22,229.19,3,224.87Z"/><path class="cls-4" d="M16.61,251.3c3.17-1.19,6.44.52,8.62-.6,1.58-.81-.59-7.73-.89-12.88a48.88,48.88,0,0,1,.89-10.9l27.68.76,27.69-.76a49.56,49.56,0,0,1,.89,10.9c-.3,5.15-2.47,12.07-.89,12.88,2.18,1.12,5.45-.59,8.62.6a4.15,4.15,0,0,1,2.67,4.45H68.8s1-9-2.18-14.16c-1.82-2.94-8-3.64-12-3.78h0s-.6,0-1.57,0h-.35c-1,0-1.57,0-1.57,0h0c-4,.14-10.14.84-12,3.78C36,246.74,37,255.75,37,255.75H13.93A4.16,4.16,0,0,1,16.61,251.3Z"/><path class="cls-5" d="M80.59,244.36H67.88a22.52,22.52,0,0,1,.84,4H80.05C80.12,247.23,80.34,245.85,80.59,244.36Z"/><path class="cls-3" d="M89.22,251.3c-3.17-1.19-6.44.52-8.62-.6-.51-.26-.63-1.14-.55-2.38H68.72a35.58,35.58,0,0,1,.08,7.43H91.89A4.15,4.15,0,0,0,89.22,251.3Z"/><path class="cls-5" d="M25.24,244.36H38a21.65,21.65,0,0,0-.84,4H25.78C25.71,247.23,25.49,245.85,25.24,244.36Z"/><path class="cls-3" d="M16.61,251.3c3.17-1.19,6.44.52,8.62-.6.5-.26.62-1.14.55-2.38H37.11a35.2,35.2,0,0,0-.09,7.43H13.93A4.16,4.16,0,0,1,16.61,251.3Z"/><path class="cls-1" d="M85.87,223.09c-1.14-26.29-6.82-44.79-6.82-44.79l-54.47-.53a259.81,259.81,0,0,0-5.12,39c-.22,5.32-1,16.38,1.65,21.07,1.9,3.36,5.93,3.91,15,2.63,6.76-1,13-5.89,15.73-8.38l.21,0c2.78,2.5,10.06,7.41,16.77,8.36,9.12,1.28,13.34.67,15-2.81C86.25,232.6,86.06,227.44,85.87,223.09Z"/><path class="cls-6" d="M88.54,178.12a232.55,232.55,0,0,1-22,25.22C53.62,216,49.85,221.17,49.85,221.17l-16.45.4-1.58-.2S55.6,200,62.73,192.83a85,85,0,0,0,10.7-12.68S81.9,175.25,88.54,178.12Z"/><path class="cls-2" d="M51.7,179.75s6.08,13.16,16,12.82C79.18,192.17,79.05,179,79.05,179Z"/><path class="cls-2" d="M51.88,179.75s-6.08,13.16-16,12.82C24.4,192.17,24.53,179,24.53,179Z"/><rect class="cls-3" x="18.67" y="216.48" width="67.64" height="7.4"/><path class="cls-2" d="M59.53,209.61H43.87A2.42,2.42,0,0,0,41.46,212v15.45a2.41,2.41,0,0,0,2.41,2.41H59.53a2.42,2.42,0,0,0,2.41-2.41V212A2.43,2.43,0,0,0,59.53,209.61Zm-1,15.33A1.63,1.63,0,0,1,57,226.56H46.44a1.63,1.63,0,0,1-1.62-1.62V214.57A1.63,1.63,0,0,1,46.44,213H57a1.63,1.63,0,0,1,1.62,1.62Z"/><rect class="cls-2" x="42.85" y="218.6" width="8.06" height="2.64" rx="1.32"/><path class="cls-3" d="M89.49,112.37c5,12.39,4.44,34.84,5.55,46.49s12.85,18.88,6,26.77c-4.18,4.81-9.64,1.7-13.54-1-2.51-1.77-4.38-3.38-4.87-2.67-1.24,1.82,4.6,10-7.87,12.43s-13.92-2.41-15-7.48c-.65-3.17-1.18,0-3,3.77a13.35,13.35,0,0,1-4.94,5.91c-6.17,3.54-13.15.67-12-4.18s.95-3.07-2.3-.26-5.92,5.45-11.43,3.51S3,189.47,5.86,182.48s3.65-8,2.07-25.45c-1.46-16.17-6.14-55.2,32.28-63.09l.16,0a70.66,70.66,0,0,1,9.74-1.23C67.12,91.67,84.51,100,89.49,112.37Z"/><path class="cls-7" d="M100.67,143.8a8.65,8.65,0,0,1,1.91,4.65c.27,3.72-2.26,7.45-6.35,10.89-5.82,4.91-9.77,2.85-11.2,1.48S91,142.66,91,142.66a9.22,9.22,0,0,1,3.79-1.44A6.15,6.15,0,0,1,100.67,143.8Z"/><path class="cls-7" d="M13.24,144.68s8.21,16.39,6.86,17.83-5.2,3.7-11.27-.89c-5.52-4.18-8.44-9-6.07-13.87a10.91,10.91,0,0,1,.83-1.42,6.29,6.29,0,0,1,7.2-2.65A9.41,9.41,0,0,1,13.24,144.68Z"/><path class="cls-8" d="M89.81,149.93s3.38-3.41,5.84-.15-3.57,8.44-7.78,5.82S89.81,149.93,89.81,149.93Z"/><path class="cls-8" d="M14.76,151.89s-3.55-3.23-5.84.15,4,8.24,8.07,5.4S14.76,151.89,14.76,151.89Z"/><path class="cls-9" d="M102.58,148.45c.27,3.72-2.26,7.45-6.35,10.89-5.82,4.91-9.77,2.85-11.2,1.48S91,142.66,91,142.66a9.22,9.22,0,0,1,3.79-1.44c.75,1.81,1.76,6.25-2.12,12.56C87.8,161.59,100.84,158.35,102.58,148.45Z"/><path class="cls-9" d="M13.24,144.68s8.21,16.39,6.86,17.83-5.2,3.7-11.27-.89c-5.52-4.18-8.44-9-6.07-13.87,1.25,9.18,14.32,15.55,10.39,6.76-2.23-5-2.56-8.54-2.36-10.83A9.41,9.41,0,0,1,13.24,144.68Z"/><path class="cls-10" d="M89.22,127a34.23,34.23,0,0,1,1,4.31c1.39,7.51,2.35,23.4-10.36,35.73a88.67,88.67,0,0,1-13.26,11c-9.38,6-16.29,5.7-25.23,2C28.77,174.69,11.09,166.74,14,130.42a40.93,40.93,0,0,1,13.52-2.51c7.12,0,7.11-.72,12.28-17.51,0,.38.32,12.49.4,15.46s20.33,2,21.12-.77c.74-2.64,1.08-13.17-.14-15.75,1.15,1.73,5.43,8.31,6.06,11.28.74,3.43,1.63,4.49,9.39,4.07S89.22,127,89.22,127Z"/><path class="cls-9" d="M89.22,127a34.23,34.23,0,0,1,1,4.31c-5.2-2.28-15.57-6.17-21.65-4.1-8.36,2.84-24.4,2.53-28.31,2.87s-13.45-4-12.69,11.63,2.28,28.62,23.05,35.79a27.8,27.8,0,0,0,16,.55c-9.38,6-16.29,5.7-25.23,2C28.77,174.69,11.09,166.74,14,130.42a40.93,40.93,0,0,1,13.52-2.51c7.12,0,7.11-.72,12.28-17.51,0,.38.32,12.49.4,15.46s20.33,2,21.12-.77c.74-2.64,1.08-13.17-.14-15.75,1.15,1.73,5.43,8.31,6.06,11.28.74,3.43,1.63,4.49,9.39,4.07S89.22,127,89.22,127Z"/><g class="cls-11"><path class="cls-8" d="M83.4,159.91a7.71,7.71,0,1,1-7.91-7.51A7.72,7.72,0,0,1,83.4,159.91Z"/><path class="cls-8" d="M35.33,161.08a7.71,7.71,0,1,1-7.91-7.51A7.72,7.72,0,0,1,35.33,161.08Z"/></g><path class="cls-12" d="M66.15,160c2.39,3.1-.8,8.07-7.71,9.75a21.55,21.55,0,0,1-6,.57,23.51,23.51,0,0,1-5.33-.78h0c-6.32-1.75-8.77-6-6-9a4.47,4.47,0,0,1,.45-.42c1.36-1.13,3.24-1.26,5.23-1.06,1.12.11,2.29.33,3.41.53,2.18.38,4.23.7,5.67.09,3.38-1.43,7.59-2.14,9.79-.15A3.46,3.46,0,0,1,66.15,160Z"/><path class="cls-13" d="M46.79,159c.39,3.07-.41,5.38-3.19,4.59-2-.58-2.19-2.31-2-3.53C42.92,159,44.8,158.84,46.79,159Z"/><path class="cls-13" d="M65.66,159.51c0,3.94-6.24,3.74-12.75,4.06-2,.1-2.56-2.23-2.71-4,2.18.38,4.23.7,5.67.09C59.25,158.23,63.46,157.52,65.66,159.51Z"/><path class="cls-14" d="M58.44,169.78a21.55,21.55,0,0,1-6,.57,23.51,23.51,0,0,1-5.33-.78h0s2.32-3.63,5.29-.82C52.41,168.74,55.9,165.44,58.44,169.78Z"/><g class="cls-11"><path class="cls-15" d="M69.26,155.18a.72.72,0,1,1-1.44,0,.72.72,0,1,1,1.44,0Z"/><path class="cls-15" d="M73.17,158a.73.73,0,1,1-1.45,0,.72.72,0,0,1,.7-.74A.73.73,0,0,1,73.17,158Z"/><path class="cls-15" d="M76.44,155.25a.73.73,0,0,1-.71.74.72.72,0,0,1-.74-.7.73.73,0,0,1,.71-.75A.73.73,0,0,1,76.44,155.25Z"/><path class="cls-15" d="M80.85,157.06a.73.73,0,0,1-.7.75.73.73,0,0,1-.75-.71.73.73,0,0,1,.71-.74A.72.72,0,0,1,80.85,157.06Z"/><path class="cls-15" d="M84.65,153.65a.72.72,0,1,1-1.44,0,.72.72,0,1,1,1.44,0Z"/></g><g class="cls-11"><path class="cls-15" d="M28.38,157.22a.72.72,0,1,1-1.44,0,.72.72,0,1,1,1.44,0Z"/><path class="cls-15" d="M31.46,159.8a.73.73,0,1,1-.74-.71A.73.73,0,0,1,31.46,159.8Z"/><path class="cls-15" d="M35.36,156.79a.72.72,0,1,1-.74-.7A.72.72,0,0,1,35.36,156.79Z"/><path class="cls-15" d="M20.8,155.31a.72.72,0,0,1-.7.74.73.73,0,0,1-.75-.7.74.74,0,0,1,.71-.75A.73.73,0,0,1,20.8,155.31Z"/><path class="cls-15" d="M23.25,159.29a.73.73,0,1,1-.74-.71A.73.73,0,0,1,23.25,159.29Z"/></g><path class="cls-3" d="M15.11,152.52c2.63,5.11,7.55,8.92,13.8,12l-18,6C9.39,164.63,12.87,158.63,15.11,152.52Z"/><path class="cls-3" d="M88.83,152.52c-2.63,5.11-7.55,8.92-13.8,12l19.88,6C96.42,164.63,91.07,158.63,88.83,152.52Z"/><path class="cls-3" d="M82.91,179.5c-8-3-22-11-22-11a20.69,20.69,0,0,1-8,2,29.56,29.56,0,0,1-9-2,126,126,0,0,1-24,7l31,10Z"/><path class="cls-16" d="M97.44,160.66c-.26,4.16-3.48,7.61-7.88,7.22-5-.43-7.76-6.17-11-9.37-6.69-6.68-15.11-11.8-24.39-8.46-.2.23-.33.4-.43.54a12.05,12.05,0,0,0-2,3.51,12.05,12.05,0,0,0-2-3.51c-.1-.14-.23-.31-.43-.54-9.28-3.34-17.7,1.78-24.39,8.46-3.2,3.2-6,8.94-11,9.37-4.4.39-7.62-3.06-7.88-7.22-4.16,5,0,11.19,5.09,14.46,5.75,3.69,13.37,3.4,19.77,1.61s18.15-8.37,20.79-16.33c2.64,8,14.38,14.55,20.78,16.33s14,2.08,19.78-1.61C97.48,171.85,101.6,165.7,97.44,160.66Z"/><path class="cls-8" d="M58.14,149.49c.24,2.24-3.58,5.34-5.36,4.95-6.14-1.35-9-6.88-.2-7.12h0C56.54,147.22,58,148.21,58.14,149.49Z"/><path class="cls-17" d="M58.14,149.49c.24,2.24-3.58,5.34-5.36,4.95-6.14-1.35-9-6.88-.2-7.12-.27.08-4.47,1.37-1.17,4C53.73,153.08,55.52,152.12,58.14,149.49Z"/><polygon class="cls-2" points="69.77 82.85 58.27 90.19 51.59 79.37 44.91 90.19 33.42 82.85 38.37 99.2 51.59 98.47 64.81 99.2 69.77 82.85"/><circle class="cls-18" cx="73.43" cy="145.17" r="5.75" transform="translate(-84.77 183.11) rotate(-76.65)"/><path class="cls-13" d="M77,144a1.9,1.9,0,1,1-1.9-1.9A1.9,1.9,0,0,1,77,144Z"/><circle class="cls-18" cx="31.49" cy="145.17" r="5.75" transform="translate(-117 149.22) rotate(-79.32)"/><path class="cls-13" d="M35.09,144a1.9,1.9,0,1,1-1.9-1.9A1.9,1.9,0,0,1,35.09,144Z"/><path class="cls-3" d="M38.06,142.5H21.21a3.27,3.27,0,0,1-3.27-3.27h0A3.28,3.28,0,0,1,21.21,136H38.06a3.28,3.28,0,0,1,3.27,3.27h0A3.27,3.27,0,0,1,38.06,142.5Z"/><path class="cls-3" d="M82.05,142.5H65.21a3.26,3.26,0,0,1-3.27-3.27h0A3.27,3.27,0,0,1,65.21,136H82.05a3.27,3.27,0,0,1,3.27,3.27h0A3.26,3.26,0,0,1,82.05,142.5Z"/><path class="cls-1" d="M81.06,29.23A29.25,29.25,0,0,1,58.49,57.7L51.82,72,45.15,57.7A29.24,29.24,0,1,1,81.06,29.23Z"/><path class="cls-13" d="M47.5,29.08v-.14c-1.82-1-4.58-3.42-4.58-6.89,0-4.94,4.27-8.15,9.65-8.15,5.57,0,9.84,3.21,9.84,8.15,0,3.38-2.76,5.78-4.59,6.85v.18c2,1,5.39,3.6,5.39,7.43,0,4.85-4.1,8.54-10.64,8.54-6.36,0-10.45-3.69-10.45-8.54C42.12,32.64,46.26,29.7,47.5,29.08Zm5.16,11.43c2.45,0,4.63-1.65,4.63-4.09,0-2-1.65-4.05-4.63-4.72-3,.67-4.63,2.72-4.63,4.72C48,38.86,50.26,40.51,52.66,40.51Zm4.05-18.24a3.92,3.92,0,0,0-4.14-3.78,3.88,3.88,0,0,0-4,3.78c0,2,1.25,3.56,4,4.23C55.42,25.87,56.71,24.18,56.71,22.27Z"/></g></g></svg>