<svg xmlns="http://www.w3.org/2000/svg" viewBox="0 0 101.24 118.75"><defs><style>.cls-1{fill:#a97d3f;}.cls-2{fill:#f5a67b;}.cls-3{fill:#ed6d6d;}.cls-4{fill:#e41919;opacity:0.16;}.cls-5{fill:#f8b890;}.cls-6{opacity:0.61;}.cls-7{fill:#461013;}.cls-8{fill:#fff;}.cls-9{fill:#f087b4;}.cls-10{fill:#d12017;}.cls-11{fill:#8b6833;}.cls-12{fill:#b41543;opacity:0.28;}.cls-13{fill:#eec602;}.cls-14{fill:#221a16;}</style></defs><title>D_tete</title><g id="Calque_2" data-name="Calque 2"><g id="Calque_1-2" data-name="Calque 1"><path class="cls-1" d="M87.56,33c5,12.39,4.44,34.84,5.54,46.49s12.86,18.88,6,26.77c-4.18,4.81-9.64,1.7-13.54-1.05-2.51-1.77-4.38-3.38-4.87-2.67-1.24,1.82,4.6,10-7.87,12.43s-13.92-2.41-15-7.48c-.65-3.17-1.18.05-3,3.77a13.33,13.33,0,0,1-4.93,5.91c-6.17,3.54-13.15.67-12-4.18s.95-3.07-2.3-.26-5.92,5.45-11.43,3.51S1.06,110.1,3.93,103.11s3.65-8,2.07-25.45C4.54,61.49-.14,22.46,38.28,14.57l.16,0a70.71,70.71,0,0,1,9.73-1.23C65.18,12.3,82.57,20.6,87.56,33Z"/><path class="cls-2" d="M98.74,64.43a8.65,8.65,0,0,1,1.91,4.65c.27,3.72-2.26,7.44-6.35,10.89-5.82,4.91-9.77,2.85-11.2,1.48S89,63.29,89,63.29a9.22,9.22,0,0,1,3.79-1.44A6.15,6.15,0,0,1,98.74,64.43Z"/><path class="cls-2" d="M11.31,65.31s8.21,16.39,6.86,17.83S13,86.84,6.9,82.25c-5.53-4.18-8.44-9-6.07-13.87A10.91,10.91,0,0,1,1.66,67a6.29,6.29,0,0,1,7.2-2.65A9.41,9.41,0,0,1,11.31,65.31Z"/><path class="cls-3" d="M87.88,70.56s3.38-3.41,5.84-.15-3.57,8.44-7.79,5.82S87.88,70.56,87.88,70.56Z"/><path class="cls-3" d="M12.83,72.52S9.27,69.29,7,72.67s4,8.24,8.07,5.4S12.83,72.52,12.83,72.52Z"/><path class="cls-4" d="M100.65,69.08c.27,3.72-2.26,7.44-6.35,10.89-5.82,4.91-9.77,2.85-11.2,1.48S89,63.29,89,63.29a9.22,9.22,0,0,1,3.79-1.44c.75,1.81,1.76,6.24-2.12,12.56C85.87,82.22,98.91,79,100.65,69.08Z"/><path class="cls-4" d="M11.31,65.31s8.21,16.39,6.86,17.83S13,86.84,6.9,82.25c-5.53-4.18-8.44-9-6.07-13.87,1.25,9.18,14.32,15.55,10.39,6.76C9,70.17,8.66,66.6,8.86,64.31A9.41,9.41,0,0,1,11.31,65.31Z"/><path class="cls-5" d="M87.29,47.58a34.23,34.23,0,0,1,1,4.31C89.73,59.4,90.69,75.29,78,87.62a88.18,88.18,0,0,1-13.27,11c-9.37,6-16.28,5.7-25.22,2C26.84,95.32,9.16,87.37,12.1,51.05a40.93,40.93,0,0,1,13.52-2.51c7.12,0,7.1-.72,12.28-17.51,0,.38.32,12.49.4,15.46s20.33,2,21.12-.77c.73-2.64,1.08-13.17-.14-15.75,1.15,1.73,5.43,8.31,6.06,11.28.74,3.43,1.63,4.49,9.39,4.07S87.29,47.58,87.29,47.58Z"/><path class="cls-4" d="M87.29,47.58a34.23,34.23,0,0,1,1,4.31c-5.21-2.28-15.57-6.17-21.65-4.1-8.36,2.84-24.4,2.53-28.31,2.87S24.93,46.71,25.69,62.29,28,90.91,48.74,98.08a27.77,27.77,0,0,0,16,.55c-9.37,6-16.28,5.7-25.22,2C26.84,95.32,9.16,87.37,12.1,51.05a40.93,40.93,0,0,1,13.52-2.51c7.12,0,7.1-.72,12.28-17.51,0,.38.32,12.49.4,15.46s20.33,2,21.12-.77c.73-2.64,1.08-13.17-.14-15.75,1.15,1.73,5.43,8.31,6.06,11.28.74,3.43,1.63,4.49,9.39,4.07S87.29,47.58,87.29,47.58Z"/><g class="cls-6"><path class="cls-3" d="M81.47,80.54A7.71,7.71,0,1,1,73.56,73,7.72,7.72,0,0,1,81.47,80.54Z"/><path class="cls-3" d="M33.4,81.71a7.71,7.71,0,1,1-7.91-7.51A7.72,7.72,0,0,1,33.4,81.71Z"/></g><path class="cls-7" d="M64.22,80.66c2.39,3.1-.8,8.07-7.71,9.75a22,22,0,0,1-6,.57,23.51,23.51,0,0,1-5.33-.78h0c-6.32-1.75-8.77-6-6-9a4.47,4.47,0,0,1,.45-.42c1.36-1.13,3.24-1.26,5.23-1.06,1.12.11,2.29.33,3.41.53,2.17.38,4.23.7,5.67.09,3.38-1.43,7.58-2.14,9.79-.15A3.46,3.46,0,0,1,64.22,80.66Z"/><path class="cls-8" d="M44.86,79.67c.39,3.07-.41,5.38-3.19,4.59-2-.58-2.19-2.31-2-3.53C41,79.6,42.87,79.47,44.86,79.67Z"/><path class="cls-8" d="M63.73,80.14c0,3.94-6.24,3.74-12.75,4.06-2,.1-2.56-2.23-2.71-4,2.17.38,4.23.7,5.67.09C57.32,78.86,61.52,78.15,63.73,80.14Z"/><path class="cls-9" d="M56.51,90.41a22,22,0,0,1-6,.57,23.51,23.51,0,0,1-5.33-.78h0s2.32-3.63,5.29-.82C50.48,89.37,54,86.07,56.51,90.41Z"/><g class="cls-6"><path class="cls-10" d="M67.33,75.81a.73.73,0,0,1-.7.75.74.74,0,0,1-.75-.71.73.73,0,0,1,.71-.74A.72.72,0,0,1,67.33,75.81Z"/><path class="cls-10" d="M71.24,78.62a.73.73,0,1,1-1.45,0,.72.72,0,0,1,.7-.74A.73.73,0,0,1,71.24,78.62Z"/><path class="cls-10" d="M74.51,75.88a.73.73,0,0,1-.71.74.72.72,0,0,1-.74-.7.73.73,0,0,1,.7-.75A.73.73,0,0,1,74.51,75.88Z"/><path class="cls-10" d="M78.92,77.69a.73.73,0,1,1-.74-.7A.72.72,0,0,1,78.92,77.69Z"/><path class="cls-10" d="M82.72,74.28a.72.72,0,0,1-1.44,0,.72.72,0,1,1,1.44,0Z"/></g><g class="cls-6"><path class="cls-10" d="M26.45,77.85a.72.72,0,1,1-1.44,0,.72.72,0,1,1,1.44,0Z"/><path class="cls-10" d="M29.53,80.43a.73.73,0,1,1-.74-.71A.73.73,0,0,1,29.53,80.43Z"/><path class="cls-10" d="M33.43,77.42a.73.73,0,0,1-1.45,0,.73.73,0,0,1,.71-.74A.72.72,0,0,1,33.43,77.42Z"/><path class="cls-10" d="M18.87,75.94a.72.72,0,0,1-.7.74.73.73,0,0,1-.75-.7.74.74,0,0,1,.71-.75A.73.73,0,0,1,18.87,75.94Z"/><path class="cls-10" d="M21.32,79.92a.73.73,0,0,1-1.45,0,.72.72,0,0,1,.7-.74A.73.73,0,0,1,21.32,79.92Z"/></g><path class="cls-1" d="M13.18,73.15c2.62,5.11,7.55,8.92,13.8,12l-18,6C7.46,85.26,10.94,79.26,13.18,73.15Z"/><path class="cls-1" d="M86.9,73.15c-2.63,5.11-7.55,8.92-13.8,12l19.88,6C94.49,85.26,89.14,79.26,86.9,73.15Z"/><path class="cls-1" d="M81,100.13c-8-3-22-11-22-11a20.69,20.69,0,0,1-8,2,29.56,29.56,0,0,1-9-2,126,126,0,0,1-24,7l31,10Z"/><path class="cls-11" d="M95.51,81.29c-.26,4.16-3.48,7.61-7.88,7.22-5-.43-7.76-6.17-11-9.37-6.68-6.68-15.1-11.8-24.38-8.46-.2.23-.33.4-.43.54a11.83,11.83,0,0,0-2,3.51,12.05,12.05,0,0,0-2-3.51c-.1-.14-.23-.31-.43-.54-9.28-3.34-17.7,1.78-24.39,8.46-3.2,3.2-6,8.94-11,9.37-4.4.39-7.62-3.06-7.88-7.22-4.16,5,0,11.19,5.09,14.46,5.75,3.69,13.37,3.4,19.77,1.61S47.21,89,49.86,81c2.64,8,14.38,14.55,20.78,16.33s14,2.08,19.78-1.61C95.55,92.48,99.67,86.33,95.51,81.29Z"/><path class="cls-3" d="M56.21,70.12c.24,2.24-3.59,5.34-5.36,4.95-6.14-1.35-9-6.88-.2-7.12h0C54.61,67.85,56.07,68.84,56.21,70.12Z"/><path class="cls-12" d="M56.21,70.12c.24,2.24-3.59,5.34-5.36,4.95-6.14-1.35-9-6.88-.2-7.12-.27.08-4.47,1.37-1.17,4C51.8,73.71,53.59,72.75,56.21,70.12Z"/><polygon class="cls-13" points="67.84 3.48 56.34 10.81 49.66 0 42.98 10.81 31.48 3.48 36.44 19.83 49.66 19.1 62.88 19.83 67.84 3.48"/><circle class="cls-14" cx="71.5" cy="65.8" r="5.75" transform="translate(-9.03 120.18) rotate(-76.65)"/><path class="cls-8" d="M75.1,64.63a1.9,1.9,0,1,1-1.9-1.9A1.9,1.9,0,0,1,75.1,64.63Z"/><circle class="cls-14" cx="29.56" cy="65.8" r="5.75" transform="translate(-40.58 82.66) rotate(-79.32)"/><path class="cls-8" d="M33.16,64.63a1.9,1.9,0,1,1-1.9-1.9A1.9,1.9,0,0,1,33.16,64.63Z"/><path class="cls-1" d="M36.13,63.13H19.28A3.27,3.27,0,0,1,16,59.86h0a3.28,3.28,0,0,1,3.27-3.27H36.13a3.28,3.28,0,0,1,3.27,3.27h0A3.27,3.27,0,0,1,36.13,63.13Z"/><path class="cls-1" d="M80.12,63.13H63.28A3.26,3.26,0,0,1,60,59.86h0a3.27,3.27,0,0,1,3.27-3.27H80.12a3.27,3.27,0,0,1,3.27,3.27h0A3.26,3.26,0,0,1,80.12,63.13Z"/></g></g></svg>