<svg xmlns="http://www.w3.org/2000/svg" viewBox="0 0 1921.5 1405.5"><defs><style>.cls-1{fill:#121426;}.cls-2{fill:#fff;opacity:0.1;}.cls-11,.cls-12,.cls-13,.cls-14,.cls-15,.cls-16,.cls-17,.cls-18,.cls-2,.cls-21,.cls-22,.cls-24,.cls-25,.cls-4,.cls-40,.cls-5,.cls-6,.cls-7,.cls-8,.cls-9{fill-rule:evenodd;}.cls-3{fill:#8fcaa6;}.cls-4{fill:#74a46e;}.cls-5{fill:#f3af47;}.cls-6{fill:#9c5060;}.cls-7{fill:#f0865b;}.cls-8{fill:#25908b;}.cls-10,.cls-15,.cls-18,.cls-19,.cls-9{fill:none;stroke-miterlimit:10;}.cls-10,.cls-18,.cls-19,.cls-9{stroke:#95ceb9;}.cls-10,.cls-15,.cls-9{stroke-width:2.15px;}.cls-11{fill:#39b4b1;}.cls-12,.cls-14,.cls-17{fill:#010101;}.cls-12{opacity:0.2;}.cls-13{fill:#259e9e;}.cls-14,.cls-17{stroke:#7ebe78;opacity:0.11;}.cls-14,.cls-17,.cls-20,.cls-21,.cls-23,.cls-24{stroke-miterlimit:22.93;}.cls-14{stroke-width:0.47px;}.cls-15{stroke:#9c5060;}.cls-16{fill:#1f807d;}.cls-17{stroke-width:0.48px;}.cls-18,.cls-19{stroke-width:2.21px;}.cls-20,.cls-21,.cls-23,.cls-24{fill:#7ecbe4;stroke:#496741;}.cls-20,.cls-21{stroke-width:1.1px;}.cls-22{fill:#496741;}.cls-23,.cls-24{stroke-width:1.08px;}.cls-25{fill:#0e6e6c;}.cls-26{fill:#f49740;}.cls-27{fill:#f8f8f7;}.cls-28{fill:#e94456;}.cls-29{fill:#005c90;}.cls-30{fill:#7ecbd6;}.cls-31{fill:#64c3ce;}.cls-32{fill:#8aa582;}.cls-33{fill:#cce8ed;}.cls-34{fill:#90b9a8;}.cls-35{fill:#544440;}.cls-36{fill:#a9d4d9;}.cls-37{fill:#8ebac6;}.cls-38{fill:#695550;}.cls-39{fill:#735e58;}.cls-40{fill:#89c280;}</style></defs><title>fond_2</title><g id="Calque_2" data-name="Calque 2"><g id="Calque_15" data-name="Calque 15"><rect class="cls-1" x="1.5" width="1920" height="1080"/><path class="cls-2" d="M1920,378.61V944.56H0V378.61a137.91,137.91,0,0,1,49.91-9.32,139.4,139.4,0,0,1,85,29C167.3,305.59,251.36,239.5,350,239.5c51.18,0,98.44,17.82,136.61,47.92,18.45-31.76,51.48-52.94,89.19-52.94,44.2,0,82,29.11,97.34,70.25A143.79,143.79,0,0,1,810.8,289C832.6,225.42,890,180,957.44,180c.86,0,1.71,0,2.56,0s1.7,0,2.56,0c67.41,0,124.83,45.43,146.64,109a143.77,143.77,0,0,1,137.69,15.7c15.38-41.14,53.15-70.25,97.35-70.25,37.71,0,70.74,21.18,89.18,52.94,38.17-30.1,85.43-47.92,136.62-47.92,98.59,0,182.65,66.09,215.1,158.84a139.39,139.39,0,0,1,84.94-29A137.92,137.92,0,0,1,1920,378.61Z"/><rect class="cls-3" x="0.5" y="449.57" width="1920" height="955.93"/><path class="cls-4" d="M1749.49,1347c0,2.45-22.13,4.44-49.44,4.44s-49.42-2-49.42-4.44,22.13-4.44,49.42-4.44S1749.49,1344.5,1749.49,1347Z"/><path class="cls-4" d="M1805.41,1300.05c0,2.45-15.27,4.44-34.11,4.44s-34.1-2-34.1-4.44,15.27-4.44,34.1-4.44S1805.41,1297.6,1805.41,1300.05Z"/><path class="cls-5" d="M1796.27,1252c-19.39,14.7-50.78,1.3-68.16-13.75a18.36,18.36,0,0,1-6.1-10c-4-18.86,25.84-23.51,26.72-40.4.37-7.4-5.2-13.54-9.31-19.71-9.38-14.07-12-31.86-10.05-48.66s8.28-32.79,15.62-48c6-12.46,16.69-26.56,30.2-23.56,8.68,1.93,14.25,10.56,16.78,19.08,3.46,11.72,3,24.31.63,36.31-1,5.31-2.41,10.83-1,16,3.66,13.37,22.42,16.39,29.21,28.47,6.93,12.3-1.33,27.26-9,39.12-6.54,10.15-10.56,16.45-6.27,25.12a19.13,19.13,0,0,0,4.75,5.94C1814.45,1221.5,1822.18,1232.34,1796.27,1252Z"/><path class="cls-6" d="M1768.61,1078.27c0,4.5-6.25,219.44-6.25,219.44l17.89,1.57Z"/><path class="cls-6" d="M1773.53,1208l36.61-38.83-39.79,35.57a2.28,2.28,0,0,0,3,3.4Z"/><path class="cls-6" d="M1765.89,1141.29l-14.83-29,17.75,27.36a1.69,1.69,0,1,1-2.83,1.84Z"/><path class="cls-6" d="M1772.22,1202.19l35.42-53.45Z"/><path class="cls-7" d="M1728,1260.32c-25.3,19.19-66.25,1.71-88.94-17.93a24.06,24.06,0,0,1-8-13.09c-5.16-24.62,33.72-30.68,34.86-52.73.5-9.65-6.78-17.66-12.13-25.7-12.24-18.37-15.71-41.59-13.12-63.5s10.81-42.8,20.37-62.69c7.82-16.27,21.79-34.67,39.42-30.75,11.32,2.51,18.59,13.78,21.88,24.9,4.53,15.29,3.88,31.72.84,47.38-1.35,6.93-3.15,14.13-1.28,20.94,4.77,17.45,29.24,21.4,38.12,37.16,9,16-1.74,35.57-11.72,51-8.54,13.24-13.78,21.46-8.19,32.77a24.78,24.78,0,0,0,6.2,7.75C1751.73,1220.52,1761.8,1234.68,1728,1260.32Z"/><path class="cls-6" d="M1694.75,1039.19c0,5.47-5.57,305.47-5.57,305.47l21.75,1.91Z"/><path class="cls-6" d="M1695.68,1251.81l-44.5-47.2,48.37,43.23a2.78,2.78,0,1,1-3.7,4.14Z"/><path class="cls-6" d="M1691.44,1115.79l-18-35.31,21.57,33.26a2.06,2.06,0,0,1-3.45,2.24A1.14,1.14,0,0,1,1691.44,1115.79Z"/><path class="cls-6" d="M1699.12,1189.82l43.06-65Z"/><path class="cls-6" d="M1696.9,1188.35l45.28-63.5-40.83,66.45a2.67,2.67,0,0,1-4.55-2.8Z"/><path class="cls-8" d="M1887,454.29H1282.32c1.73-57.38,40.56-47.9,66.55-47.37s13.7-45.41,28.66-69.8,45.46,10.58,69.78,0,30-81.75,53.34-82.34,26.76,70.49,44.88,69.62c15-.73,20.54-28,39.13-25.65,18.59-2.37,24.13,24.92,39.13,25.65,18.12.87,21.57-70.21,44.87-69.62s29,71.75,53.35,82.34,54.82-24.39,69.77,0,2.68,70.34,28.67,69.8S1885.27,396.91,1887,454.29Z"/><path class="cls-9" d="M1501.23,281.91s8.92,102.25,1.15,172.52"/><line class="cls-10" x1="1577.03" y1="328.7" x2="1585" y2="336.47"/><line class="cls-10" x1="1571.21" y1="357.67" x2="1585" y2="368.12"/><line class="cls-10" x1="1567.1" y1="383.6" x2="1585" y2="397.67"/><line class="cls-10" x1="1513.02" y1="288.71" x2="1502.77" y2="303.12"/><line class="cls-10" x1="1483.11" y1="297.58" x2="1503.61" y2="317.3"/><line class="cls-10" x1="1526.54" y1="323.69" x2="1504.92" y2="347.78"/><line class="cls-10" x1="1472.47" y1="335.74" x2="1505.56" y2="368.17"/><line class="cls-10" x1="1544.67" y1="351.95" x2="1505.55" y2="389.7"/><line class="cls-10" x1="1461.82" y1="376.58" x2="1505.03" y2="416.2"/><line class="cls-10" x1="1550.7" y1="398.7" x2="1504.33" y2="430.91"/><path class="cls-9" d="M1396.34,352s17,52.34,18.41,102.48"/><line class="cls-10" x1="1408.42" y1="356.41" x2="1402.22" y2="372.85"/><line class="cls-10" x1="1428.56" y1="364.7" x2="1409.26" y2="405.13"/><line class="cls-10" x1="1434.02" y1="400.43" x2="1413.42" y2="434.39"/><line class="cls-10" x1="1388.57" y1="371.73" x2="1403.84" y2="379.42"/><line class="cls-10" x1="1380.23" y1="396.39" x2="1410.35" y2="411.42"/><line class="cls-10" x1="1386.72" y1="427.91" x2="1413.8" y2="438.41"/><path class="cls-9" d="M1668.09,281.91s-8.92,102.25-1.16,172.52"/><path class="cls-9" d="M1585,315.5s-6.83,68.66.93,138.93"/><line class="cls-10" x1="1592.29" y1="328.7" x2="1584.32" y2="336.47"/><line class="cls-10" x1="1598.11" y1="357.67" x2="1584.32" y2="368.12"/><line class="cls-10" x1="1602.21" y1="383.6" x2="1584.32" y2="397.67"/><line class="cls-10" x1="1656.29" y1="288.71" x2="1666.55" y2="303.12"/><line class="cls-10" x1="1686.21" y1="297.58" x2="1665.71" y2="317.3"/><line class="cls-10" x1="1642.77" y1="323.69" x2="1664.39" y2="347.78"/><line class="cls-10" x1="1696.85" y1="335.74" x2="1663.76" y2="368.17"/><line class="cls-10" x1="1624.65" y1="351.95" x2="1663.77" y2="389.7"/><line class="cls-10" x1="1707.5" y1="376.58" x2="1664.29" y2="416.2"/><line class="cls-10" x1="1618.61" y1="398.7" x2="1664.99" y2="430.91"/><path class="cls-9" d="M1773,352s-17,52.34-18.41,102.48"/><line class="cls-10" x1="1760.89" y1="356.41" x2="1767.1" y2="372.85"/><line class="cls-10" x1="1740.76" y1="364.7" x2="1760.06" y2="405.13"/><line class="cls-10" x1="1735.29" y1="400.43" x2="1755.9" y2="434.39"/><line class="cls-10" x1="1780.74" y1="371.73" x2="1765.48" y2="379.42"/><line class="cls-10" x1="1789.09" y1="396.39" x2="1758.97" y2="411.42"/><line class="cls-10" x1="1782.59" y1="427.91" x2="1755.52" y2="438.41"/><path class="cls-11" d="M1416.58,454.29c5.41-37-7.5-59-22.84-61.7-15.77-2.8-26.4-8.57-31.17-33.62s-7.69-50.48-25.29-47.18-23.84,25.67-25.3,51.33-12.46,22.73-27.5,32.79c-11.74,7.86-3.34,43.27.9,58.38Z"/><path class="cls-12" d="M1399.5,425.67c-7.15-5-21.63,5-33.18,3.71s-8.61-37.21-24.74-37.21-14.85,41.06-27.68,41.25-11.73-17.78-22.18-11.79c-8.62,4.94-3,25.57-.8,32.66h103.92C1398.8,444.87,1404.44,429.12,1399.5,425.67Z"/><path class="cls-9" d="M1338.64,330.31s6.4,73.48.82,124"/><line class="cls-10" x1="1347.11" y1="335.2" x2="1339.74" y2="345.55"/><line class="cls-10" x1="1325.61" y1="341.57" x2="1340.34" y2="355.75"/><line class="cls-10" x1="1356.82" y1="360.33" x2="1341.29" y2="377.65"/><line class="cls-10" x1="1317.96" y1="368.99" x2="1341.75" y2="392.3"/><line class="cls-10" x1="1369.85" y1="380.65" x2="1341.74" y2="407.78"/><line class="cls-10" x1="1324.8" y1="410.52" x2="1341.36" y2="426.81"/><line class="cls-10" x1="1362.17" y1="414.86" x2="1340.87" y2="437.39"/><path class="cls-9" d="M1298.68,407.73s6.43,10.53,7.47,46.56"/><line class="cls-10" x1="1314.25" y1="424.95" x2="1305.19" y2="439.89"/><line class="cls-10" x1="1286" y1="435.23" x2="1305.46" y2="442.77"/><path class="cls-9" d="M1390.52,415.82s-3.3,2.44-4.33,38.47"/><line class="cls-10" x1="1378.11" y1="425" x2="1387.14" y2="439.89"/><line class="cls-10" x1="1400.57" y1="437.47" x2="1386.87" y2="442.77"/><path class="cls-13" d="M1296.36,454.15s7.32-96-9.42-98-13.8,40.18-30.45,39.82-25.78-14.3-31.86.69-6.24,29.59-20.64,25.08-35.68,32.45-35.68,32.45Z"/><path class="cls-14" d="M1204,421.7c14.4,4.51,14.55-10.08,20.64-25.08,5.15-12.68,12.46-4.66,24.67-1.67v59.2h-81S1189.58,417.2,1204,421.7Z"/><path class="cls-8" d="M535.08,303.5a18.9,18.9,0,0,0-9.89,3.5,12.88,12.88,0,0,1,7.89-3.49A19.1,19.1,0,0,1,535.08,303.5Z"/><path class="cls-8" d="M738.15,415.83v38.46H332V415.83c29.26-36.39,80.78-37.48,119.93-33.13,43.29,4.81,50.15-59.75,73.26-75.7A15.71,15.71,0,0,1,545,307c23.11,16,30,80.5,73.25,75.69C657.37,378.35,708.9,379.44,738.15,415.83Z"/><path class="cls-8" d="M545,307a18.83,18.83,0,0,0-9.89-3.51,18.91,18.91,0,0,1,2,0A12.87,12.87,0,0,1,545,307Z"/><path class="cls-11" d="M597.31,454.15s-10.12-132.58,13-135.43,19,55.52,42,55,35.6-19.76,44,1,8.61,40.86,28.51,34.64,49.28,44.82,49.28,44.82Z"/><path class="cls-14" d="M724.9,409.33c-19.9,6.22-20.11-13.93-28.51-34.64-7.12-17.52-17.22-6.45-34.09-2.31v81.77H774.18S744.8,403.11,724.9,409.33Z"/><path class="cls-9" d="M679.09,403.16s-6.1-1.43-7.61,51"/><line class="cls-10" x1="659.74" y1="411.54" x2="672.87" y2="433.19"/><line class="cls-10" x1="693.79" y1="429.14" x2="672.48" y2="437.4"/><path class="cls-9" d="M618.7,353.78s-5.28,39.65,1.45,100.51"/><line class="cls-10" x1="630.1" y1="367.14" x2="617.4" y2="379.58"/><line class="cls-10" x1="609.63" y1="390.72" x2="617.41" y2="398.23"/><line class="cls-10" x1="641.83" y1="395.39" x2="617.86" y2="421.18"/><line class="cls-10" x1="602.3" y1="422.7" x2="618.46" y2="433.92"/><path class="cls-7" d="M1525.24,403c-20.35,15.44-53.32,1.38-71.57-14.43a19.25,19.25,0,0,1-6.41-10.53c-4.15-19.81,27.14-24.69,28-42.43.4-7.77-5.45-14.21-9.76-20.69-9.85-14.77-12.64-33.46-10.56-51.1s8.7-34.43,16.4-50.44c6.29-13.1,17.53-27.9,31.72-24.75,9.11,2,15,11.09,17.61,20,3.64,12.3,3.12,25.52.67,38.13-1.08,5.57-2.53,11.37-1,16.86,3.84,14,23.54,17.21,30.68,29.89,7.27,12.91-1.4,28.63-9.44,41.08-6.87,10.66-11.09,17.27-6.58,26.37a20.13,20.13,0,0,0,5,6.25C1544.34,371,1552.45,382.38,1525.24,403Z"/><path class="cls-6" d="M1498.49,225.06c0,4.41-4.48,245.83-4.48,245.83l17.5,1.53Z"/><path class="cls-6" d="M1499.24,396.17l-35.81-38L1502.35,393a2.23,2.23,0,1,1-3,3.33Z"/><path class="cls-6" d="M1495.82,286.71l-14.5-28.42,17.36,26.77a1.65,1.65,0,0,1-2.77,1.8Z"/><path class="cls-6" d="M1502,346.28,1536.66,294Z"/><path class="cls-6" d="M1500.22,345.09,1536.66,294l-32.86,53.47a2.15,2.15,0,1,1-3.66-2.25Z"/><path class="cls-5" d="M1472.8,414.9c-15.6,11.83-40.86,1.05-54.85-11.06a14.77,14.77,0,0,1-4.9-8.07c-3.19-15.18,20.79-18.92,21.49-32.52.31-5.95-4.18-10.89-7.48-15.85-7.55-11.33-9.69-25.65-8.09-39.16s6.66-26.39,12.56-38.66c4.83-10,13.44-21.38,24.31-19,7,1.55,11.47,8.49,13.5,15.35,2.79,9.43,2.39,19.56.51,29.22-.83,4.28-1.94,8.72-.79,12.92,3,10.76,18,13.19,23.51,22.91,5.58,9.89-1.08,21.94-7.23,31.49-5.26,8.16-8.49,13.23-5,20.21a15.35,15.35,0,0,0,3.82,4.78C1487.43,390.35,1493.65,399.08,1472.8,414.9Z"/><path class="cls-6" d="M1450.55,275.1c0,3.62-5,176.59-5,176.59l14.39,1.26Z"/><path class="cls-6" d="M1454.5,379.48,1484,348.23l-32,28.62a1.84,1.84,0,0,0,2.45,2.74Z"/><path class="cls-6" d="M1448.36,325.81l-11.93-23.38,14.28,22a1.36,1.36,0,1,1-2.28,1.48A.75.75,0,0,1,1448.36,325.81Z"/><path class="cls-6" d="M1453.45,374.82l28.5-43Z"/><path class="cls-13" d="M987.75,454.29c4.41-30.17-6.11-48.07-18.62-50.29-12.85-2.28-21.52-7-25.4-27.4s-6.28-41.15-20.62-38.46S903.69,359.06,902.49,380s-10.16,18.53-22.41,26.72c-9.57,6.41-2.73,35.28.72,47.59Z"/><path class="cls-12" d="M973.83,431c-5.83-4.08-17.63,4.07-27.05,3s-7-30.33-20.16-30.33-12.11,33.47-22.57,33.62-9.56-14.5-18.07-9.61c-7,4-2.47,20.84-.65,26.62H970C973.26,446.61,977.85,433.78,973.83,431Z"/><path class="cls-9" d="M924.22,353.24s5.22,59.89.67,101.05"/><line class="cls-10" x1="931.12" y1="357.22" x2="925.12" y2="365.66"/><line class="cls-10" x1="913.6" y1="362.42" x2="925.61" y2="373.97"/><line class="cls-10" x1="939.04" y1="377.71" x2="926.38" y2="391.82"/><line class="cls-10" x1="907.37" y1="384.77" x2="926.75" y2="403.76"/><line class="cls-10" x1="949.66" y1="394.27" x2="926.75" y2="416.38"/><line class="cls-10" x1="912.94" y1="418.61" x2="926.44" y2="431.9"/><line class="cls-10" x1="943.4" y1="422.15" x2="926.03" y2="440.52"/><path class="cls-9" d="M891.65,416.34s5.24,8.59,6.08,38"/><line class="cls-10" x1="904.34" y1="430.38" x2="896.96" y2="442.55"/><line class="cls-10" x1="881.32" y1="438.76" x2="897.18" y2="444.9"/><path class="cls-9" d="M966.51,422.93s-2.69,2-3.53,31.36"/><line class="cls-10" x1="956.39" y1="430.41" x2="963.76" y2="442.55"/><line class="cls-10" x1="974.7" y1="440.58" x2="963.53" y2="444.9"/><path class="cls-11" d="M902.93,454.29c3.05-20.88-4.23-33.27-12.88-34.81-8.9-1.57-14.9-4.83-17.58-19S868.12,372,858.2,373.9s-13.45,14.48-14.27,29-7,12.82-15.52,18.5c-6.62,4.43-1.88,24.41.5,32.93Z"/><path class="cls-12" d="M893.84,438.15c-4-2.82-12.2,2.81-18.72,2.09s-4.86-21-14-21-8.37,23.16-15.61,23.26-6.62-10-12.52-6.65c-4.86,2.79-1.7,14.43-.44,18.43h58.62C893.44,449,896.62,440.09,893.84,438.15Z"/><path class="cls-5" d="M990.23,459.5c-9.55,7.25-25,.64-33.61-6.78a9.06,9.06,0,0,1-3-4.94c-2-9.31,12.75-11.6,13.18-19.93.18-3.65-2.56-6.68-4.59-9.71-4.62-6.95-5.93-15.72-5-24s4.08-16.17,7.69-23.68c3-6.15,8.24-13.11,14.9-11.63,4.28.95,7,5.21,8.27,9.41,1.72,5.78,1.47,12,.32,17.91-.51,2.62-1.19,5.34-.49,7.92,1.81,6.59,11.06,8.08,14.41,14s-.66,13.44-4.43,19.29c-3.23,5-5.21,8.11-3.09,12.38a9.4,9.4,0,0,0,2.34,2.94C999.2,444.46,1003,449.81,990.23,459.5Z"/><path class="cls-8" d="M1005.12,460.49c-6.53,5-17.11.44-23-4.63a6.14,6.14,0,0,1-2.06-3.38c-1.33-6.35,8.71-7.92,9-13.61.13-2.49-1.75-4.56-3.13-6.64-3.16-4.74-4.06-10.74-3.39-16.4s2.79-11.05,5.26-16.18c2-4.2,5.63-8.95,10.18-7.94,2.92.64,4.8,3.55,5.65,6.42a26,26,0,0,1,.22,12.24c-.35,1.79-.82,3.65-.34,5.41,1.24,4.5,7.56,5.52,9.85,9.59s-.45,9.19-3,13.18c-2.2,3.43-3.56,5.55-2.11,8.47a6.32,6.32,0,0,0,1.6,2C1011.25,450.22,1013.85,453.87,1005.12,460.49Z"/><path class="cls-5" d="M524.9,429.7s49.78-29.18,54.64-13.5C585.13,434.2,524.9,429.7,524.9,429.7Z"/><path class="cls-5" d="M523.75,431.5s-14.84-55.76-29.34-48C477.78,392.33,523.75,431.5,523.75,431.5Z"/><path class="cls-5" d="M544,392.71s50.84-21.47,54-6.23C601.42,403.06,544,392.71,544,392.71Z"/><path class="cls-5" d="M540.91,392.41s-11.27-53.3-30.55-44a10,10,0,0,0-2.36,1.55v11.25C515.51,374.69,540.91,392.41,540.91,392.41Z"/><path class="cls-5" d="M560.72,361.31c8.76-7,50.7-22.47,52.22-11.07C615.57,370.07,560.72,361.31,560.72,361.31Z"/><path class="cls-5" d="M556.06,360.21c-5.34-18.63-19.6-49.63-29.69-43.85C509.8,325.86,556.06,360.21,556.06,360.21Z"/><path class="cls-5" d="M568.75,328.71c-1.13-16.57-15.13-44.49-27.19-39.63S568.75,328.71,568.75,328.71Z"/><path class="cls-5" d="M573.6,324.84s34-41.45,18-47.94S573.6,324.84,573.6,324.84Z"/><path class="cls-15" d="M585.67,293.2s-22,69.58-76.7,160.63"/><path class="cls-5" d="M570.72,331.73s44.57-23.08,48.93-10.23C625,337.34,570.72,331.73,570.72,331.73Z"/><polyline class="cls-15" points="606.15 324.45 570.72 331.73 550.92 301.01"/><polyline class="cls-15" points="598.48 354.47 557.24 361.93 534.09 328.2"/><polyline class="cls-15" points="580.8 388.74 542.07 392.92 519.1 359.75"/><polyline class="cls-15" points="570.46 419.05 523.34 432.7 509.42 407.42"/><path class="cls-4" d="M572,525.87c0,2.53-50.38,4.58-112.53,4.58s-112.54-2.05-112.54-4.58,50.39-4.57,112.54-4.57S572,523.34,572,525.87Z"/><path class="cls-16" d="M464.56,524.71s5.94-78.81-7.64-80.51-11.19,33-24.7,32.71-20.91-11.75-25.85.56-5.05,24.3-16.74,20.6-28.94,26.64-28.94,26.64Z"/><path class="cls-17" d="M389.63,498.07c11.69,3.7,11.81-8.28,16.74-20.6,4.18-10.41,10.11-3.83,20-1.37v48.61h-65.7S377.94,494.38,389.63,498.07Z"/><path class="cls-13" d="M554.24,524.71c3.87-26.78-5.35-42.68-16.32-44.65-11.28-2-18.88-6.2-22.29-24.33s-5.5-36.53-18.08-34.14-17,18.57-18.09,37.14-8.91,16.45-19.66,23.74c-8.4,5.68-2.39,31.31.64,42.24Z"/><path class="cls-12" d="M542,504c-5.12-3.62-15.47,3.61-23.73,2.68s-6.15-26.93-17.69-26.93S490,509.48,480.83,509.61s-8.39-12.87-15.86-8.53c-6.16,3.58-2.16,18.51-.57,23.63h74.3C541.53,517.9,545.57,506.5,542,504Z"/><path class="cls-18" d="M498.52,435s4.58,53.18.59,89.72"/><line class="cls-19" x1="504.58" y1="438.53" x2="499.31" y2="446.02"/><line class="cls-19" x1="489.21" y1="443.14" x2="499.74" y2="453.4"/><line class="cls-19" x1="511.53" y1="456.72" x2="500.42" y2="469.25"/><line class="cls-19" x1="483.74" y1="462.99" x2="500.74" y2="479.85"/><line class="cls-19" x1="520.84" y1="471.42" x2="500.74" y2="491.05"/><line class="cls-19" x1="488.62" y1="493.04" x2="500.47" y2="504.83"/><line class="cls-19" x1="515.35" y1="496.18" x2="500.11" y2="512.49"/><path class="cls-18" d="M470,491s4.59,7.62,5.33,33.69"/><line class="cls-19" x1="481.08" y1="503.48" x2="474.61" y2="514.29"/><line class="cls-19" x1="460.89" y1="510.92" x2="474.8" y2="516.38"/><path class="cls-18" d="M535.62,496.88s-2.36,1.76-3.1,27.83"/><line class="cls-19" x1="526.74" y1="503.52" x2="533.2" y2="514.29"/><line class="cls-19" x1="542.8" y1="512.54" x2="533.01" y2="516.38"/><path class="cls-4" d="M1905.28,487.51c0,2.45-41.38,4.44-92.43,4.44s-92.43-2-92.43-4.44,41.38-4.44,92.43-4.44S1905.28,485.06,1905.28,487.51Z"/><path class="cls-16" d="M1818.43,486.39c3.06-20.88-4.22-33.28-12.88-34.81-8.89-1.58-14.89-4.84-17.58-19s-4.34-28.48-14.27-26.62-13.45,14.48-14.27,29-7,12.82-15.51,18.49c-6.63,4.44-1.89,24.41.5,32.94Z"/><path class="cls-12" d="M1809.34,470.24c-4-2.81-12.2,2.82-18.71,2.1s-4.86-21-14-21-8.38,23.17-15.62,23.27-6.61-10-12.51-6.65c-4.86,2.79-1.71,14.43-.45,18.43h58.62C1809,481.07,1812.13,472.19,1809.34,470.24Z"/><path class="cls-13" d="M1887.85,486.39c3.79-26-5.27-41.41-16-43.32-11.07-2-18.53-6-21.87-23.6s-5.41-35.43-17.77-33.12-16.72,18-17.75,36-8.75,16-19.31,23c-8.24,5.52-2.35,30.38.63,41Z"/><path class="cls-12" d="M1875.86,466.3c-5-3.51-15.19,3.5-23.29,2.6s-6-26.12-17.38-26.12-10.42,28.83-19.43,29-8.24-12.49-15.57-8.28c-6,3.47-2.12,18-.56,22.93h72.95C1875.36,479.77,1879.32,468.72,1875.86,466.3Z"/><path class="cls-9" d="M1833.13,399.35s4.5,51.58.58,87"/><line class="cls-10" x1="1839.08" y1="402.78" x2="1833.9" y2="410.05"/><line class="cls-10" x1="1823.99" y1="407.26" x2="1834.33" y2="417.21"/><line class="cls-10" x1="1845.9" y1="420.43" x2="1834.99" y2="432.59"/><line class="cls-10" x1="1818.61" y1="426.51" x2="1835.31" y2="442.87"/><line class="cls-10" x1="1855.04" y1="434.69" x2="1835.3" y2="453.73"/><line class="cls-10" x1="1823.41" y1="455.66" x2="1835.04" y2="467.1"/><line class="cls-10" x1="1849.65" y1="458.7" x2="1834.69" y2="474.53"/><path class="cls-9" d="M1805.08,453.7s4.51,7.39,5.24,32.69"/><line class="cls-10" x1="1816.01" y1="465.79" x2="1809.65" y2="476.28"/><line class="cls-10" x1="1796.18" y1="473.01" x2="1809.84" y2="478.3"/><path class="cls-9" d="M1869.55,459.38s-2.31,1.71-3,27"/><line class="cls-10" x1="1860.84" y1="465.82" x2="1867.18" y2="476.28"/><line class="cls-10" x1="1876.6" y1="474.58" x2="1866.99" y2="478.3"/><path class="cls-4" d="M1280.14,504.91c0,2.07-44.67,3.76-99.76,3.76s-99.77-1.69-99.77-3.76,44.67-3.76,99.77-3.76S1280.14,502.83,1280.14,504.91Z"/><path class="cls-16" d="M1096.46,501c8.09,6.14,21.2.55,28.46-5.74a7.63,7.63,0,0,0,2.55-4.19c1.66-7.87-10.79-9.81-11.16-16.87-.16-3.09,2.17-5.66,3.89-8.23,3.91-5.88,5-13.31,4.19-20.32s-3.45-13.7-6.51-20.07c-2.51-5.21-7-11.09-12.62-9.84-3.62.8-6,4.41-7,8a32.23,32.23,0,0,0-.27,15.16c.44,2.22,1,4.53.42,6.71-1.53,5.58-9.36,6.84-12.21,11.89s.56,11.39,3.76,16.34c2.73,4.24,4.41,6.87,2.62,10.49a8.1,8.1,0,0,1-2,2.48C1088.86,488.31,1085.63,492.84,1096.46,501Z"/><path class="cls-13" d="M1198.29,504c3.79-25.94-5.25-41.32-16-43.23-11-2-18.5-6-21.84-23.55s-5.39-35.37-17.72-33.06-16.7,18-17.72,36-8.74,15.93-19.27,23c-8.23,5.51-2.34,30.31.63,40.9Z"/><path class="cls-12" d="M1186.32,483.91c-5-3.5-15.15,3.5-23.24,2.6s-6-26.07-17.34-26.07-10.4,28.77-19.39,28.89-8.22-12.45-15.54-8.26c-6,3.47-2.12,17.92-.56,22.89h72.81C1185.84,497.36,1189.78,486.33,1186.32,483.91Z"/><path class="cls-9" d="M1143.68,417.1s4.49,51.48.58,86.86"/><line class="cls-10" x1="1149.62" y1="420.52" x2="1144.46" y2="427.78"/><line class="cls-10" x1="1134.56" y1="424.99" x2="1144.88" y2="434.92"/><line class="cls-10" x1="1156.42" y1="438.13" x2="1145.54" y2="450.26"/><line class="cls-10" x1="1129.2" y1="444.2" x2="1145.86" y2="460.53"/><line class="cls-10" x1="1165.55" y1="452.36" x2="1145.86" y2="471.37"/><line class="cls-10" x1="1133.99" y1="473.29" x2="1145.6" y2="484.71"/><line class="cls-10" x1="1160.17" y1="476.33" x2="1145.24" y2="492.12"/><path class="cls-9" d="M1115.69,471.34s4.5,7.37,5.23,32.62"/><line class="cls-10" x1="1126.6" y1="483.4" x2="1120.25" y2="493.87"/><line class="cls-10" x1="1106.81" y1="490.6" x2="1120.44" y2="495.89"/><path class="cls-9" d="M1180,477s-2.31,1.7-3,26.95"/><line class="cls-10" x1="1171.34" y1="483.43" x2="1177.67" y2="493.87"/><line class="cls-10" x1="1187.07" y1="492.17" x2="1177.48" y2="495.89"/><path class="cls-16" d="M1189.63,503.84s-4.94-64.75,6.36-66.14,9.3,27.11,20.54,26.86,17.38-9.65,21.49.47,4.21,20,13.93,16.92S1276,503.84,1276,503.84Z"/><path class="cls-14" d="M1252,482c-9.72,3-9.82-6.8-13.93-16.92-3.47-8.56-8.41-3.15-16.65-1.13v39.94H1276S1261.66,478.91,1252,482Z"/><path class="cls-16" d="M332.2,514.15a13.15,13.15,0,0,0-15.65,10.16A13.15,13.15,0,0,0,332.2,514.15Z"/><path class="cls-16" d="M314.38,524.58A13.17,13.17,0,0,0,299.76,513,13.17,13.17,0,0,0,314.38,524.58Z"/><path class="cls-16" d="M332.2,497.91a13.15,13.15,0,0,0-15.65,10.16A13.15,13.15,0,0,0,332.2,497.91Z"/><path class="cls-16" d="M315.26,483.42a13.4,13.4,0,0,0,0,18.81A13.42,13.42,0,0,0,315.26,483.42Z"/><path class="cls-16" d="M314.38,508.34a13.18,13.18,0,0,0-14.62-11.62A13.18,13.18,0,0,0,314.38,508.34Z"/><rect class="cls-20" x="314.99" y="493.92" width="0.48" height="46.92"/><polygon class="cls-21" points="315.22 509.31 307.07 502.38 307.38 502.01 315.24 508.7 325.02 501.67 325.3 502.07 315.22 509.31"/><polygon class="cls-21" points="315.22 525.85 307.07 518.92 307.38 518.55 315.24 525.24 325.02 518.21 325.3 518.61 315.22 525.85"/><path class="cls-22" d="M286.31,536.76a45.63,45.63,0,0,0,9.38,6.74S294.53,540.66,286.31,536.76Z"/><path class="cls-22" d="M285.32,529.62s9.2,8.74,18.77,13.49C304.09,543.11,301.78,537.42,285.32,529.62Z"/><path class="cls-22" d="M297.2,532.19s7.52,7.15,15.34,11C312.54,543.22,310.66,538.57,297.2,532.19Z"/><path class="cls-22" d="M333.24,530.7s-8.64,8.21-17.61,12.66C315.63,543.36,317.8,538,333.24,530.7Z"/><path class="cls-22" d="M332.69,536.76a45.63,45.63,0,0,1-9.38,6.74S324.46,540.66,332.69,536.76Z"/><path class="cls-22" d="M339.67,536.76a45.63,45.63,0,0,1-9.38,6.74S331.44,540.66,339.67,536.76Z"/><path class="cls-16" d="M782,444.07a12.9,12.9,0,0,0-15.36,9.86A12.91,12.91,0,0,0,782,444.07Z"/><path class="cls-16" d="M764.5,454.19a12.9,12.9,0,0,0-14.35-11.27A12.9,12.9,0,0,0,764.5,454.19Z"/><path class="cls-16" d="M782,428.32a12.9,12.9,0,0,0-15.36,9.85A12.9,12.9,0,0,0,782,428.32Z"/><path class="cls-16" d="M765.36,414.26a12.9,12.9,0,0,0,0,18.25A12.9,12.9,0,0,0,765.36,414.26Z"/><path class="cls-16" d="M764.5,438.44a12.89,12.89,0,0,0-14.35-11.27A12.9,12.9,0,0,0,764.5,438.44Z"/><rect class="cls-23" x="765.1" y="424.45" width="0.48" height="45.51"/><polygon class="cls-24" points="765.32 439.38 757.32 432.66 757.62 432.29 765.35 438.79 774.95 431.97 775.23 432.35 765.32 439.38"/><polygon class="cls-24" points="765.32 455.43 757.32 448.7 757.62 448.34 765.35 454.83 774.95 448.01 775.23 448.4 765.32 455.43"/><path class="cls-22" d="M736.94,466a44.68,44.68,0,0,0,9.2,6.54S745,469.79,736.94,466Z"/><path class="cls-22" d="M736,459.07s9,8.49,18.42,13.09C754.39,472.16,752.13,466.65,736,459.07Z"/><path class="cls-22" d="M747.63,461.57s7.39,6.94,15.06,10.7C762.69,472.27,760.84,467.76,747.63,461.57Z"/><path class="cls-22" d="M783,460.13s-8.47,8-17.28,12.28C765.73,472.41,767.85,467.24,783,460.13Z"/><path class="cls-22" d="M782.47,466a44.68,44.68,0,0,1-9.2,6.54S774.4,469.79,782.47,466Z"/><path class="cls-22" d="M789.33,466a44.57,44.57,0,0,1-9.21,6.54S781.26,469.79,789.33,466Z"/><path class="cls-16" d="M133.51,452.67a12.9,12.9,0,0,0-15.36,9.85A12.9,12.9,0,0,0,133.51,452.67Z"/><path class="cls-16" d="M116,462.78a12.9,12.9,0,0,0-14.35-11.27A12.89,12.89,0,0,0,116,462.78Z"/><path class="cls-16" d="M133.51,436.91a12.91,12.91,0,0,0-15.36,9.86A12.9,12.9,0,0,0,133.51,436.91Z"/><path class="cls-16" d="M116.88,422.85a12.92,12.92,0,0,0,0,18.26A12.93,12.93,0,0,0,116.88,422.85Z"/><path class="cls-16" d="M116,447a12.9,12.9,0,0,0-14.35-11.27A12.91,12.91,0,0,0,116,447Z"/><rect class="cls-23" x="116.61" y="433.04" width="0.47" height="45.52"/><polygon class="cls-24" points="116.84 447.98 108.83 441.25 109.14 440.89 116.86 447.38 126.47 440.56 126.74 440.95 116.84 447.98"/><polygon class="cls-24" points="116.84 464.02 108.83 457.3 109.14 456.93 116.86 463.42 126.47 456.61 126.74 456.99 116.84 464.02"/><path class="cls-22" d="M644.41,501.83a45,45,0,0,0,9.2,6.54S652.49,505.61,644.41,501.83Z"/><path class="cls-22" d="M643.44,494.9s9,8.48,18.42,13.09C661.86,508,659.6,502.47,643.44,494.9Z"/><path class="cls-22" d="M655.1,497.39s7.39,6.94,15.07,10.71C670.17,508.1,668.32,503.59,655.1,497.39Z"/><path class="cls-22" d="M690.48,496s-8.47,8-17.28,12.29C673.2,508.24,675.32,503.06,690.48,496Z"/><path class="cls-22" d="M690,501.83a44.68,44.68,0,0,1-9.2,6.54S681.87,505.61,690,501.83Z"/><path class="cls-22" d="M696.8,501.83a44.68,44.68,0,0,1-9.2,6.54S688.73,505.61,696.8,501.83Z"/><path class="cls-22" d="M1311.57,483.31a44.41,44.41,0,0,0,9.2,6.53S1319.64,487.09,1311.57,483.31Z"/><path class="cls-22" d="M1310.6,476.38s9,8.48,18.42,13.09C1329,489.47,1326.76,484,1310.6,476.38Z"/><path class="cls-22" d="M1322.26,478.87s7.39,6.94,15.07,10.7C1337.33,489.57,1335.48,485.07,1322.26,478.87Z"/><path class="cls-22" d="M1357.65,477.43s-8.48,8-17.29,12.28C1340.36,489.71,1342.48,484.54,1357.65,477.43Z"/><path class="cls-22" d="M1357.1,483.31a44.41,44.41,0,0,1-9.2,6.53S1349,487.09,1357.1,483.31Z"/><path class="cls-22" d="M1364,483.31a44.62,44.62,0,0,1-9.21,6.53S1355.88,487.09,1364,483.31Z"/><path class="cls-22" d="M88.9,475.21a44.68,44.68,0,0,0,9.2,6.54S97,479,88.9,475.21Z"/><path class="cls-22" d="M87.93,468.28s9,8.48,18.42,13.09C106.35,481.37,104.09,475.86,87.93,468.28Z"/><path class="cls-22" d="M99.59,470.77s7.39,6.94,15.07,10.71C114.66,481.48,112.81,477,99.59,470.77Z"/><path class="cls-22" d="M135,469.33s-8.48,8-17.29,12.29C117.69,481.62,119.81,476.44,135,469.33Z"/><path class="cls-22" d="M134.44,475.21a44.89,44.89,0,0,1-9.21,6.54S126.36,479,134.44,475.21Z"/><path class="cls-22" d="M141.29,475.21a44.57,44.57,0,0,1-9.21,6.54S133.22,479,141.29,475.21Z"/><path class="cls-4" d="M1533.55,510.24c0,1.6-20.48,2.9-45.76,2.9s-45.76-1.3-45.76-2.9,20.49-2.91,45.76-2.91S1533.55,508.63,1533.55,510.24Z"/><path class="cls-25" d="M1519.68,508.45c3.9,2.95,10.22.26,13.72-2.77a3.64,3.64,0,0,0,1.22-2c.8-3.79-5.2-4.72-5.37-8.12-.08-1.49,1-2.73,1.87-4a14.65,14.65,0,0,0,2-9.79,31,31,0,0,0-3.14-9.66c-1.2-2.51-3.36-5.35-6.08-4.74-1.74.38-2.86,2.12-3.37,3.84a15.39,15.39,0,0,0-.13,7.3,7.11,7.11,0,0,1,.2,3.23c-.74,2.69-4.51,3.3-5.88,5.73s.27,5.48,1.81,7.87c1.31,2,2.12,3.31,1.26,5a3.83,3.83,0,0,1-1,1.2C1516,502.31,1514.47,504.49,1519.68,508.45Z"/><path class="cls-13" d="M1525.94,509.5c2.93-20-4-31.91-12.35-33.38-8.53-1.51-14.29-4.64-16.87-18.19s-4.16-27.31-13.68-25.52-12.9,13.88-13.69,27.77-6.74,12.29-14.87,17.74c-6.36,4.25-1.81,23.41.48,31.58Z"/><path class="cls-12" d="M1516.7,494c-3.86-2.7-11.7,2.7-18,2s-4.66-20.14-13.39-20.14-8,22.22-15,22.32-6.35-9.62-12-6.38c-4.67,2.68-1.64,13.84-.43,17.67h56.22C1516.33,504.4,1519.37,495.89,1516.7,494Z"/><path class="cls-9" d="M1483.77,442.43s3.47,39.75.45,67.07"/><line class="cls-10" x1="1488.36" y1="445.07" x2="1484.37" y2="450.67"/><line class="cls-10" x1="1476.73" y1="448.52" x2="1484.7" y2="456.19"/><line class="cls-10" x1="1493.61" y1="458.67" x2="1485.21" y2="468.04"/><line class="cls-10" x1="1472.59" y1="463.35" x2="1485.45" y2="475.96"/><line class="cls-10" x1="1500.66" y1="469.66" x2="1485.45" y2="484.34"/><line class="cls-10" x1="1476.29" y1="485.82" x2="1485.25" y2="494.64"/><line class="cls-10" x1="1496.51" y1="488.17" x2="1484.98" y2="500.36"/><path class="cls-9" d="M1462.16,484.31s3.48,5.7,4,25.19"/><line class="cls-10" x1="1470.58" y1="493.63" x2="1465.68" y2="501.71"/><line class="cls-10" x1="1455.3" y1="499.19" x2="1465.82" y2="503.27"/><path class="cls-9" d="M1511.85,488.69s-1.79,1.32-2.35,20.81"/><line class="cls-10" x1="1505.13" y1="493.65" x2="1510.02" y2="501.71"/><line class="cls-10" x1="1517.28" y1="500.4" x2="1509.87" y2="503.27"/><path class="cls-22" d="M872.17,481.61a38.83,38.83,0,0,0,8,5.65S879.14,484.88,872.17,481.61Z"/><path class="cls-22" d="M871.33,475.62s7.8,7.33,15.91,11.31C887.24,486.93,885.29,482.17,871.33,475.62Z"/><path class="cls-22" d="M881.4,477.78a63.76,63.76,0,0,0,13,9.25S892.82,483.13,881.4,477.78Z"/><path class="cls-22" d="M912,476.53s-7.33,6.89-14.94,10.62C897,487.15,898.88,482.68,912,476.53Z"/><path class="cls-22" d="M911.51,481.61a38.83,38.83,0,0,1-8,5.65S904.53,484.88,911.51,481.61Z"/><path class="cls-22" d="M917.43,481.61a38.83,38.83,0,0,1-7.95,5.65S910.45,484.88,917.43,481.61Z"/><path class="cls-22" d="M1808.15,566.6a44.68,44.68,0,0,0,9.2,6.54S1816.22,570.38,1808.15,566.6Z"/><path class="cls-22" d="M1807.18,559.67s9,8.49,18.42,13.09C1825.6,572.76,1823.33,567.25,1807.18,559.67Z"/><path class="cls-22" d="M1818.83,562.16s7.4,6.94,15.07,10.71C1833.9,572.87,1832.05,568.36,1818.83,562.16Z"/><path class="cls-22" d="M1854.22,560.73s-8.47,8-17.28,12.28C1836.94,573,1839.06,567.83,1854.22,560.73Z"/><path class="cls-22" d="M1853.68,566.6a44.68,44.68,0,0,1-9.2,6.54S1845.61,570.38,1853.68,566.6Z"/><path class="cls-22" d="M1860.53,566.6a44.68,44.68,0,0,1-9.2,6.54S1852.46,570.38,1860.53,566.6Z"/><path class="cls-16" d="M1722.7,537.8a12.89,12.89,0,0,0-15.35,9.85A12.89,12.89,0,0,0,1722.7,537.8Z"/><path class="cls-16" d="M1705.21,547.92a12.89,12.89,0,0,0-14.35-11.27A12.9,12.9,0,0,0,1705.21,547.92Z"/><path class="cls-16" d="M1722.7,522.05a12.89,12.89,0,0,0-15.35,9.85A12.89,12.89,0,0,0,1722.7,522.05Z"/><path class="cls-16" d="M1706.08,508a12.9,12.9,0,0,0,0,18.25A12.9,12.9,0,0,0,1706.08,508Z"/><path class="cls-16" d="M1705.21,532.16a12.91,12.91,0,0,0-14.35-11.27A12.9,12.9,0,0,0,1705.21,532.16Z"/><rect class="cls-23" x="1705.82" y="518.18" width="0.47" height="45.51"/><polygon class="cls-24" points="1706.04 533.11 1698.03 526.38 1698.34 526.02 1706.06 532.51 1715.67 525.69 1715.94 526.08 1706.04 533.11"/><polygon class="cls-24" points="1706.04 549.15 1698.03 542.43 1698.34 542.07 1706.06 548.56 1715.67 541.74 1715.94 542.13 1706.04 549.15"/><path class="cls-22" d="M1677.65,559.73a44.89,44.89,0,0,0,9.21,6.54S1685.73,563.51,1677.65,559.73Z"/><path class="cls-22" d="M1676.68,552.8s9,8.48,18.42,13.09C1695.1,565.89,1692.84,560.38,1676.68,552.8Z"/><path class="cls-22" d="M1688.34,555.3s7.39,6.93,15.07,10.7C1703.41,566,1701.56,561.49,1688.34,555.3Z"/><path class="cls-22" d="M1723.73,553.86s-8.47,8-17.29,12.28C1706.44,566.14,1708.57,561,1723.73,553.86Z"/><path class="cls-22" d="M1723.19,559.73a44.68,44.68,0,0,1-9.2,6.54S1715.11,563.51,1723.19,559.73Z"/><path class="cls-22" d="M1730,559.73a44.68,44.68,0,0,1-9.2,6.54S1722,563.51,1730,559.73Z"/><path class="cls-5" d="M328.47,460.5c9.56,7.25,25,.64,33.62-6.78a9.06,9.06,0,0,0,3-4.94c1.94-9.31-12.75-11.6-13.18-19.93-.19-3.65,2.56-6.68,4.59-9.71,4.62-6.95,5.93-15.72,4.95-24s-4.08-16.17-7.69-23.68c-3-6.15-8.24-13.11-14.9-11.63-4.28.95-7,5.21-8.27,9.41-1.72,5.78-1.47,12-.32,17.91.51,2.62,1.19,5.34.49,7.92-1.81,6.59-11.06,8.08-14.41,14s.66,13.44,4.43,19.29c3.23,5,5.21,8.11,3.09,12.38a9.4,9.4,0,0,1-2.34,2.94C319.51,445.46,315.7,450.81,328.47,460.5Z"/><path class="cls-8" d="M313.59,461.49c6.53,5,17.11.44,23-4.63a6.14,6.14,0,0,0,2.06-3.38c1.33-6.35-8.71-7.92-9-13.61-.13-2.49,1.75-4.56,3.13-6.64,3.16-4.74,4.06-10.74,3.39-16.4s-2.79-11.05-5.26-16.18c-2-4.2-5.63-8.95-10.18-7.94-2.93.64-4.8,3.55-5.65,6.42a26,26,0,0,0-.22,12.24c.35,1.79.82,3.65.34,5.41-1.24,4.5-7.56,5.52-9.85,9.59s.45,9.19,3,13.18c2.2,3.43,3.56,5.55,2.11,8.47a6.32,6.32,0,0,1-1.6,2C307.46,451.22,304.86,454.87,313.59,461.49Z"/><path class="cls-11" d="M274.58,452.29c5.41-37-7.5-59-22.84-61.7C236,387.79,225.34,382,220.57,357s-7.69-50.48-25.29-47.18-23.84,25.67-25.3,51.33-12.46,22.73-27.5,32.79c-11.74,7.86-3.34,43.27.9,58.38Z"/><path class="cls-12" d="M257.5,423.67c-7.15-5-21.63,5-33.18,3.71s-8.61-37.21-24.74-37.21-14.85,41.06-27.68,41.25-11.73-17.78-22.18-11.79c-8.62,4.94-3,25.57-.8,32.66H252.84C256.8,442.87,262.44,427.12,257.5,423.67Z"/><path class="cls-9" d="M196.64,328.31s6.4,73.48.82,124"/><line class="cls-10" x1="205.11" y1="333.2" x2="197.74" y2="343.55"/><line class="cls-10" x1="183.61" y1="339.57" x2="198.34" y2="353.75"/><line class="cls-10" x1="214.82" y1="358.33" x2="199.29" y2="375.65"/><line class="cls-10" x1="175.96" y1="366.99" x2="199.75" y2="390.3"/><line class="cls-10" x1="227.85" y1="378.65" x2="199.74" y2="405.78"/><line class="cls-10" x1="182.8" y1="408.52" x2="199.36" y2="424.81"/><line class="cls-10" x1="220.17" y1="412.86" x2="198.87" y2="435.39"/><path class="cls-9" d="M156.68,405.73s6.43,10.53,7.47,46.56"/><line class="cls-10" x1="172.25" y1="422.95" x2="163.19" y2="437.89"/><line class="cls-10" x1="144" y1="433.23" x2="163.46" y2="440.77"/><path class="cls-9" d="M248.52,413.82s-3.3,2.44-4.33,38.47"/><line class="cls-10" x1="236.11" y1="423" x2="245.14" y2="437.89"/><line class="cls-10" x1="258.57" y1="435.47" x2="244.87" y2="440.77"/><path class="cls-13" d="M154.36,452.15s7.32-96-9.42-98-13.8,40.18-30.45,39.82-25.78-14.3-31.86.69S76.39,424.21,62,419.7s-35.68,32.45-35.68,32.45Z"/><path class="cls-14" d="M62,419.7c14.4,4.51,14.55-10.08,20.64-25.08C87.78,381.94,95.09,390,107.3,393v59.2h-81S47.58,415.2,62,419.7Z"/><path class="cls-4" d="M307.92,1333.33c0,2.45-22.13,4.44-49.43,4.44s-49.43-2-49.43-4.44,22.13-4.44,49.43-4.44S307.92,1330.88,307.92,1333.33Z"/><path class="cls-7" d="M281,1257.9c-23,17.42-60.16,1.55-80.76-16.29a21.72,21.72,0,0,1-7.23-11.89c-4.69-22.35,30.62-27.85,31.66-47.88.45-8.77-6.16-16-11-23.34-11.11-16.68-14.26-37.77-11.9-57.67s9.81-38.86,18.49-56.93c7.11-14.77,19.8-31.48,35.8-27.92,10.29,2.28,16.88,12.51,19.87,22.61,4.12,13.88,3.53,28.8.76,43-1.22,6.3-2.86,12.84-1.16,19,4.34,15.84,26.56,19.42,34.62,33.74,8.21,14.56-1.58,32.3-10.65,46.36-7.75,12-12.51,19.48-7.43,29.76a22.72,22.72,0,0,0,5.63,7C302.6,1221.75,311.75,1234.61,281,1257.9Z"/><path class="cls-6" d="M250.85,1057.08c0,5-5,277.41-5,277.41l19.74,1.73Z"/><path class="cls-6" d="M251.71,1250.17l-40.42-42.87,43.93,39.26a2.52,2.52,0,0,1-3.36,3.76Z"/><path class="cls-6" d="M247.85,1126.64l-16.37-32.06,19.6,30.21a1.86,1.86,0,0,1-3.13,2A1,1,0,0,1,247.85,1126.64Z"/><path class="cls-6" d="M254.83,1193.87l39.1-59Z"/><path class="cls-6" d="M252.81,1192.54l41.12-57.67-37.08,60.34a2.42,2.42,0,1,1-4.13-2.54Z"/><path class="cls-16" d="M318.91,1302.92a12.92,12.92,0,0,0-15.36,9.86A12.9,12.9,0,0,0,318.91,1302.92Z"/><path class="cls-16" d="M301.42,1313a12.91,12.91,0,0,0-14.35-11.27A12.9,12.9,0,0,0,301.42,1313Z"/><path class="cls-16" d="M318.91,1287.17a12.91,12.91,0,0,0-15.36,9.86A12.91,12.91,0,0,0,318.91,1287.17Z"/><path class="cls-16" d="M302.28,1273.11a12.9,12.9,0,0,0,0,18.25A12.91,12.91,0,0,0,302.28,1273.11Z"/><path class="cls-16" d="M301.42,1297.29A12.9,12.9,0,0,0,287.07,1286,12.9,12.9,0,0,0,301.42,1297.29Z"/><rect class="cls-23" x="302.02" y="1283.3" width="0.47" height="45.52"/><polygon class="cls-24" points="302.25 1298.23 294.24 1291.51 294.55 1291.15 302.27 1297.63 311.88 1290.82 312.15 1291.2 302.25 1298.23"/><polygon class="cls-24" points="302.25 1314.28 294.24 1307.55 294.55 1307.19 302.27 1313.68 311.88 1306.86 312.15 1307.25 302.25 1314.28"/><path class="cls-22" d="M273.86,1324.85a44.57,44.57,0,0,0,9.21,6.54S281.93,1328.64,273.86,1324.85Z"/><path class="cls-22" d="M272.89,1317.93s9,8.48,18.42,13.09C291.31,1331,289.05,1325.5,272.89,1317.93Z"/><path class="cls-22" d="M284.55,1320.42s7.39,6.94,15.07,10.7C299.62,1331.12,297.77,1326.62,284.55,1320.42Z"/><path class="cls-22" d="M319.94,1319s-8.48,8-17.29,12.28C302.65,1331.26,304.77,1326.09,319.94,1319Z"/><path class="cls-22" d="M319.4,1324.85a44.89,44.89,0,0,1-9.21,6.54S311.32,1328.64,319.4,1324.85Z"/><path class="cls-22" d="M326.25,1324.85a44.68,44.68,0,0,1-9.2,6.54S318.18,1328.64,326.25,1324.85Z"/><path class="cls-26" d="M1003.92,35.93a7.7,7.7,0,1,0-7.69,7.75A7.72,7.72,0,0,0,1003.92,35.93Z"/><path class="cls-27" d="M661.8,213.8a7.69,7.69,0,1,0-7.69,7.74A7.72,7.72,0,0,0,661.8,213.8Z"/><ellipse class="cls-28" cx="393.53" cy="220.57" rx="7.69" ry="7.74"/><path class="cls-27" d="M514.05,24.42a7.7,7.7,0,1,0-7.7,7.74A7.72,7.72,0,0,0,514.05,24.42Z"/><ellipse class="cls-26" cx="1448.79" cy="372.1" rx="7.69" ry="7.74"/><ellipse class="cls-27" cx="1819.31" cy="262.41" rx="7.69" ry="7.74"/><ellipse class="cls-29" cx="470.46" cy="434.79" rx="3.04" ry="3.06"/><path class="cls-29" d="M1008.92,245.09a3,3,0,1,0-3,3.07A3,3,0,0,0,1008.92,245.09Z"/><path class="cls-26" d="M1501.36,270.15a3,3,0,1,0-3,3.07A3.06,3.06,0,0,0,1501.36,270.15Z"/><path class="cls-27" d="M1306.94,102.24a3,3,0,1,0-3,3.07A3,3,0,0,0,1306.94,102.24Z"/><ellipse class="cls-26" cx="402.03" cy="131.53" rx="3.04" ry="3.06"/><path class="cls-26" d="M158.92,246.38a3,3,0,1,0-3,3.07A3.06,3.06,0,0,0,158.92,246.38Z"/><path class="cls-26" d="M1145.53,181.5a3,3,0,1,0-3,3.07A3,3,0,0,0,1145.53,181.5Z"/><ellipse class="cls-29" cx="1538.06" cy="370.81" rx="3.04" ry="3.06"/><path class="cls-26" d="M1739.82,54.64a3,3,0,1,0-3,3.07A3,3,0,0,0,1739.82,54.64Z"/><ellipse class="cls-27" cx="1411.13" cy="168.21" rx="3.04" ry="3.06"/><path class="cls-27" d="M553.79,334.13a3,3,0,1,0-3,3.07A3,3,0,0,0,553.79,334.13Z"/><ellipse class="cls-29" cx="739.21" cy="202.51" rx="3.04" ry="3.06"/><ellipse class="cls-26" cx="899.46" cy="230.9" rx="3.04" ry="3.06"/><path class="cls-29" d="M791,129a3,3,0,1,0-3,3.06A3.06,3.06,0,0,0,791,129Z"/><path class="cls-26" d="M692.25,118.63a3,3,0,1,0-3,3.06A3.05,3.05,0,0,0,692.25,118.63Z"/><path class="cls-28" d="M906.36,81.2a3,3,0,1,0-3.05,3.07A3.06,3.06,0,0,0,906.36,81.2Z"/><path class="cls-28" d="M552.51,167.66a7.7,7.7,0,1,0-7.69,7.75A7.72,7.72,0,0,0,552.51,167.66Z"/><path class="cls-28" d="M1506.49,230.15a7.7,7.7,0,1,0-7.7,7.74A7.72,7.72,0,0,0,1506.49,230.15Z"/><ellipse class="cls-27" cx="1283.99" cy="168.6" rx="7.69" ry="7.74"/><path class="cls-28" d="M1175.71,310.16a7.69,7.69,0,1,0-7.69,7.74A7.71,7.71,0,0,0,1175.71,310.16Z"/><path class="cls-29" d="M1267.2,70a7.7,7.7,0,1,0-7.69,7.74A7.71,7.71,0,0,0,1267.2,70Z"/><path class="cls-29" d="M865.33,88.94a7.69,7.69,0,1,0-7.69,7.75A7.72,7.72,0,0,0,865.33,88.94Z"/><ellipse class="cls-27" cx="230.71" cy="310.91" rx="7.69" ry="7.74"/><ellipse class="cls-28" cx="1778.43" cy="87.57" rx="7.69" ry="7.74"/><path class="cls-26" d="M1543.82,113.38a3,3,0,1,0-3,3.07A3.06,3.06,0,0,0,1543.82,113.38Z"/><ellipse class="cls-27" cx="1615.61" cy="177.91" rx="7.69" ry="7.74"/><path class="cls-26" d="M375.05,37.93a7.69,7.69,0,1,0-7.69,7.75A7.72,7.72,0,0,0,375.05,37.93Z"/><path class="cls-29" d="M162.1,131a3,3,0,1,0-3,3.06A3.06,3.06,0,0,0,162.1,131Z"/><path class="cls-28" d="M277.49,83.2a3,3,0,1,0-3.05,3.07A3.06,3.06,0,0,0,277.49,83.2Z"/><path class="cls-29" d="M236.46,90.94a7.69,7.69,0,1,0-7.69,7.75A7.72,7.72,0,0,0,236.46,90.94Z"/><polygon class="cls-30" points="645.81 1080 689.71 1080 878.98 1080 935.43 1000.33 1022.83 876.99 1022.9 876.89 1199.34 627.9 1215.42 605.21 1220.42 598.15 1013.5 513.62 897.82 520.3 967.91 542.68 967.93 542.68 1001.38 553.35 1127.21 593.51 609.73 1080 614.84 1080 645.81 1080"/><polygon class="cls-31" points="937.81 517.4 1053.94 449.06 982.72 515.16 937.81 517.4"/><polygon class="cls-32" points="926.97 517.95 937.81 517.4 1053.94 449.06 926.97 517.95"/><polygon class="cls-33" points="645.81 1080 704.64 1063.82 935.43 1000.33 936.23 1000.11 1022.83 876.99 1022.9 876.89 1145.81 702.15 1044.4 695.64 1022.36 694.22 996.25 722.01 1019 723.16 1073.18 725.91 1013.61 729 992.02 730.12 614.84 1080 645.81 1080"/><polygon class="cls-33" points="1188.39 641.93 1163.36 677.89 1057.09 681.52 1091.95 650.2 1188.39 641.93"/><polygon class="cls-33" points="1215.9 605.22 1201.33 627.94 1095.87 625.76 1122.72 603.2 1215.9 605.22"/><polygon class="cls-33" points="1087.18 551.86 984.73 553.64 958.01 542.85 1066.19 540.95 1087.18 551.86"/><polygon class="cls-34" points="604.08 1080 1127.21 593.51 1127.21 603.3 1127.21 605.9 1108.64 626.02 1059.15 679.67 1059.14 679.68 1059.12 679.7 1059.07 679.75 1057.44 681.51 1044.4 695.64 1019 723.16 1013.61 729 704.64 1063.82 689.71 1080 645.81 1080 614.84 1080 609.73 1080 604.08 1080"/><path class="cls-16" d="M1147.21,835a9.63,9.63,0,0,0-11.48,7.37A9.66,9.66,0,0,0,1147.21,835Z"/><path class="cls-16" d="M1134.13,842.6a9.66,9.66,0,0,0-10.73-8.43A9.63,9.63,0,0,0,1134.13,842.6Z"/><path class="cls-16" d="M1147.21,823.26a9.63,9.63,0,0,0-11.48,7.37A9.65,9.65,0,0,0,1147.21,823.26Z"/><path class="cls-16" d="M1134.77,812.75a9.65,9.65,0,0,0,0,13.64A9.63,9.63,0,0,0,1134.77,812.75Z"/><path class="cls-16" d="M1134.13,830.82a9.64,9.64,0,0,0-10.73-8.42A9.63,9.63,0,0,0,1134.13,830.82Z"/><rect class="cls-23" x="1134.58" y="820.37" width="0.35" height="34.03"/><polygon class="cls-24" points="1134.75 831.53 1128.76 826.5 1128.99 826.23 1134.77 831.09 1141.95 825.99 1142.15 826.27 1134.75 831.53"/><polygon class="cls-24" points="1134.75 843.52 1128.76 838.5 1128.99 838.23 1134.77 843.08 1141.95 837.98 1142.15 838.27 1134.75 843.52"/><path class="cls-22" d="M1107.21,849.53a44.89,44.89,0,0,0,9.21,6.54S1115.29,853.31,1107.21,849.53Z"/><path class="cls-22" d="M1106.25,842.6s9,8.48,18.42,13.09C1124.67,855.69,1122.4,850.17,1106.25,842.6Z"/><path class="cls-22" d="M1117.9,845.09s7.39,6.94,15.07,10.7C1133,855.79,1131.12,851.28,1117.9,845.09Z"/><path class="cls-22" d="M1153.29,843.65s-8.48,8-17.29,12.29C1136,855.94,1138.13,850.76,1153.29,843.65Z"/><path class="cls-22" d="M1152.75,849.53a44.68,44.68,0,0,1-9.2,6.54S1144.68,853.31,1152.75,849.53Z"/><path class="cls-22" d="M1159.6,849.53a44.68,44.68,0,0,1-9.2,6.54S1151.53,853.31,1159.6,849.53Z"/><polygon class="cls-35" points="1205.87 830.5 1234 801.59 1199.99 792.93 1197.28 828.94 1205.87 830.5"/><path class="cls-35" d="M882.39,814.09l33.94-30.22,2-62.76s-45.31,25-46.1,28.13S882.39,814.09,882.39,814.09Z"/><path class="cls-35" d="M999.42,595l29.26,1.8v56l-29.26-1.81Z"/><path class="cls-35" d="M1057.93,602.11q14.63.87,29.26,1.7v56.05q-14.62-.83-29.26-1.71Z"/><path class="cls-35" d="M1116.44,617q14.63.75,29.26,1.4v56q-14.64-.66-29.26-1.41Z"/><path class="cls-35" d="M882.4,603.64q14.63.65,29.26,1.4v56.05q-14.62-.75-29.26-1.41Z"/><path class="cls-35" d="M940.91,595q14.63.83,29.26,1.71v56q-14.62-.87-29.26-1.7Z"/><path class="cls-35" d="M1014.05,595.94l14.63.9v56l-14.63-.9Z"/><path class="cls-35" d="M1233.46,687.45q-14.62.16-29.25.16c-2.64-40-88.06-75.51-190.16-82.33-104.74-7-190.16,23.71-190.16,65.26q-14.62-.37-29.25-.59c0-52,98.3-91.65,219.41-83.35,119.65,8.17,215.9,50.2,219.41,100.85Z"/><path class="cls-35" d="M1014.05,605.28V586.6c119.65,8.17,215.9,50.2,219.41,100.85q-14.62.16-29.25.16c-2.64-40-88.06-75.51-190.16-82.33Z"/><path class="cls-35" d="M1233.46,755.08q-14.62,23.32-29.25,46.49c-29.26-.76-58.51-2-87.77-3.51V770c0-36-45.93-67.78-102.39-71.35S911.66,722,911.66,758.11v28c-29.26-1.5-58.51-2.74-87.77-3.5Q809.27,758.71,794.64,735q14.63-27.45,29.25-54.71c41.25-30.75,120-42.14,190.16-37.6,70.79,4.57,149.2,24.35,190.16,56.54Q1218.84,727.22,1233.46,755.08Z"/><path class="cls-35" d="M1204.21,699.19q14.63,28,29.25,55.89-14.62,23.32-29.25,46.49c-29.26-.76-58.51-2-87.77-3.51V770c0-36-45.93-67.78-102.39-71.35v-56c70.79,4.57,149.2,24.35,190.16,56.54Z"/><path class="cls-35" d="M794.1,668q14.89,0,29.79.44V782.06q-14.89-.43-29.79-.45Z"/><path class="cls-35" d="M1204.21,683.61q14.89.43,29.79.46V801.59q-14.89,0-29.79-.46Z"/><path class="cls-36" d="M970.51,623.17l29.26,1.8v56l-29.26-1.81Z"/><path class="cls-37" d="M1029,630.24q14.63.87,29.26,1.7v56q-14.64-.82-29.26-1.71Z"/><path class="cls-37" d="M1087.53,645.11q14.63.75,29.26,1.4v56q-14.64-.66-29.26-1.41Z"/><path class="cls-36" d="M853.49,631.77q14.63.65,29.26,1.4v56.05q-14.62-.75-29.26-1.41Z"/><path class="cls-36" d="M912,623.17q14.63.83,29.26,1.7v56q-14.62-.87-29.26-1.71Z"/><path class="cls-37" d="M985.14,624.07l14.63.9v56l-14.63-.91Z"/><path class="cls-36" d="M1204.55,715.58q-14.62.17-29.25.16c-2.64-40-88.06-75.51-190.16-82.33C880.4,626.41,795,657.12,795,698.67q-14.62-.39-29.25-.59c0-52,98.3-91.65,219.41-83.35,119.65,8.17,215.9,50.2,219.41,100.85Z"/><path class="cls-37" d="M985.14,633.41V614.73c119.65,8.17,215.9,50.2,219.41,100.85q-14.62.17-29.25.16c-2.64-40-88.06-75.51-190.16-82.33Z"/><path class="cls-38" d="M1204.55,783.2q-14.62,23.34-29.25,46.49c-29.26-.75-58.51-2-87.77-3.5v-28c0-36-45.93-67.78-102.39-71.35s-102.39,23.32-102.39,59.42v28c-29.26-1.5-58.51-2.75-87.77-3.5q-14.62-23.93-29.25-47.67,14.63-27.45,29.25-54.71c41.25-30.75,119.95-42.14,190.16-37.61,70.79,4.58,149.2,24.35,190.16,56.55Q1189.93,755.34,1204.55,783.2Z"/><path class="cls-35" d="M1175.3,727.32q14.63,28,29.25,55.88-14.62,23.34-29.25,46.49c-29.26-.75-58.51-2-87.77-3.5v-28c0-36-45.93-67.78-102.39-71.35V670.77c70.79,4.58,149.2,24.35,190.16,56.55Z"/><path class="cls-39" d="M764.41,697.67q14.83,0,29.69.44V811q-14.85-.44-29.69-.45Z"/><path class="cls-38" d="M1175.3,713.3q15.29.44,30.57.45V830.5q-15.28,0-30.57-.46Z"/><path class="cls-40" d="M1169.34,826.08a44.68,44.68,0,0,0,9.2,6.54S1177.41,829.86,1169.34,826.08Z"/><path class="cls-40" d="M1168.37,819.15s9,8.48,18.42,13.08C1186.79,832.23,1184.52,826.72,1168.37,819.15Z"/><path class="cls-40" d="M1180,821.64s7.39,6.94,15.07,10.71C1195.09,832.35,1193.24,827.83,1180,821.64Z"/><path class="cls-40" d="M1215.41,820.2s-8.47,8-17.28,12.28C1198.13,832.48,1200.25,827.31,1215.41,820.2Z"/><path class="cls-40" d="M1214.87,826.08a44.68,44.68,0,0,1-9.2,6.54S1206.8,829.86,1214.87,826.08Z"/><path class="cls-40" d="M1221.73,826.08a44.89,44.89,0,0,1-9.21,6.54S1213.65,829.86,1221.73,826.08Z"/><path class="cls-40" d="M749.51,807a44.68,44.68,0,0,0,9.2,6.54S757.58,810.74,749.51,807Z"/><path class="cls-40" d="M748.54,800s9,8.48,18.42,13.09C767,813.12,764.7,807.61,748.54,800Z"/><path class="cls-40" d="M760.2,802.52s7.39,6.94,15.07,10.71C775.27,813.23,773.42,808.72,760.2,802.52Z"/><path class="cls-40" d="M795.59,801.08s-8.48,8-17.29,12.29C778.3,813.37,780.42,808.19,795.59,801.08Z"/><path class="cls-40" d="M795.05,807a44.89,44.89,0,0,1-9.21,6.54S787,810.74,795.05,807Z"/><path class="cls-40" d="M801.9,807a44.89,44.89,0,0,1-9.21,6.54S793.83,810.74,801.9,807Z"/><path class="cls-40" d="M839.86,810a44.68,44.68,0,0,0,9.2,6.54S847.93,813.8,839.86,810Z"/><path class="cls-40" d="M838.88,803.08s9,8.49,18.43,13.09C857.31,816.17,855,810.65,838.88,803.08Z"/><path class="cls-40" d="M850.54,805.57s7.39,6.94,15.07,10.71C865.61,816.28,863.76,811.77,850.54,805.57Z"/><path class="cls-40" d="M885.93,804.14s-8.48,8-17.29,12.28C868.64,816.42,870.77,811.24,885.93,804.14Z"/><path class="cls-40" d="M885.39,810a44.57,44.57,0,0,1-9.21,6.54S877.32,813.8,885.39,810Z"/><path class="cls-40" d="M892.24,810a44.68,44.68,0,0,1-9.2,6.54S884.17,813.8,892.24,810Z"/></g></g></svg>