<svg xmlns="http://www.w3.org/2000/svg" viewBox="0 0 1574 387.75"><defs><style>.cls-1{fill:#e94756;}.cls-2{fill:#fcc137;}.cls-3{fill:#8fcaa6;}.cls-4{fill:#fff;}</style></defs><title>game_over</title><g id="Calque_2" data-name="Calque 2"><g id="Calque_13" data-name="Calque 13"><rect class="cls-1" width="1574" height="362" rx="52.06"/><rect class="cls-2" x="627.43" y="327.75" width="293.09" height="60" rx="29.7"/><rect class="cls-3" x="627.43" y="322.93" width="293.09" height="60" rx="29.7"/><path class="cls-4" d="M711.84,355.12v9h-5V340.72h6.81c3.18,0,5.53.57,7,1.73a6.92,6.92,0,0,1,1.15,8.93,7.58,7.58,0,0,1-3.21,2.52q5.27,7.88,6.87,10.18h-5.5l-5.58-9Zm0-4h1.6a6,6,0,0,0,3.46-.79,2.78,2.78,0,0,0,1.12-2.46,2.56,2.56,0,0,0-1.14-2.36,6.92,6.92,0,0,0-3.54-.7h-1.5Z"/><path class="cls-4" d="M742,364.08H728.49V340.72H742v4.06h-8.51v5.13h7.91v4h-7.91v6H742Z"/><path class="cls-4" d="M760.61,357.59a6.05,6.05,0,0,1-2.28,5A9.92,9.92,0,0,1,752,364.4a14.85,14.85,0,0,1-6.62-1.41v-4.6a28.21,28.21,0,0,0,4,1.49,11.78,11.78,0,0,0,3,.43,4.21,4.21,0,0,0,2.5-.63,2.12,2.12,0,0,0,.87-1.85,2.08,2.08,0,0,0-.38-1.22,4.25,4.25,0,0,0-1.13-1,27.16,27.16,0,0,0-3-1.58,14.28,14.28,0,0,1-3.21-1.94,7.26,7.26,0,0,1-1.71-2.15,6.27,6.27,0,0,1-.64-2.88,6.06,6.06,0,0,1,2.1-4.88,8.75,8.75,0,0,1,5.81-1.77,13.6,13.6,0,0,1,3.48.43A24.88,24.88,0,0,1,760.5,342l-1.6,3.85a23.62,23.62,0,0,0-3.09-1.07,10.15,10.15,0,0,0-2.41-.31,3.16,3.16,0,0,0-2.15.66,2.15,2.15,0,0,0-.76,1.71,2,2,0,0,0,.31,1.14,3.19,3.19,0,0,0,1,.94,29.8,29.8,0,0,0,3.14,1.64,12.56,12.56,0,0,1,4.5,3.14A6.2,6.2,0,0,1,760.61,357.59Z"/><path class="cls-4" d="M773.86,364.08h-5V344.84h-6.34v-4.12H780.2v4.12h-6.34Z"/><path class="cls-4" d="M798.1,364.08l-1.69-5.56h-8.52l-1.7,5.56h-5.33l8.24-23.46h6.06l8.28,23.46Zm-2.88-9.72c-1.56-5-2.44-7.88-2.64-8.55s-.34-1.18-.43-1.56q-.52,2-3,10.11Z"/><path class="cls-4" d="M811.33,355.12v9h-5V340.72h6.81c3.17,0,5.52.57,7,1.73a6.89,6.89,0,0,1,1.15,8.93,7.46,7.46,0,0,1-3.21,2.52q5.28,7.88,6.87,10.18h-5.49l-5.58-9Zm0-4h1.6a6.05,6.05,0,0,0,3.47-.79,2.8,2.8,0,0,0,1.12-2.46,2.55,2.55,0,0,0-1.15-2.36,6.92,6.92,0,0,0-3.54-.7h-1.5Z"/><path class="cls-4" d="M837,364.08h-5V344.84H825.7v-4.12h17.64v4.12H837Z"/><path class="cls-4" d="M191.76,164.21H229q11.42.43,14,5.92,2.11,4,2.12,11.84v46.49q0,6.76-5.92,12.89-17.76,18.39-53.26,18.39-31.5,0-54.74-23.78t-23.25-57.38q0-33.6,23.67-56.11T187.32,100q24.93,0,47.13,16.49,5.7,4.23,5.7,9.4t-4.86,11.94q-8.23,11.21-15,11.21-4,0-12.89-5.82t-21.14-5.81q-16.06,0-28.53,11.31t-12.47,29.59a42.46,42.46,0,0,0,12.68,31.06q12.69,12.79,28.74,12.79a55,55,0,0,0,20.93-3.8v-23h-16.7q-6.56,0-9.3-1.69a7.9,7.9,0,0,1-3.59-5,36.56,36.56,0,0,1-.85-8.87,34,34,0,0,1,1-9,6.91,6.91,0,0,1,3.48-4.64A22.84,22.84,0,0,1,191.76,164.21Z"/><path class="cls-4" d="M361.89,113.7,419,231.63q3.58,7.19,3.59,10.78,0,7.6-12.26,13.74-7.18,3.59-11.3,3.59a11.29,11.29,0,0,1-6.77-1.9,12.58,12.58,0,0,1-3.8-4c-.78-1.4-1.87-3.52-3.28-6.34l-11-22.82H315.6l-11,22.82q-2.12,4.23-3.27,6.13a15.18,15.18,0,0,1-3.81,3.91,10.84,10.84,0,0,1-6.76,2q-4.12,0-11.31-3.59Q267.21,250,267.2,242.41q0-3.58,3.6-10.78l57.06-118.14a18.51,18.51,0,0,1,7.08-7.82,18.73,18.73,0,0,1,10-3Q356.4,102.71,361.89,113.7Zm-17.12,50.72-13.95,29h28.11Z"/><path class="cls-4" d="M609.37,108.63a16.71,16.71,0,0,1,2,5.71,64.32,64.32,0,0,1,.32,7.39V239q0,14.58-8,17.12a34.39,34.39,0,0,1-10.14,1.27,35.43,35.43,0,0,1-9.72-1.06,16.53,16.53,0,0,1-5.5-2.54,9.51,9.51,0,0,1-3-4.22,42.32,42.32,0,0,1-1.05-11v-70.8q-5.29,6.54-15.43,20.81T546,206.48l-3.81,5c-.7.92-2.43,2.18-5.18,3.8a17.71,17.71,0,0,1-17.54.21,19.49,19.49,0,0,1-5.6-4.33l-1.69-2.32q-4.23-5.28-16.69-22.51t-13.53-18.49V239a61.53,61.53,0,0,1-.32,7.29,15,15,0,0,1-2,5.39q-3.17,5.7-16.48,5.71-12.9,0-16.06-5.71a14.88,14.88,0,0,1-2-5.5,66.83,66.83,0,0,1-.32-7.6V121.31a61.53,61.53,0,0,1,.32-7.29,16.82,16.82,0,0,1,2-5.6q3.17-5.49,16.48-5.5a31.08,31.08,0,0,1,9.83,1.38c2.75.91,4.54,1.87,5.39,2.85l1.27,1.27,48,63q35.93-47.55,48-62.77,3.59-5.7,17-5.71T609.37,108.63Z"/><path class="cls-4" d="M676.58,220.22h65.09a61.53,61.53,0,0,1,7.29.32,17,17,0,0,1,5.6,2q5.72,3,5.71,16.49,0,14.79-7.82,17.33-3.6,1.26-11,1.27H657.77q-14.81,0-17.33-8-1.28-3.39-1.27-10.78V121.31q0-10.78,4-14.69t15.22-3.91h83.27A61.53,61.53,0,0,1,749,103a16.82,16.82,0,0,1,5.6,2q5.72,3,5.71,16.48,0,14.79-7.82,17.33-3.6,1.28-11,1.27H676.58v21.35h41.84a62,62,0,0,1,7.29.31,16.82,16.82,0,0,1,5.6,2q5.72,3,5.71,16.49,0,14.79-8,17.33-3.6,1.26-11,1.26H676.58Z"/><path class="cls-4" d="M921.31,100.81q31.28,0,54.31,22.61t23,56.12q0,33.5-22,57.06t-54.11,23.56q-32.12,0-54.63-23.24t-22.51-55.38a85.24,85.24,0,0,1,6.34-32.86A76.19,76.19,0,0,1,868.68,123,79.18,79.18,0,0,1,893,106.73,70.76,70.76,0,0,1,921.31,100.81Zm-38.47,79.68q0,18.81,12.15,30.54t27.16,11.72q15,0,27.05-11.41t12-30.64q0-19.23-12.15-30.86t-27.16-11.62q-15,0-27.05,11.73T882.84,180.49Z"/><path class="cls-4" d="M1155.9,105q12.46,6.13,12.47,13.52,0,3.39-3.17,10.15l-58.33,118.35a18.15,18.15,0,0,1-7.08,7.5,18.9,18.9,0,0,1-9.83,2.86h-2.11a19.22,19.22,0,0,1-10-2.86,18.08,18.08,0,0,1-7.08-7.5L1012.4,128.71q-3.18-6.77-3.17-10.15,0-7.4,12.47-13.52,7-3.6,10.67-3.6a14.44,14.44,0,0,1,5.6.85,9.78,9.78,0,0,1,3.59,3,40,40,0,0,1,3.49,5.6q1.59,3.06,8.14,17.54t14,30.75l14.16,30.75q6.66,14.48,7.5,16.17l42.27-92.57c1.13-2.67,2.12-4.79,3-6.34,2.54-3.8,5.63-5.71,9.3-5.71S1151.25,102.64,1155.9,105Z"/><path class="cls-4" d="M1228,220.22h65.1a61.53,61.53,0,0,1,7.29.32,17,17,0,0,1,5.6,2q5.7,3,5.71,16.49,0,14.79-7.82,17.33-3.6,1.26-11,1.27h-83.69q-14.81,0-17.33-8-1.27-3.39-1.27-10.78V121.31q0-10.78,4-14.69t15.22-3.91h83.27a61.53,61.53,0,0,1,7.29.32,16.82,16.82,0,0,1,5.6,2q5.7,3,5.71,16.48,0,14.79-7.82,17.33-3.6,1.28-11,1.27H1228v21.35h41.85a62,62,0,0,1,7.29.31,16.82,16.82,0,0,1,5.6,2q5.71,3,5.71,16.49,0,14.79-8,17.33-3.6,1.26-11,1.26H1228Z"/><path class="cls-4" d="M1454.52,231.42q3.18,7.61,3.17,11,0,8-13.1,13.53-6.77,3-10.88,2.95a10.93,10.93,0,0,1-6.77-2,15.23,15.23,0,0,1-3.91-4.12q-2.12-4-16.48-38.26l-6.55.43h-26.63v23.88a61.53,61.53,0,0,1-.32,7.29,16.82,16.82,0,0,1-2,5.6q-3,5.7-16.48,5.71-14.8,0-17.33-7.82-1.27-3.6-1.27-11V121.31a59.42,59.42,0,0,1,.32-7.29,16.77,16.77,0,0,1,2-5.6q3-5.72,16.49-5.71h45.65q18.6,0,36.14,13.53a49.72,49.72,0,0,1,14,17.75,55.91,55.91,0,0,1,5.49,24.94q0,23.88-15.85,39.31Q1444.8,209.45,1454.52,231.42Zm-81.15-53.89h27.05q6.12,0,12.26-4.65t6.13-13.95q0-9.3-6.13-14.05a20.5,20.5,0,0,0-12.68-4.76h-26.63Z"/></g></g></svg>