<svg xmlns="http://www.w3.org/2000/svg" viewBox="0 0 1574 387.75"><defs><style>.cls-1{fill:#8fcaa6;}.cls-2{fill:#fcc137;}.cls-3{fill:#e94756;}.cls-4,.cls-5{fill:#fff;}.cls-5{font-size:211.34px;font-family:FredokaOne-Regular, Fredoka One;letter-spacing:0.05em;}.cls-6{letter-spacing:0.01em;}</style></defs><title>game_over_2</title><g id="Calque_2" data-name="Calque 2"><g id="Calque_13" data-name="Calque 13"><rect class="cls-1" width="1574" height="362" rx="52.06"/><rect class="cls-2" x="627.43" y="327.75" width="293.09" height="60" rx="29.7"/><rect class="cls-3" x="627.43" y="322.93" width="293.09" height="60" rx="29.7"/><path class="cls-4" d="M711.84,355.12v9h-5V340.72h6.81c3.18,0,5.53.57,7,1.73a6.92,6.92,0,0,1,1.15,8.93,7.58,7.58,0,0,1-3.21,2.52q5.27,7.88,6.87,10.18h-5.5l-5.58-9Zm0-4h1.6a6,6,0,0,0,3.46-.79,2.78,2.78,0,0,0,1.12-2.46,2.56,2.56,0,0,0-1.14-2.36,6.92,6.92,0,0,0-3.54-.7h-1.5Z"/><path class="cls-4" d="M742,364.08H728.49V340.72H742v4.06h-8.51v5.13h7.91v4h-7.91v6H742Z"/><path class="cls-4" d="M760.61,357.59a6.05,6.05,0,0,1-2.28,5A9.92,9.92,0,0,1,752,364.4a14.85,14.85,0,0,1-6.62-1.41v-4.6a28.21,28.21,0,0,0,4,1.49,11.78,11.78,0,0,0,3,.43,4.21,4.21,0,0,0,2.5-.63,2.12,2.12,0,0,0,.87-1.85,2.08,2.08,0,0,0-.38-1.22,4.25,4.25,0,0,0-1.13-1,27.16,27.16,0,0,0-3-1.58,14.28,14.28,0,0,1-3.21-1.94,7.26,7.26,0,0,1-1.71-2.15,6.27,6.27,0,0,1-.64-2.88,6.06,6.06,0,0,1,2.1-4.88,8.75,8.75,0,0,1,5.81-1.77,13.6,13.6,0,0,1,3.48.43A24.88,24.88,0,0,1,760.5,342l-1.6,3.85a23.62,23.62,0,0,0-3.09-1.07,10.15,10.15,0,0,0-2.41-.31,3.16,3.16,0,0,0-2.15.66,2.15,2.15,0,0,0-.76,1.71,2,2,0,0,0,.31,1.14,3.19,3.19,0,0,0,1,.94,29.8,29.8,0,0,0,3.14,1.64,12.56,12.56,0,0,1,4.5,3.14A6.2,6.2,0,0,1,760.61,357.59Z"/><path class="cls-4" d="M773.86,364.08h-5V344.84h-6.34v-4.12H780.2v4.12h-6.34Z"/><path class="cls-4" d="M798.1,364.08l-1.69-5.56h-8.52l-1.7,5.56h-5.33l8.24-23.46h6.06l8.28,23.46Zm-2.88-9.72c-1.56-5-2.44-7.88-2.64-8.55s-.34-1.18-.43-1.56q-.52,2-3,10.11Z"/><path class="cls-4" d="M811.33,355.12v9h-5V340.72h6.81c3.17,0,5.52.57,7,1.73a6.89,6.89,0,0,1,1.15,8.93,7.46,7.46,0,0,1-3.21,2.52q5.28,7.88,6.87,10.18h-5.49l-5.58-9Zm0-4h1.6a6.05,6.05,0,0,0,3.47-.79,2.8,2.8,0,0,0,1.12-2.46,2.55,2.55,0,0,0-1.15-2.36,6.92,6.92,0,0,0-3.54-.7h-1.5Z"/><path class="cls-4" d="M837,364.08h-5V344.84H825.7v-4.12h17.64v4.12H837Z"/><text class="cls-5" transform="translate(102.57 257.63)">GAME <tspan class="cls-6" x="737.58" y="0">O</tspan><tspan x="903.49" y="0">VER</tspan></text></g></g></svg>