<svg xmlns="http://www.w3.org/2000/svg" viewBox="0 0 139.31 232.26"><defs><style>.cls-1{fill:#f2d334;}.cls-2{fill:#f5e280;}.cls-3{fill:#0068a6;}.cls-4{fill:#eec602;}.cls-5{fill:#a97d3f;}.cls-6{fill:#c7c4c3;}.cls-7{fill:#887d70;}.cls-8{fill:#9c9895;}.cls-9{fill:#25a8ca;}.cls-10{fill:#f4c3a8;}.cls-11{fill:#f9dbcc;}.cls-12{fill:#221a16;}.cls-13,.cls-16{fill:#fff;}.cls-14{fill:#f2a89a;}.cls-15{fill:#e94756;}.cls-16{font-size:44.49px;font-family:BrandonGrotesque-Bold, Brandon Grotesque;font-weight:700;}</style></defs><title>king_1</title><g id="Calque_2" data-name="Calque 2"><g id="Calque_15" data-name="Calque 15"><polygon class="cls-1" points="16.3 56.44 12.2 114.64 14.32 172.51 16.17 172.51 16.43 172.51 20.66 172.51 20.4 114.64 16.3 56.44"/><polygon class="cls-2" points="16.3 56.44 12.2 114.64 11.94 172.51 16.17 172.51 16.43 172.51 16.3 56.44"/><path class="cls-3" d="M125.79,161.81s6.34,2.28,7.14,4.95,3.17,18.23,3.46,26.16a114.14,114.14,0,0,1-.69,16s2.08,7.93-.3,8.53-9.76,2.08-10.75.59.65-7.83,0-13-2-15.06-3.07-20.61-2.48-10.9-2.48-10.9Z"/><path class="cls-4" d="M115.13,153.29s10.9.79,16.65,6.93,5.15,10.5,5.15,13.48a13.79,13.79,0,0,1-2,6.14l-16.25,4s-3.37-19.62-4.36-23a23.31,23.31,0,0,0-3-6.15Z"/><path class="cls-3" d="M120.68,162.7c-1.15-.66-2.08.07-2,1.29.09,1,1.41,2.41,2,3.32a15.38,15.38,0,0,1,2.71,6.66c.27,2.06.86,5.42,2.35,3.1s.39-5.7-.5-8C124.48,167,122.76,163.89,120.68,162.7Z"/><path class="cls-3" d="M127.82,160.85a1.25,1.25,0,0,0-2,1.29c.08,1.05,1.4,2.41,2,3.32a15.24,15.24,0,0,1,2.7,6.66c.27,2.06.86,5.43,2.35,3.1s.4-5.7-.49-8C131.62,165.18,129.9,162,127.82,160.85Z"/><path class="cls-5" d="M123.26,197.48s1.49,9.31,1.58,10.11,4.86,1.58,4.86,1.58l6-1a48.82,48.82,0,0,0,2.57-8.13c.6-3.36,1.09-10.5,1.09-10.5Z"/><path class="cls-5" d="M136.31,201.37a41.51,41.51,0,0,0-11.48,5.76c.07,4.65-1,9.57-.18,10.86,1,1.49,8.37,0,10.75-.59s.3-8.53.3-8.53S136.09,205.7,136.31,201.37Z"/><path class="cls-3" d="M60.44,170.92s-7,19.13-10.4,23.19-9.71,6.54-15,3.57-5.55-4-5.55-4l.3-12.68s5,2.87,8.91-.1,2.58-5.15,2.58-5.15Z"/><path class="cls-4" d="M58,153.29s-10.89.79-16.64,6.93-5.15,10.5-5.15,13.48a13.79,13.79,0,0,0,2,6.14l16.25,4s3.37-19.62,4.36-23a23.31,23.31,0,0,1,3-6.15Z"/><path class="cls-3" d="M52.43,162.7c1.14-.66,2.08.07,2,1.29-.09,1-1.41,2.41-2,3.32A15.38,15.38,0,0,0,49.67,174c-.27,2.06-.86,5.42-2.35,3.1s-.39-5.7.5-8C48.62,167,50.34,163.89,52.43,162.7Z"/><path class="cls-3" d="M45.29,160.85c1.15-.66,2.08.07,2,1.29-.09,1.05-1.4,2.41-2,3.32a15.24,15.24,0,0,0-2.7,6.66c-.27,2.06-.87,5.43-2.35,3.1s-.4-5.7.49-8C41.49,165.18,43.21,162,45.29,160.85Z"/><path class="cls-5" d="M34.13,180.38l1.6,21.72s-7.7-6.75-11.23-9.25c-3.37-2.37-5.48-3.69-5.48-3.69l1.7-13.53S26.29,178,29.66,179,34.13,180.38,34.13,180.38Z"/><path class="cls-6" d="M6.34,175H26.26a6.34,6.34,0,0,0,6.34-6.35H0A6.34,6.34,0,0,0,6.34,175Z"/><path class="cls-6" d="M15.83,199.66h.94a4.54,4.54,0,0,0,4.53-4.29l1.34-23.06H10l1.34,23.06A4.54,4.54,0,0,0,15.83,199.66Z"/><path class="cls-5" d="M16.82,174.81,17,188.3l-5,.38a3.41,3.41,0,0,1-3.66-3.45l.07-7.1a3,3,0,0,1,2.89-3Z"/><path class="cls-7" d="M51,227.8c3.17-1.19,6.44.53,8.62-.6,1.58-.81-.59-7.72-.89-12.88a48.88,48.88,0,0,1,.89-10.9l27.68.76,27.68-.76a49.24,49.24,0,0,1,.9,10.9c-.3,5.16-2.47,12.07-.9,12.88,2.18,1.13,5.45-.59,8.63.6a4.16,4.16,0,0,1,2.67,4.46H103.17s1-9-2.18-14.17c-1.82-2.94-8-3.64-12-3.77h0s-.6,0-1.57,0h-.35c-1,0-1.57,0-1.57,0h0c-4,.13-10.14.83-12,3.77-3.2,5.15-2.18,14.17-2.18,14.17H48.3A4.18,4.18,0,0,1,51,227.8Z"/><path class="cls-8" d="M115,220.86H102.24a22,22,0,0,1,.85,4h11.33C114.49,223.73,114.71,222.35,115,220.86Z"/><path class="cls-5" d="M123.59,227.8c-3.18-1.19-6.45.53-8.63-.6-.5-.25-.62-1.13-.54-2.37H103.09a35.6,35.6,0,0,1,.08,7.43h23.09A4.16,4.16,0,0,0,123.59,227.8Z"/><path class="cls-8" d="M59.61,220.86H72.32a21.11,21.11,0,0,0-.84,4H60.14A38.9,38.9,0,0,0,59.61,220.86Z"/><path class="cls-5" d="M51,227.8c3.17-1.19,6.44.53,8.62-.6.5-.25.62-1.13.54-2.37H71.48a35.22,35.22,0,0,0-.09,7.43H48.3A4.18,4.18,0,0,1,51,227.8Z"/><path class="cls-3" d="M120.24,199.59c-1.14-26.29-6.82-44.79-6.82-44.79L59,154.28a258.09,258.09,0,0,0-5.12,39c-.22,5.32-1,16.38,1.65,21.07,1.9,3.36,5.93,3.92,15.05,2.63,6.76-1,13-5.89,15.73-8.37l.2,0c2.79,2.5,10.07,7.41,16.78,8.36,9.12,1.29,13.34.67,15-2.81C120.62,209.1,120.43,204,120.24,199.59Z"/><path class="cls-9" d="M122.91,154.62a231.46,231.46,0,0,1-22,25.22C88,192.52,84.22,197.68,84.22,197.68l-16.45.39-1.59-.2S90,176.47,97.1,169.34a86.16,86.16,0,0,0,10.7-12.69S116.27,151.75,122.91,154.62Z"/><path class="cls-4" d="M86.07,156.26s6.08,13.15,16,12.81c11.5-.39,11.37-13.6,11.37-13.6Z"/><path class="cls-4" d="M86.25,156.26s-6.08,13.15-16,12.81c-11.49-.39-11.36-13.6-11.36-13.6Z"/><polygon class="cls-4" points="104.14 61.36 92.64 68.69 85.96 57.87 79.28 68.69 67.78 61.36 72.74 77.71 85.96 76.97 99.18 77.71 104.14 61.36"/><path class="cls-10" d="M123.9,118a13.22,13.22,0,0,1,8.35-1.25,6.39,6.39,0,0,1,5.08,4.17c1.78,5.75-1.82,9-6.91,9.84a20.27,20.27,0,0,1-6.86,0A64,64,0,0,1,123.9,118Z"/><path class="cls-10" d="M48,118a13.22,13.22,0,0,0-8.35-1.25,6.39,6.39,0,0,0-5.08,4.17c-1.78,5.75,1.82,9,6.9,9.84a20.32,20.32,0,0,0,6.87,0A64,64,0,0,0,48,118Z"/><path class="cls-11" d="M127,108.3c-1.18-10.31-6.34-16-14.07-21.4s-14.86-6.15-18-7.14c-2.32-.72-14.8-1-18,0s-10.31,1.79-18,7.14S46,98,44.84,108.3s-.85,35.31,4.36,44c3.25,5.42,24.31,6.09,37.34,6,12.56.12,32.88-.55,36.12-6C127.88,143.61,128.21,118.6,127,108.3Z"/><circle class="cls-12" cx="111.8" cy="121.68" r="5.75" transform="translate(-32.4 202.37) rotate(-76.65)"/><path class="cls-13" d="M115.4,120.5a1.9,1.9,0,1,1-1.9-1.9A1.9,1.9,0,0,1,115.4,120.5Z"/><circle class="cls-12" cx="61.86" cy="121.68" r="5.75" transform="translate(-69.17 159.92) rotate(-79.32)"/><path class="cls-13" d="M65.46,120.5a1.9,1.9,0,1,1-1.9-1.9A1.9,1.9,0,0,1,65.46,120.5Z"/><path class="cls-5" d="M72.43,113H55.58a3.28,3.28,0,0,1-3.27-3.27h0a3.27,3.27,0,0,1,3.27-3.27H72.43a3.27,3.27,0,0,1,3.27,3.27h0A3.28,3.28,0,0,1,72.43,113Z"/><path class="cls-5" d="M131.81,135.16c-.26,4.16-3.48,7.61-7.88,7.23-5-.43-7.76-6.17-11-9.38-6.68-6.67-15.1-11.8-24.38-8.46-.2.23-.33.4-.43.54a12,12,0,0,0-2,3.51,12.18,12.18,0,0,0-2-3.51c-.1-.14-.23-.31-.43-.54-9.28-3.34-17.7,1.79-24.39,8.46-3.2,3.21-6,9-11,9.38-4.4.38-7.62-3.07-7.88-7.23-4.16,5,0,11.19,5.09,14.47,5.75,3.68,13.37,3.39,19.77,1.61s18.14-8.38,20.79-16.33c2.64,8,14.38,14.54,20.78,16.33s14,2.07,19.78-1.61C131.85,146.35,136,140.2,131.81,135.16Z"/><path class="cls-5" d="M86.51,175.88c2.37-4.1,11.18-20.09,9-27.45-.43-1.41-7-1.28-9.31-1.19-2.26-.09-8.88-.22-9.31,1.19-2.22,7.36,6.58,23.35,9,27.45l.14,1,.22-.38.22.38Z"/><path class="cls-14" d="M99.52,124.62c-1.46-3.7-13.74-19-13.74-19h0s-12.29,15.33-13.74,19-1.35,5,3.3,5.81a77,77,0,0,0,9.22,1v0s.43,0,1.22,0,1.22,0,1.22,0v0a76.63,76.63,0,0,0,9.21-1C100.87,129.67,101,128.32,99.52,124.62Z"/><path class="cls-5" d="M116.42,113H99.58a3.27,3.27,0,0,1-3.27-3.27h0a3.26,3.26,0,0,1,3.27-3.27h16.84a3.26,3.26,0,0,1,3.27,3.27h0A3.27,3.27,0,0,1,116.42,113Z"/><path class="cls-5" d="M129.53,96.8c-.66-7.26-14.79-18.1-27.08-20.87-9.35-2.11-14.4-2.23-16.29-2.17s-7,.06-16.29,2.17C57.58,78.7,43.44,89.54,42.78,96.8s1.51,23.09,1.51,23.09,1.79-1,5.36-6.44c3.22-4.89,3.1-14.5,3.05-16.34a14.56,14.56,0,0,0,5.1.49,54.85,54.85,0,0,0,16.77-3.7c2.78-1.06,8.59-3.44,8.59-3.44s-5.68,3.31-.92,5.55,15.19-.53,20-2.24a50.09,50.09,0,0,0,7.86-3.72,23.12,23.12,0,0,1,9.58,6.75s-.53,11.23,3,16.65,5,6.34,5,6.34S130.2,104.07,129.53,96.8Z"/><rect class="cls-5" x="53.04" y="192.99" width="67.64" height="7.4"/><path class="cls-4" d="M93.89,186.12H78.24a2.42,2.42,0,0,0-2.42,2.41V204a2.43,2.43,0,0,0,2.42,2.42H93.89A2.43,2.43,0,0,0,96.31,204V188.53A2.42,2.42,0,0,0,93.89,186.12Zm-1,15.32a1.63,1.63,0,0,1-1.62,1.62H80.81a1.63,1.63,0,0,1-1.62-1.62V191.07a1.63,1.63,0,0,1,1.62-1.62H91.32a1.63,1.63,0,0,1,1.62,1.62Z"/><rect class="cls-4" x="77.22" y="195.1" width="8.06" height="2.64" rx="1.32"/><path class="cls-15" d="M115.43,29.23A29.25,29.25,0,0,1,92.86,57.7L86.19,72,79.52,57.7a29.24,29.24,0,1,1,35.91-28.47Z"/><text class="cls-16" transform="translate(74.39 44.6)">8</text></g></g></svg>