<svg xmlns="http://www.w3.org/2000/svg" viewBox="0 0 38.5 44.17"><defs><style>.cls-1{fill:#eec602;}.cls-2{fill:#f4c3a8;}.cls-3{fill:#f9dbcc;}.cls-4{fill:#221a16;}.cls-5{fill:#fff;}.cls-6{fill:#a97d3f;}.cls-7{fill:#f2a89a;}</style></defs><title>king_face</title><g id="Calque_2" data-name="Calque 2"><g id="Calque_15" data-name="Calque 15"><polygon class="cls-1" points="26.01 1.29 21.74 4.01 19.26 0 16.78 4.01 12.51 1.29 14.35 7.36 19.26 7.09 24.17 7.36 26.01 1.29"/><path class="cls-2" d="M33.34,22.3a5,5,0,0,1,3.1-.46,2.37,2.37,0,0,1,1.89,1.55c.66,2.13-.68,3.35-2.57,3.65a7.47,7.47,0,0,1-2.54,0A23.74,23.74,0,0,1,33.34,22.3Z"/><path class="cls-2" d="M5.16,22.3a5,5,0,0,0-3.1-.46A2.37,2.37,0,0,0,.17,23.39C-.49,25.52.85,26.74,2.74,27a7.47,7.47,0,0,0,2.54,0A23.74,23.74,0,0,0,5.16,22.3Z"/><path class="cls-3" d="M34.5,18.72c-.44-3.83-2.35-6-5.22-7.95a19,19,0,0,0-6.69-2.65,24.08,24.08,0,0,0-6.68,0,19,19,0,0,0-6.69,2.65c-2.87,2-4.78,4.12-5.22,8S3.68,31.83,5.62,35.05c1.2,2,9,2.26,13.85,2.21,4.67.05,12.21-.2,13.41-2.21C34.82,31.83,34.94,22.54,34.5,18.72Z"/><circle class="cls-4" cx="28.85" cy="23.68" r="2.13" transform="translate(-0.85 46.29) rotate(-76.65)"/><path class="cls-5" d="M30.19,23.25a.7.7,0,0,1-.71.7.7.7,0,0,1-.7-.7.7.7,0,0,1,.7-.71A.71.71,0,0,1,30.19,23.25Z"/><circle class="cls-4" cx="10.31" cy="23.68" r="2.13" transform="translate(-14.87 29.43) rotate(-79.32)"/><path class="cls-5" d="M11.65,23.25a.7.7,0,0,1-.71.7.7.7,0,0,1-.7-.7.7.7,0,0,1,.7-.71A.71.71,0,0,1,11.65,23.25Z"/><path class="cls-6" d="M14.24,20.47H8a1.22,1.22,0,0,1-1.21-1.22h0A1.21,1.21,0,0,1,8,18h6.26a1.21,1.21,0,0,1,1.21,1.21h0A1.22,1.22,0,0,1,14.24,20.47Z"/><path class="cls-6" d="M36.28,28.69a2.73,2.73,0,0,1-2.93,2.68c-1.85-.16-2.88-2.29-4.07-3.48-2.48-2.48-5.6-4.38-9-3.14l-.16.2a4.67,4.67,0,0,0-.74,1.3,4.44,4.44,0,0,0-.74-1.3,1.51,1.51,0,0,0-.16-.2c-3.44-1.24-6.57.66-9,3.14-1.19,1.19-2.21,3.32-4.07,3.48a2.72,2.72,0,0,1-2.92-2.68c-1.55,1.87,0,4.15,1.89,5.37,2.13,1.37,5,1.26,7.34.6s6.73-3.11,7.71-6.07c1,3,5.34,5.41,7.72,6.07s5.2.77,7.34-.6C36.29,32.84,37.82,30.56,36.28,28.69Z"/><path class="cls-6" d="M19.47,43.81c.87-1.53,4.14-7.46,3.32-10.19-.16-.53-2.62-.48-3.46-.45s-3.29-.08-3.45.45c-.83,2.73,2.44,8.66,3.32,10.19l.05.36.08-.14a1.1,1.1,0,0,0,.09.14Z"/><path class="cls-7" d="M24.29,24.78c-.54-1.38-5.1-7.07-5.1-7.07h0s-4.56,5.69-5.1,7.07-.5,1.87,1.22,2.15a27.91,27.91,0,0,0,3.43.37h0s.16,0,.45,0,.45,0,.45,0h0a27.91,27.91,0,0,0,3.43-.37C24.79,26.65,24.83,26.15,24.29,24.78Z"/><path class="cls-6" d="M30.57,20.47H24.31a1.22,1.22,0,0,1-1.21-1.22h0A1.21,1.21,0,0,1,24.31,18h6.26a1.21,1.21,0,0,1,1.21,1.21h0A1.22,1.22,0,0,1,30.57,20.47Z"/><path class="cls-6" d="M35.43,14.45c-.24-2.7-5.49-6.72-10-7.75a24.86,24.86,0,0,0-6.05-.8,24.8,24.8,0,0,0-6,.8c-4.57,1-9.81,5.05-10.06,7.75A56,56,0,0,0,3.79,23a8,8,0,0,0,2-2.39c1.2-1.81,1.15-5.38,1.13-6.06a5.71,5.71,0,0,0,1.89.18A20.46,20.46,0,0,0,15,13.37c1-.39,3.19-1.27,3.19-1.27s-2.11,1.22-.34,2.06,5.64-.2,7.4-.84A18.92,18.92,0,0,0,28.2,12a8.58,8.58,0,0,1,3.56,2.5s-.2,4.17,1.12,6.18A9.22,9.22,0,0,0,34.75,23S35.68,17.15,35.43,14.45Z"/></g></g></svg>