<svg xmlns="http://www.w3.org/2000/svg" viewBox="0 0 34.62 41.76"><defs><style>.cls-1{fill:#716e6c;}.cls-2{fill:#95908d;}.cls-3{fill:#b5b1af;}.cls-4{fill:#cdcbc9;}.cls-5{fill:#585452;}.cls-6{fill:#277fb4;}.cls-7{fill:#4d95c0;}</style></defs><title>knight_face</title><g id="Calque_2" data-name="Calque 2"><g id="Calque_15" data-name="Calque 15"><path class="cls-1" d="M14.44,8.91c.49-.54,5.52-.55,6,0s-.11,1.75-.11,1.75l-2.9,0-2.91,0S14,9.45,14.44,8.91Z"/><path class="cls-2" d="M7.76,12.28A20.17,20.17,0,0,1,17.31,10a20.17,20.17,0,0,1,9.55,2.3,12.2,12.2,0,0,1,6,7.83,14.65,14.65,0,0,0-5.5-2,53.92,53.92,0,0,0-9.83-.6h-.35a53.82,53.82,0,0,0-9.82.6,14.77,14.77,0,0,0-5.51,2A12.23,12.23,0,0,1,7.76,12.28Z"/><path class="cls-3" d="M.68,19.54s1.64-1.09,6.1-2.08a61,61,0,0,1,21.06,0c4.46,1,6.1,2.08,6.1,2.08a91.34,91.34,0,0,1,.67,10.65,30.38,30.38,0,0,1-.56,5.21A29,29,0,0,0,23.93,38a62.57,62.57,0,0,0-6.47,3.77s-3.41-1.74-7-3.57A31.17,31.17,0,0,0,.56,35.4,31,31,0,0,1,0,30.19,91.34,91.34,0,0,1,.68,19.54Z"/><path class="cls-3" d="M23.21,12.44c-.23.44.58,1.3,1.81,1.91s2.39.76,2.61.32-.58-1.3-1.81-1.92S23.43,12,23.21,12.44Z"/><path class="cls-4" d="M17.41,16.55a52.25,52.25,0,0,1,10.43.91c4.46,1,6.1,2.08,6.1,2.08a91.34,91.34,0,0,1,.67,10.65,30.38,30.38,0,0,1-.56,5.21A29,29,0,0,0,23.93,38a62.57,62.57,0,0,0-6.47,3.77l-.05,0Z"/><rect class="cls-5" x="5.58" y="22.34" width="24.78" height="3.31" rx="1.14" transform="translate(35.93 47.99) rotate(180)"/><polygon class="cls-6" points="15.14 11.74 19.85 11.74 20.46 0 14.54 0 15.14 11.74"/><path class="cls-7" d="M18.71,8c.17-1.59.33-6.4.47-8h.17c-.09,1.66-.2,6.54-.35,8.2-.11,1.13-.15,2.35-.29,3.54H18.3c0-.21.05-.41.08-.62Q18.56,9.56,18.71,8Z"/><path class="cls-7" d="M17.36,7.68c0-1.48,0-6.19.07-7.68h.24c0,1.43,0,6.06,0,7.49s.1,2.83.06,4.25h-.37C17.26,10.39,17.35,9,17.36,7.68Z"/><path class="cls-7" d="M15.68,0h.19c.15,1.36.29,5.92.4,7.28a41.55,41.55,0,0,1,.28,4.46h-.2c-.2-1.41-.23-2.85-.34-4.26S15.79,1.42,15.68,0Z"/></g></g></svg>