<svg xmlns="http://www.w3.org/2000/svg" viewBox="0 0 151.43 245.25"><defs><style>.cls-1{isolation:isolate;}.cls-17,.cls-2{fill:#95908d;}.cls-3{fill:#b5b1af;}.cls-4{fill:#887d70;}.cls-5{fill:#a26015;}.cls-6{fill:#e5b409;}.cls-7{fill:#0068a6;}.cls-8{fill:#716e6c;}.cls-9{fill:#d5b894;}.cls-10{fill:#edca4d;}.cls-11{fill:#cdcbc9;}.cls-12{fill:#585452;}.cls-13{fill:#277fb4;}.cls-14{fill:#4d95c0;}.cls-15{fill:#bab7b5;}.cls-16{fill:#eec602;}.cls-17{opacity:0.3;mix-blend-mode:screen;}.cls-18{fill:#e94756;}.cls-19{font-size:44.49px;fill:#fff;font-family:BrandonGrotesque-Bold, Brandon Grotesque;font-weight:700;}</style></defs><title>knight_1</title><g class="cls-1"><g id="Calque_2" data-name="Calque 2"><g id="Calque_15" data-name="Calque 15"><path class="cls-2" d="M61.15,183.2S54,202.55,50.62,206.66s-9.82,6.61-15.14,3.61-5.61-4-5.61-4l.3-12.83s5,2.9,9-.1,2.61-5.22,2.61-5.22Z"/><path class="cls-3" d="M39.89,192.77l.45-.42a35,35,0,0,1,7.07,6,34.56,34.56,0,0,1,4.78,5.84c-.24.42-.46.8-.68,1.15-1.85-2-3.34-4.47-5.22-6.5C44.28,196.69,42,194.84,39.89,192.77Z"/><path class="cls-3" d="M36.2,194.59l.59-.12a70.88,70.88,0,0,1,3.17,10c.54,2.23,1.21,4.67,1.59,7.1a12.64,12.64,0,0,1-1.51,0c-.36-2.3-.63-4.63-1.13-6.84C38.13,201.31,37.16,198,36.2,194.59Z"/><path class="cls-4" d="M51.41,240.74c3.21-1.2,6.52.53,8.72-.6,1.6-.82-.6-7.82-.9-13a49.65,49.65,0,0,1,.9-11l28,.77,28-.77a49.65,49.65,0,0,1,.9,11c-.3,5.21-2.49,12.21-.9,13,2.21,1.13,5.51-.6,8.72.6a4.22,4.22,0,0,1,2.71,4.51H104.21s1-9.12-2.2-14.33c-1.85-3-8.09-3.68-12.11-3.82h0s-.61,0-1.59,0H88c-1,0-1.59,0-1.59,0h0c-4,.14-10.26.84-12.1,3.82-3.25,5.21-2.21,14.33-2.21,14.33H48.7A4.22,4.22,0,0,1,51.41,240.74Z"/><path class="cls-3" d="M116.13,233.72H103.27a21.54,21.54,0,0,1,.85,4h11.47C115.66,236.62,115.88,235.23,116.13,233.72Z"/><path class="cls-5" d="M124.86,240.74c-3.21-1.2-6.51.53-8.72-.6-.51-.26-.63-1.15-.55-2.41H104.12a36.07,36.07,0,0,1,.09,7.52h23.36A4.22,4.22,0,0,0,124.86,240.74Z"/><path class="cls-3" d="M60.14,233.72H73a21.54,21.54,0,0,0-.85,4H60.68A40.23,40.23,0,0,0,60.14,233.72Z"/><path class="cls-5" d="M51.41,240.74c3.21-1.2,6.52.53,8.72-.6.51-.26.63-1.15.55-2.41H72.15a36.07,36.07,0,0,0-.09,7.52H48.7A4.22,4.22,0,0,1,51.41,240.74Z"/><path class="cls-6" d="M115.34,167.83s7,33.15,6.14,44.38c-.32,4.39-.4,8.82-.4,8.82l-66.7.26s-.53-10.42.14-15.77,8.56-36.75,8.56-36.75Z"/><polygon class="cls-7" points="107.78 167.83 108.11 231.6 67.36 231.6 67.95 168.95 107.78 167.83"/><rect class="cls-8" x="54.13" y="200.71" width="68.03" height="3.34" transform="translate(176.29 404.76) rotate(180)"/><path class="cls-2" d="M126.72,173.85s6.42,2.3,7.22,5,3.21,18.44,3.51,26.46a116,116,0,0,1-.7,16.14s2.1,8-.3,8.62-9.88,2.11-10.88.6.65-7.92.05-13.13-2-15.24-3.11-20.85-2.5-11-2.5-11Z"/><path class="cls-3" d="M122.31,195.68a112.07,112.07,0,0,1,14.31.1l.09.84a115.87,115.87,0,0,1-14.19.11v0C122.45,196.36,122.38,196,122.31,195.68Z"/><path class="cls-3" d="M137.39,204.09c0,.29,0,.58,0,.86a93.85,93.85,0,0,1-13.52,0c0-.27-.09-.54-.13-.81A93.66,93.66,0,0,1,137.39,204.09Z"/><path class="cls-3" d="M137,218.89c-.14,1.6-.26,2.57-.26,2.57s2.1,8-.3,8.62-9.88,2.11-10.88.6.57-7.62.08-12.76C129.44,217.52,133.23,218.25,137,218.89Z"/><path class="cls-3" d="M122.31,195.68a112.07,112.07,0,0,1,14.31.1l.09.84a115.87,115.87,0,0,1-14.19.11v0C122.45,196.36,122.38,196,122.31,195.68Z"/><path class="cls-3" d="M137.39,204.09c0,.29,0,.58,0,.86a93.85,93.85,0,0,1-13.52,0c0-.27-.09-.54-.13-.81A93.66,93.66,0,0,1,137.39,204.09Z"/><path class="cls-2" d="M125.65,217.92c3.79-.4,7.58.33,11.36,1-.14,1.6-.26,2.57-.26,2.57s.2.77.41,1.84a57.16,57.16,0,0,0-11.61.92A35.78,35.78,0,0,0,125.65,217.92Z"/><polygon class="cls-3" points="138.63 211.17 137.13 221.79 125.2 222.4 124 210.17 138.63 211.17"/><path class="cls-8" d="M101.85,167.16A26.94,26.94,0,0,0,111.67,183c8.93,6.82,24.46,9,24.46,9s3.91-5.21,0-13.63c-4.15-8.95-18.24-10.42-22.25-10.82S101.85,167.16,101.85,167.16Z"/><path class="cls-9" d="M124.69,173.3c-.4.79,1,2.31,3.2,3.4s4.24,1.35,4.64.56-1-2.3-3.21-3.39S125.08,172.52,124.69,173.3Z"/><path class="cls-8" d="M74.18,167.16A26.92,26.92,0,0,1,64.35,183c-8.92,6.82-24.45,9-24.45,9s-3.91-5.21,0-13.63c4.15-8.95,18.24-10.42,22.25-10.82S74.18,167.16,74.18,167.16Z"/><path class="cls-5" d="M34.53,192.77,32.77,211s-4.44-3.65-8-6.17a28.49,28.49,0,0,0-5.51-3.2L21,188s5.63,2.36,9.05,3.44S34.53,192.77,34.53,192.77Z"/><polygon class="cls-6" points="16.49 87.79 7.57 123.95 10.74 183.62 16.49 183.88 22.5 156.62 16.49 87.79"/><polygon class="cls-10" points="16.49 87.78 25.41 123.93 22.24 183.6 16.49 183.87 16.49 87.78"/><path class="cls-2" d="M6.42,187.31H26.56A6.41,6.41,0,0,0,33,180.9H0A6.41,6.41,0,0,0,6.42,187.31Z"/><path class="cls-2" d="M16,212.27H17a4.59,4.59,0,0,0,4.59-4.33l1.35-23.33H10.07l1.36,23.33A4.59,4.59,0,0,0,16,212.27Z"/><path class="cls-5" d="M17,187.13l.16,13.65-5,.38a3.45,3.45,0,0,1-3.71-3.49l.08-7.17a3.1,3.1,0,0,1,2.92-3.07Z"/><path class="cls-8" d="M80.29,91c1.33-1.47,14.86-1.49,16.25,0s-.3,4.71-.3,4.71l-7.83-.09-7.83.09S79,92.47,80.29,91Z"/><path class="cls-2" d="M62.28,100.07A54.23,54.23,0,0,1,88,93.9a54.24,54.24,0,0,1,25.74,6.17c13.36,7.08,16,21.12,16,21.12S125.51,118,115,115.84c-9.08-1.84-22.8-1.7-26.46-1.63v0h-.93v0c-3.66-.07-17.38-.21-26.46,1.63-10.56,2.14-14.84,5.35-14.84,5.35S48.92,107.15,62.28,100.07Z"/><path class="cls-3" d="M43.2,119.65s4.43-3,16.44-5.61c14.78-3.28,42-3.28,56.75,0,12,2.66,16.43,5.61,16.43,5.61s2,16.15,1.81,28.68a84.24,84.24,0,0,1-1.5,14s-14.94.74-27.27,7A171.42,171.42,0,0,0,88.41,179.5s-9.19-4.7-18.94-9.62c-12.33-6.21-26.57-7.5-26.57-7.5a84.24,84.24,0,0,1-1.5-14C41.2,135.8,43.2,119.65,43.2,119.65Z"/><path class="cls-3" d="M103.9,100.5c-.6,1.19,1.58,3.5,4.87,5.17s6.45,2,7,.85-1.58-3.5-4.87-5.16S104.5,99.31,103.9,100.5Z"/><path class="cls-11" d="M88.29,111.58c10.4,0,20.77.83,28.1,2.46,12,2.66,16.43,5.61,16.43,5.61s2,16.15,1.81,28.68a84.24,84.24,0,0,1-1.5,14s-14.94.74-27.27,7A171.42,171.42,0,0,0,88.41,179.5l-.12-.06Z"/><rect class="cls-12" x="56.41" y="127.17" width="66.75" height="8.92" rx="3.06" transform="translate(179.56 263.27) rotate(180)"/><polygon class="cls-13" points="82.17 98.62 94.87 98.62 96.49 67 80.55 67 82.17 98.62"/><path class="cls-14" d="M91.79,88.56c.45-4.3.87-17.25,1.25-21.56h.47c-.24,4.48-.54,17.61-1,22.08-.28,3-.41,6.33-.77,9.54H90.67c.08-.55.15-1.11.22-1.65C91.21,94.17,91.51,91.36,91.79,88.56Z"/><path class="cls-14" d="M88.14,87.7c0-4,0-16.69.21-20.7H89c0,3.84-.12,16.34-.13,20.18s.27,7.63.18,11.44h-1C87.89,95,88.12,91.25,88.14,87.7Z"/><path class="cls-14" d="M83.61,67h.52c.42,3.65.79,16,1.1,19.62.32,3.95.81,8,.74,12h-.54c-.53-3.78-.61-7.67-.9-11.46S83.92,70.84,83.61,67Z"/><path class="cls-15" d="M82.74,177.48c0-3.54,1.88-6.33,5.43-6.33l28.3-.08h.66l28.3.08c3.55,0,5.44,2.79,5.44,6.33,0,0,1.46,21.35-.31,30.34-1.5,7.63-3.53,13.48-13.89,23.64a72.21,72.21,0,0,1-18.21,13.23,3.8,3.8,0,0,1-3.31,0,73.86,73.86,0,0,1-18.21-13.23c-10.36-10.16-12.39-16-13.89-23.64C81.28,198.83,82.74,177.48,82.74,177.48Z"/><path class="cls-16" d="M116.81,239.76a68.53,68.53,0,0,0,16.26-12c9.59-9.39,11.15-14.4,12.44-20.95,1.34-6.82.62-23.24.22-29,0-.12,0-.24,0-.36a3,3,0,0,0-.2-1.18h-.09l-28.31-.09h-.63l-28.3.09h-.1a2.77,2.77,0,0,0-.2,1.18c0,.12,0,.24,0,.36-.39,5.75-1.11,22.17.23,29,1.29,6.55,2.85,11.56,12.44,20.95A67.84,67.84,0,0,0,116.81,239.76Z"/><path class="cls-7" d="M117.24,176.21l28.19.09h.09a3,3,0,0,1,.2,1.18c0,.12,0,.24,0,.36.4,5.75,1.12,22.17-.22,29-1.29,6.55-2.85,11.56-12.44,20.95a69.51,69.51,0,0,1-15.83,11.77Z"/><path class="cls-17" d="M117.24,171.07l28.19.08c3.55,0,5.44,2.79,5.44,6.33,0,0,1.46,21.35-.31,30.34-1.5,7.63-3.53,13.48-13.89,23.64a72.21,72.21,0,0,1-18.21,13.23,3.71,3.71,0,0,1-1.22.35Z"/><path class="cls-18" d="M118.74,29.23A29.24,29.24,0,0,1,96.17,57.7L89.5,72,82.83,57.7a29.24,29.24,0,1,1,35.91-28.47Z"/><text class="cls-19" transform="translate(78.71 44.6)">2</text></g></g></g></svg>