<svg xmlns="http://www.w3.org/2000/svg" viewBox="0 0 45.59 30.63"><defs><style>.cls-1{fill:#a26015;}.cls-2{fill:#b8d49c;}.cls-3{fill:#cbdfb6;}.cls-4{fill:#221a16;}.cls-5{fill:#fff;}.cls-6{fill:#89b758;}</style></defs><title>ogre_face</title><g id="Calque_2" data-name="Calque 2"><g id="Calque_15" data-name="Calque 15"><path class="cls-1" d="M37.55,11.43s3.22-.42,4.76.21a5.52,5.52,0,0,1,2.31,1.75L42,13.32a7.06,7.06,0,0,1,2.66,3,12.84,12.84,0,0,1,1,3.36l-2,.07a14.2,14.2,0,0,1,.42,3.56,17.65,17.65,0,0,1-.21,2.38A9.74,9.74,0,0,0,39,24.3a25.22,25.22,0,0,0-3.15,0Z"/><path class="cls-2" d="M37.92,15.5a5.26,5.26,0,0,1,3.33-.5,2.56,2.56,0,0,1,2,1.66c.71,2.3-.73,3.61-2.75,3.93a8.13,8.13,0,0,1-2.74,0A25.77,25.77,0,0,1,37.92,15.5Z"/><path class="cls-1" d="M8,11.43s-3.22-.42-4.75.21A5.52,5.52,0,0,0,1,13.39l2.66-.07a7.06,7.06,0,0,0-2.66,3,12.66,12.66,0,0,0-1,3.36l2,.07a14.2,14.2,0,0,0-.42,3.56,17.65,17.65,0,0,0,.21,2.38,9.72,9.72,0,0,1,4.82-1.4,25.22,25.22,0,0,1,3.15,0Z"/><path class="cls-2" d="M7.67,15.5A5.23,5.23,0,0,0,4.34,15a2.56,2.56,0,0,0-2,1.66C1.6,19,3,20.27,5.07,20.59a8.13,8.13,0,0,0,2.74,0A25.8,25.8,0,0,0,7.67,15.5Z"/><path class="cls-3" d="M39.21,11.64c-.47-4.11-2.53-6.4-5.61-8.54A20.06,20.06,0,0,0,26.4.26a24.93,24.93,0,0,0-7.17,0A20.1,20.1,0,0,0,12,3.1C9,5.24,6.9,7.53,6.43,11.64S6.09,24.78,8.16,28.25c1.3,2.16,9.7,2.43,14.9,2.38,5,.05,13.12-.22,14.41-2.38C39.55,24.78,39.69,15.76,39.21,11.64Z"/><circle class="cls-4" cx="32.95" cy="17.3" r="2.29" transform="translate(9.37 46.09) rotate(-78.36)"/><circle class="cls-5" cx="33.63" cy="16.83" r="0.76"/><circle class="cls-4" cx="13.34" cy="17.3" r="2.29" transform="translate(-6.57 26.29) rotate(-76.65)"/><circle class="cls-5" cx="14.02" cy="16.83" r="0.76"/><path class="cls-6" d="M28.08,19.26c-.58-1.47-5.48-7.59-5.48-7.59h0s-4.91,6.12-5.49,7.59-.54,2,1.32,2.32a31,31,0,0,0,3.68.39v0h1v0a30.77,30.77,0,0,0,3.68-.39C28.62,21.28,28.66,20.74,28.08,19.26Z"/><path class="cls-1" d="M34.56,14.47H11.07a1.59,1.59,0,0,1-1.58-1.59h0a1.58,1.58,0,0,1,1.58-1.58H34.56a1.59,1.59,0,0,1,1.59,1.58h0A1.59,1.59,0,0,1,34.56,14.47Z"/></g></g></svg>