<svg xmlns="http://www.w3.org/2000/svg" viewBox="0 0 175.58 245.25"><defs><style>.cls-1{fill:#e94756;}.cls-2{font-size:44.49px;font-family:BrandonGrotesque-Bold, Brandon Grotesque;font-weight:700;}.cls-11,.cls-2{fill:#fff;}.cls-3{fill:#b4d092;}.cls-4{fill:#a26015;}.cls-5{fill:#a97d3f;}.cls-6{fill:#bed7a3;}.cls-7{fill:#887d70;}.cls-8{fill:#b8d49c;}.cls-9{fill:#cbdfb6;}.cls-10{fill:#221a16;}.cls-12{fill:#89b758;}.cls-13{fill:#eec602;}.cls-14{fill:#cca87b;}.cls-15{fill:#b7915c;}</style></defs><title>ogre</title><g id="Calque_2" data-name="Calque 2"><g id="Calque_15" data-name="Calque 15"><path class="cls-1" d="M143.29,29.23A29.24,29.24,0,0,1,120.72,57.7L114.06,72l-6.67-14.3a29.23,29.23,0,1,1,35.9-28.47Z"/><text class="cls-2" transform="translate(103.26 44.6)">5</text><path class="cls-3" d="M137.34,161.54s19.12-8.38,29,13.75c3.19,7.16,3.31,18.57,1.69,28.07-1.43,8.4-3.31,15.9-3.31,15.9s2.24,8.52-.32,9.16-10.49,2.24-11.55.64.69-8.41,0-13.95-2.13-16.19-3.3-22.15-6.84-15.48-6.84-15.48Z"/><path class="cls-4" d="M166.44,211.55a61.84,61.84,0,0,0-7.56-.59,46.23,46.23,0,0,0-6.71.53l.42,8,13.42-.26Z"/><path class="cls-5" d="M74.53,240.46c3.41-1.28,6.92.57,9.26-.64,1.17-.6.9-4.4-.28-8.35a60.66,60.66,0,0,0-5-10.4c-3.24-5.8-5.6-10.15-4.31-21.2,6.44.89,13,2.24,19.76,1a278.26,278.26,0,0,1,58.81-1.35c1.36,11.27-1,15.64-4.28,21.49a61.47,61.47,0,0,0-4.95,10.41c-1.18,3.95-1.45,7.74-.28,8.34,2.34,1.21,5.85-.63,9.26.64a4.49,4.49,0,0,1,2.88,4.8H130.63s1.1-9.7-2.34-15.23c-2-3.16-8.59-3.91-12.86-4.06h0s-.59,0-1.56,0v0h-.51c-1,0-1.69,0-1.69,0h0c-4.27.14-10.9.89-12.86,4.05-3.44,5.54-2.34,15.23-2.34,15.23H71.65A4.48,4.48,0,0,1,74.53,240.46Z"/><path class="cls-3" d="M89.77,161.63s-7.77-3.37-17.8,2c-8.48,4.52-10.14,12.79-16.58,17.14a61.38,61.38,0,0,1-12,6.53l3.83,12.64a64.61,64.61,0,0,1,18.7-6.36c8.1-1.5,21.48-5.27,21.48-5.27Z"/><path class="cls-4" d="M54.27,180.92l-9.37,4.8s2.23,4.79,3.51,8.09A40.86,40.86,0,0,1,50.12,199l9.26-3.73a65.28,65.28,0,0,0-2.23-8.09A38.47,38.47,0,0,0,54.27,180.92Z"/><path class="cls-6" d="M94,200.91c-6.8,1.2-13.32-.15-19.76-1,.28-2.41.73-5.14,1.39-8.29a78.05,78.05,0,0,1,14.13-30.23l23-1.58v-.13l.91.06.69,0v.1l23,1.59a78,78,0,0,1,14.13,30.23c.63,3,1.07,5.65,1.36,8A278.26,278.26,0,0,0,94,200.91Z"/><path class="cls-7" d="M143.29,233H129.63a23.42,23.42,0,0,1,.9,4.26h12.18C142.79,236.08,143,234.6,143.29,233Z"/><path class="cls-4" d="M152.57,240.46c-3.41-1.28-6.93.57-9.27-.64-.54-.28-.67-1.22-.59-2.56H130.53a37.76,37.76,0,0,1,.1,8h24.81A4.48,4.48,0,0,0,152.57,240.46Z"/><path class="cls-7" d="M83.8,233H97.47a23.45,23.45,0,0,0-.91,4.26H84.38C84.31,236.08,84.07,234.6,83.8,233Z"/><path class="cls-4" d="M74.53,240.46c3.41-1.28,6.92.57,9.26-.64.54-.28.67-1.22.59-2.56H96.56a38.13,38.13,0,0,0-.09,8H71.65A4.48,4.48,0,0,1,74.53,240.46Z"/><path class="cls-7" d="M154.43,206.73H72.26s.2-3.66.46-6.95a54.77,54.77,0,0,1,.85-5.76H153a56.66,56.66,0,0,1,1.47,6A27,27,0,0,1,154.43,206.73Z"/><path class="cls-4" d="M153.92,116.14s8.66-1.13,12.81.56a15,15,0,0,1,6.22,4.71l-7.16-.18a19,19,0,0,1,7.16,8.1,33.83,33.83,0,0,1,2.63,9l-5.27.19a38.39,38.39,0,0,1,1.13,9.6,47.32,47.32,0,0,1-.57,6.41,26.18,26.18,0,0,0-13-3.77c-7.73-.19-8.48,0-8.48,0Z"/><path class="cls-8" d="M154.92,127.09a14.17,14.17,0,0,1,9-1.34,6.86,6.86,0,0,1,5.46,4.48c1.92,6.18-2,9.7-7.42,10.58a22,22,0,0,1-7.38,0A68.4,68.4,0,0,1,154.92,127.09Z"/><path class="cls-4" d="M74.42,116.14s-8.67-1.13-12.81.56a14.89,14.89,0,0,0-6.22,4.71l7.16-.18a19,19,0,0,0-7.16,8.1,34.14,34.14,0,0,0-2.64,9l5.28.19a38.39,38.39,0,0,0-1.13,9.6,48.92,48.92,0,0,0,.56,6.41,26.24,26.24,0,0,1,13-3.77c7.73-.19,8.48,0,8.48,0Z"/><path class="cls-8" d="M73.42,127.09a14.17,14.17,0,0,0-9-1.34A6.86,6.86,0,0,0,59,130.23c-1.92,6.18,2,9.7,7.42,10.58a22,22,0,0,0,7.38,0A69.15,69.15,0,0,0,73.42,127.09Z"/><path class="cls-9" d="M158.39,116.7c-1.28-11.07-6.81-17.25-15.12-23s-16-6.6-19.38-7.67c-2.5-.78-15.91-1.06-19.32,0S93.49,88,85.19,93.7s-13.85,11.93-15.13,23-.91,35.4,4.69,44.73c3.49,5.82,26.13,6.54,40.13,6.41,13.5.13,35.33-.59,38.83-6.41C159.31,152.1,159.67,127.78,158.39,116.7Z"/><circle class="cls-10" cx="141.53" cy="131.93" r="6.18" transform="translate(-16.24 243.95) rotate(-78.36)"/><circle class="cls-11" cx="143.36" cy="130.67" r="2.04"/><circle class="cls-10" cx="88.7" cy="131.93" r="6.18" transform="translate(-60.15 187.78) rotate(-76.65)"/><circle class="cls-11" cx="90.53" cy="130.67" r="2.04"/><path class="cls-12" d="M128.4,137.22c-1.56-4-14.77-20.44-14.77-20.44h0s-13.21,16.47-14.77,20.44-1.45,5.44,3.55,6.25a83.4,83.4,0,0,0,9.9,1.06v0s.46,0,1.31,0,1.31,0,1.31,0v0a83.73,83.73,0,0,0,9.91-1.06C129.85,142.66,130,141.2,128.4,137.22Z"/><path class="cls-4" d="M145.87,124.32H82.59A4.28,4.28,0,0,1,78.31,120h0a4.28,4.28,0,0,1,4.28-4.27h63.28a4.27,4.27,0,0,1,4.27,4.27h0A4.27,4.27,0,0,1,145.87,124.32Z"/><path class="cls-13" d="M100.17,190.05v20.87a3.26,3.26,0,0,0,3.26,3.25h21.14a3.26,3.26,0,0,0,3.26-3.25V190.05a3.27,3.27,0,0,0-3.26-3.26H103.43A3.27,3.27,0,0,0,100.17,190.05Zm4.55,3.43a2.19,2.19,0,0,1,2.18-2.19h14.19a2.2,2.2,0,0,1,2.19,2.19v14a2.2,2.2,0,0,1-2.19,2.19H106.9a2.19,2.19,0,0,1-2.18-2.19Z"/><path class="cls-13" d="M116.85,202.49h7.31a1.79,1.79,0,0,0,1.79-1.78h0a1.79,1.79,0,0,0-1.79-1.79h-7.31a1.79,1.79,0,0,0-1.78,1.79h0A1.78,1.78,0,0,0,116.85,202.49Z"/><path class="cls-14" d="M19.22,100.5s16.2-7.53,21.86,4.15,7.15,36.17,7.53,50.11-4.14,23-4.14,23,7,24.3,7.72,31.08.56,10.17-4.26,10.6c-6.14.55-7.61-12.67-12.51-25.86s-14.69-34.28-19.59-40.31S-.37,137.8,0,120.47,19.22,100.5,19.22,100.5Z"/><path class="cls-15" d="M40.45,176.22c1.37,3.7,2.07,7.64,3.16,11.43,1,3.58,2.26,7.08,3.49,10.59,2.21,6.3,4.29,13.42,1.95,20a.23.23,0,0,1-.44-.12c1.72-7.81-.79-14.76-3.47-22-2.31-6.27-4.83-13.08-5.37-19.78C39.74,175.9,40.32,175.88,40.45,176.22Z"/><path class="cls-15" d="M13.08,150.09a56.48,56.48,0,0,1,10,8.25,49,49,0,0,1,10.42,15.42,125.23,125.23,0,0,1,5.7,17.55c1.92,7.09,4,14.18,5.57,21.34a.15.15,0,0,1-.28.08c-4-12.3-6.37-25.22-11.37-37.17a50,50,0,0,0-10.17-15.75,60.75,60.75,0,0,0-6.41-5.69c-.23-.31-.46-.61-.67-.87C15.05,152.29,14.11,151.24,13.08,150.09Z"/><path class="cls-15" d="M20.28,108.33c-3.34-.45-6.35-.44-9.3,1.48a12.66,12.66,0,0,0-5.42,9.24c-1,7.63,3.32,14.41,8.11,19.92,4.35,5,9.21,9.5,13,15a67.93,67.93,0,0,1,8.82,18.39c.07.23-.28.32-.36.1-3.21-8.26-7.3-16.15-13.19-22.83-5.21-5.91-11.52-11.08-15.16-18.22-2.88-5.65-3.91-12.78-.53-18.48,2.62-4.41,9.28-8.17,14.2-5.21C20.71,107.86,20.63,108.37,20.28,108.33Z"/><path class="cls-15" d="M40.72,171.53c2.27-7.08,4-13.77,4.07-21.28s-1.11-15.07-2.4-22.51c-1.12-6.37-1.76-13.85-6.34-18.83S25.53,103,19.22,103.56c-.17,0-.18-.22,0-.27,5.17-2,11.65-.07,15.83,3.26,5.49,4.36,6.79,11.17,8,17.71,1.5,8.07,2.93,16.22,3,24.45.11,7.64-.65,16.41-4.59,23.13A.41.41,0,0,1,40.72,171.53Z"/><path class="cls-15" d="M21.68,139.41C16.22,134,10,127.16,11.48,118.86c1.1-6.36,6.71-10,13-9.23,9.56,1.12,13.56,9.43,13.8,18.16.08,2.94-.06,5.9.22,8.83a84.68,84.68,0,0,0,2.1,10.08c1.32,5.93.72,11.87-.69,17.73,0,.15-.29.12-.27,0,.6-5.18,1.53-10.19.6-15.41-.74-4.17-2.32-8.12-2.74-12.36-.92-9.1,1.12-20.51-9.37-24.81-7.32-3-15.37.83-15.55,9.17s7.15,14.65,12.63,20.09c3,3,6,6.23,7.95,10.09,2.07,4.16,2.5,8.88,4.45,13.1a.49.49,0,0,1-.84.49c-2.8-3.92-2.7-9.12-4.89-13.36C29.41,146.69,25.4,143.06,21.68,139.41Z"/><path class="cls-15" d="M31.45,144.81a90.38,90.38,0,0,0-9.19-10.36c-2.62-2.49-4.81-5.1-5.66-8.7-1.24-5.24.93-13.36,7.69-12.79,8.13.69,8.65,10.48,9,16.6.25,4.85,1.74,9.15,3.16,13.74,1.11,3.61,2.28,7.65,1,11.36a.34.34,0,0,1-.67-.09,36.4,36.4,0,0,0-1.31-10c-.92-3.09-2.11-6.09-2.82-9.24-1.37-6.15.76-15.61-5.3-19.66-3.85-2.58-8-.6-9.24,3.61a12.84,12.84,0,0,0,1.43,10c1.76,3,4.81,5.25,7.07,7.91a41.78,41.78,0,0,1,5.1,7.47C31.79,144.77,31.57,145,31.45,144.81Z"/><path class="cls-15" d="M21.92,119.35a.22.22,0,0,1,.12-.42,6.41,6.41,0,0,1,4.8,3.92,13.55,13.55,0,0,1,1.05,7.32c-1,4.36-5.64-1.1-5.55-3.56a.4.4,0,0,1,.74-.2c.63,1,1,2.45,2,3.2a.81.81,0,0,0,.87.36c.54.3.76.19.66-.32a6.25,6.25,0,0,0-.05-2.2C26.3,124.14,25.38,120.62,21.92,119.35Z"/><path class="cls-9" d="M39.25,188.91l5.31,13.42-4.84,2.25a3.68,3.68,0,0,1-5-2.06l-2.64-7.11a3.25,3.25,0,0,1,1.76-4.12Z"/></g></g></svg>