<svg xmlns="http://www.w3.org/2000/svg" viewBox="0 0 1969.9 384.92"><defs><style>.cls-1{fill:#1f807d;}.cls-1,.cls-10,.cls-11,.cls-12,.cls-13,.cls-14,.cls-15,.cls-16,.cls-17,.cls-18,.cls-21,.cls-22,.cls-3,.cls-4,.cls-5,.cls-6,.cls-8,.cls-9{fill-rule:evenodd;}.cls-2,.cls-20,.cls-21,.cls-3{fill:#7ecbe4;stroke:#496741;}.cls-11,.cls-17,.cls-2,.cls-20,.cls-21,.cls-3{stroke-miterlimit:22.93;}.cls-2,.cls-3{stroke-width:1.08px;}.cls-4{fill:#496741;}.cls-5{fill:#25908b;}.cls-15,.cls-18,.cls-19,.cls-6,.cls-7{fill:none;stroke-miterlimit:10;}.cls-18,.cls-19,.cls-6,.cls-7{stroke:#95ceb9;}.cls-15,.cls-6,.cls-7{stroke-width:2.15px;}.cls-8{fill:#39b4b1;}.cls-11,.cls-17,.cls-9{fill:#010101;}.cls-9{opacity:0.2;}.cls-10{fill:#259e9e;}.cls-11,.cls-17{stroke:#7ebe78;opacity:0.11;}.cls-11{stroke-width:0.47px;}.cls-12{fill:#f0865b;}.cls-13{fill:#9c5060;}.cls-14{fill:#f3af47;}.cls-15{stroke:#9c5060;}.cls-16{fill:#74a46e;}.cls-17{stroke-width:0.48px;}.cls-18,.cls-19{stroke-width:2.21px;}.cls-20,.cls-21{stroke-width:1.1px;}.cls-22{fill:#0e6e6c;}</style></defs><title>plant_decor</title><g id="Calque_2" data-name="Calque 2"><g id="Calque_15" data-name="Calque 15"><path class="cls-1" d="M1962.57,277.69a12.89,12.89,0,0,0-15.36,9.86A12.91,12.91,0,0,0,1962.57,277.69Z"/><path class="cls-1" d="M1945.07,287.81a12.9,12.9,0,0,0-14.35-11.27A12.9,12.9,0,0,0,1945.07,287.81Z"/><path class="cls-1" d="M1962.57,261.94a12.9,12.9,0,0,0-15.36,9.85A12.9,12.9,0,0,0,1962.57,261.94Z"/><path class="cls-1" d="M1945.93,247.88a12.91,12.91,0,0,0,0,18.25A12.91,12.91,0,0,0,1945.93,247.88Z"/><path class="cls-1" d="M1945.07,272.06a12.91,12.91,0,0,0-14.35-11.28A12.91,12.91,0,0,0,1945.07,272.06Z"/><rect class="cls-2" x="1945.67" y="258.07" width="0.47" height="45.52"/><polygon class="cls-3" points="1945.9 273 1937.89 266.28 1938.2 265.92 1945.92 272.4 1955.53 265.59 1955.8 265.97 1945.9 273"/><polygon class="cls-3" points="1945.9 289.05 1937.89 282.32 1938.2 281.96 1945.92 288.45 1955.53 281.63 1955.8 282.02 1945.9 289.05"/><path class="cls-4" d="M1917.52,299.62a44.68,44.68,0,0,0,9.2,6.54S1925.59,303.41,1917.52,299.62Z"/><path class="cls-4" d="M1916.54,292.69s9,8.49,18.42,13.09C1935,305.78,1932.7,300.27,1916.54,292.69Z"/><path class="cls-4" d="M1928.2,295.19s7.39,6.94,15.07,10.7C1943.27,305.89,1941.42,301.38,1928.2,295.19Z"/><path class="cls-4" d="M1963.59,293.75s-8.48,8-17.28,12.28C1946.31,306,1948.43,300.86,1963.59,293.75Z"/><path class="cls-4" d="M1963.05,299.62a44.89,44.89,0,0,1-9.21,6.54S1955,303.41,1963.05,299.62Z"/><path class="cls-4" d="M1969.9,299.62a44.68,44.68,0,0,1-9.2,6.54S1961.83,303.41,1969.9,299.62Z"/><path class="cls-5" d="M1861.1,266.08H1256.42c1.73-57.38,40.56-47.9,66.55-47.37s13.7-45.41,28.66-69.8,45.46,10.58,69.78,0,30-81.75,53.34-82.34,26.76,70.49,44.88,69.62c15-.73,20.54-28,39.13-25.65,18.59-2.37,24.13,24.92,39.13,25.65,18.12.87,21.57-70.21,44.87-69.62s29,71.75,53.35,82.34,54.82-24.39,69.77,0,2.68,70.34,28.67,69.8S1859.37,208.7,1861.1,266.08Z"/><path class="cls-6" d="M1475.33,93.7s8.91,102.24,1.15,172.51"/><line class="cls-7" x1="1551.12" y1="140.49" x2="1559.09" y2="148.26"/><line class="cls-7" x1="1545.3" y1="169.45" x2="1559.09" y2="179.9"/><line class="cls-7" x1="1541.2" y1="195.38" x2="1559.09" y2="209.46"/><line class="cls-7" x1="1487.12" y1="100.5" x2="1476.87" y2="114.9"/><line class="cls-7" x1="1457.2" y1="109.37" x2="1477.7" y2="129.09"/><line class="cls-7" x1="1500.64" y1="135.47" x2="1479.02" y2="159.57"/><line class="cls-7" x1="1446.56" y1="147.52" x2="1479.65" y2="179.96"/><line class="cls-7" x1="1518.76" y1="163.74" x2="1479.64" y2="201.49"/><line class="cls-7" x1="1435.91" y1="188.37" x2="1479.12" y2="227.98"/><line class="cls-7" x1="1524.8" y1="210.49" x2="1478.43" y2="242.7"/><path class="cls-6" d="M1370.44,163.74s17,52.34,18.41,102.47"/><line class="cls-7" x1="1382.52" y1="168.2" x2="1376.31" y2="184.64"/><line class="cls-7" x1="1402.65" y1="176.48" x2="1383.35" y2="216.92"/><line class="cls-7" x1="1408.12" y1="212.21" x2="1387.52" y2="246.17"/><line class="cls-7" x1="1362.67" y1="183.52" x2="1377.94" y2="191.21"/><line class="cls-7" x1="1354.33" y1="208.18" x2="1384.44" y2="223.21"/><line class="cls-7" x1="1360.82" y1="239.7" x2="1387.9" y2="250.19"/><path class="cls-6" d="M1642.18,93.7s-8.92,102.24-1.15,172.51"/><path class="cls-6" d="M1559.1,127.29s-6.84,68.65.93,138.92"/><line class="cls-7" x1="1566.39" y1="140.49" x2="1558.42" y2="148.26"/><line class="cls-7" x1="1572.21" y1="169.45" x2="1558.42" y2="179.9"/><line class="cls-7" x1="1576.31" y1="195.38" x2="1558.42" y2="209.46"/><line class="cls-7" x1="1630.39" y1="100.5" x2="1640.64" y2="114.9"/><line class="cls-7" x1="1660.31" y1="109.37" x2="1639.81" y2="129.09"/><line class="cls-7" x1="1616.87" y1="135.47" x2="1638.49" y2="159.57"/><line class="cls-7" x1="1670.95" y1="147.52" x2="1637.85" y2="179.96"/><line class="cls-7" x1="1598.75" y1="163.74" x2="1637.87" y2="201.49"/><line class="cls-7" x1="1681.59" y1="188.37" x2="1638.38" y2="227.98"/><line class="cls-7" x1="1592.71" y1="210.49" x2="1639.08" y2="242.7"/><path class="cls-6" d="M1747.07,163.74s-17,52.34-18.41,102.47"/><line class="cls-7" x1="1734.99" y1="168.2" x2="1741.2" y2="184.64"/><line class="cls-7" x1="1714.86" y1="176.48" x2="1734.16" y2="216.92"/><line class="cls-7" x1="1709.39" y1="212.21" x2="1729.99" y2="246.17"/><line class="cls-7" x1="1754.84" y1="183.52" x2="1739.57" y2="191.21"/><line class="cls-7" x1="1763.18" y1="208.18" x2="1733.07" y2="223.21"/><line class="cls-7" x1="1756.69" y1="239.7" x2="1729.61" y2="250.19"/><path class="cls-8" d="M1390.67,266.07c5.42-37-7.49-59-22.83-61.7-15.77-2.79-26.4-8.57-31.17-33.61s-7.7-50.48-25.3-47.18-23.83,25.66-25.29,51.32-12.47,22.74-27.5,32.8c-11.75,7.86-3.35,43.27.89,58.37Z"/><path class="cls-9" d="M1373.6,237.46c-7.15-5-21.63,5-33.18,3.71S1331.8,204,1315.67,204,1300.82,245,1288,245.2s-11.74-17.78-22.19-11.78c-8.61,4.94-3,25.57-.8,32.65h103.92C1372.9,256.65,1378.53,240.91,1373.6,237.46Z"/><path class="cls-6" d="M1312.73,142.1s6.41,73.48.83,124"/><line class="cls-7" x1="1321.21" y1="146.98" x2="1313.84" y2="157.34"/><line class="cls-7" x1="1299.71" y1="153.36" x2="1314.44" y2="167.53"/><line class="cls-7" x1="1330.92" y1="172.12" x2="1315.38" y2="189.44"/><line class="cls-7" x1="1292.05" y1="180.78" x2="1315.84" y2="204.09"/><line class="cls-7" x1="1343.94" y1="192.43" x2="1315.83" y2="219.56"/><line class="cls-7" x1="1298.9" y1="222.31" x2="1315.46" y2="238.6"/><line class="cls-7" x1="1336.27" y1="226.64" x2="1314.96" y2="249.18"/><path class="cls-6" d="M1272.78,219.51s6.43,10.54,7.46,46.56"/><line class="cls-7" x1="1288.34" y1="236.74" x2="1279.29" y2="251.67"/><line class="cls-7" x1="1260.1" y1="247.02" x2="1279.56" y2="254.56"/><path class="cls-6" d="M1364.62,227.61s-3.3,2.44-4.34,38.46"/><line class="cls-7" x1="1352.21" y1="236.78" x2="1361.24" y2="251.67"/><line class="cls-7" x1="1374.67" y1="249.25" x2="1360.97" y2="254.56"/><path class="cls-10" d="M1270.45,265.94s7.33-96-9.42-98.05-13.79,40.19-30.45,39.83-25.77-14.31-31.85.69-6.24,29.58-20.65,25.08-35.68,32.45-35.68,32.45Z"/><path class="cls-11" d="M1178.08,233.49c14.41,4.5,14.55-10.08,20.65-25.08,5.14-12.69,12.46-4.67,24.67-1.67v59.2h-81S1163.67,229,1178.08,233.49Z"/><path class="cls-5" d="M509.18,115.29a18.9,18.9,0,0,0-9.89,3.5,12.88,12.88,0,0,1,7.89-3.49A19.1,19.1,0,0,1,509.18,115.29Z"/><path class="cls-5" d="M712.25,227.62v38.46H306.1V227.62c29.26-36.39,80.78-37.48,119.93-33.13,43.29,4.81,50.15-59.75,73.26-75.7a15.71,15.71,0,0,1,19.78,0c23.11,16,30,80.5,73.25,75.69C631.47,190.14,683,191.23,712.25,227.62Z"/><path class="cls-5" d="M519.07,118.8a18.83,18.83,0,0,0-9.89-3.51,18.91,18.91,0,0,1,2,0A12.87,12.87,0,0,1,519.07,118.8Z"/><path class="cls-8" d="M571.41,265.94s-10.12-132.58,13-135.43,19.05,55.51,42.06,55,35.6-19.76,44,.95,8.62,40.87,28.52,34.65,49.28,44.82,49.28,44.82Z"/><path class="cls-11" d="M699,221.12c-19.9,6.22-20.11-13.93-28.52-34.65-7.11-17.52-17.21-6.44-34.08-2.31v81.78H748.28S718.89,214.9,699,221.12Z"/><path class="cls-6" d="M653.19,214.94s-6.11-1.43-7.61,51"/><line class="cls-7" x1="633.83" y1="223.32" x2="646.97" y2="244.98"/><line class="cls-7" x1="667.89" y1="240.92" x2="646.57" y2="249.18"/><path class="cls-6" d="M592.8,165.57s-5.28,39.65,1.45,100.5"/><line class="cls-7" x1="604.19" y1="178.92" x2="591.5" y2="191.37"/><line class="cls-7" x1="583.72" y1="202.51" x2="591.51" y2="210.02"/><line class="cls-7" x1="615.92" y1="207.18" x2="591.95" y2="232.96"/><line class="cls-7" x1="576.4" y1="234.48" x2="592.56" y2="245.71"/><path class="cls-12" d="M1499.34,214.8c-20.36,15.44-53.32,1.37-71.57-14.43a19.23,19.23,0,0,1-6.41-10.53c-4.15-19.81,27.14-24.69,28.05-42.44.4-7.76-5.45-14.21-9.77-20.68-9.84-14.78-12.63-33.46-10.55-51.1s8.7-34.44,16.4-50.44c6.29-13.1,17.53-27.9,31.72-24.75,9.11,2,15,11.08,17.61,20,3.64,12.3,3.11,25.52.67,38.12-1.09,5.58-2.54,11.38-1,16.86,3.84,14,23.53,17.21,30.68,29.9,7.27,12.91-1.41,28.63-9.44,41.08-6.87,10.66-11.09,17.27-6.58,26.37a20,20,0,0,0,5,6.24C1518.44,182.77,1526.54,194.16,1499.34,214.8Z"/><path class="cls-13" d="M1472.58,36.85c0,4.4-4.47,245.82-4.47,245.82l17.49,1.54Z"/><path class="cls-13" d="M1473.34,208l-35.82-38,38.93,34.79a2.23,2.23,0,1,1-3,3.33Z"/><path class="cls-13" d="M1469.92,98.5l-14.5-28.42,17.36,26.77a1.65,1.65,0,0,1-2.78,1.79A.64.64,0,0,1,1469.92,98.5Z"/><path class="cls-13" d="M1476.11,158.07l34.65-52.29Z"/><path class="cls-13" d="M1474.32,156.88l36.44-51.1-32.86,53.47a2.15,2.15,0,0,1-3.67-2.25Z"/><path class="cls-14" d="M1446.9,226.69c-15.6,11.83-40.86,1.05-54.85-11.06a14.88,14.88,0,0,1-4.91-8.07c-3.18-15.18,20.8-18.92,21.5-32.52.3-5.95-4.18-10.89-7.48-15.85-7.55-11.33-9.69-25.65-8.09-39.16s6.66-26.39,12.56-38.66c4.82-10,13.44-21.38,24.31-19,7,1.55,11.46,8.5,13.49,15.36,2.8,9.43,2.4,19.56.52,29.22-.83,4.27-1.94,8.71-.8,12.92,2.95,10.76,18,13.19,23.52,22.91,5.57,9.89-1.08,21.94-7.23,31.48-5.27,8.17-8.5,13.23-5,20.21a15.23,15.23,0,0,0,3.81,4.78C1461.53,202.14,1467.75,210.87,1446.9,226.69Z"/><path class="cls-13" d="M1424.64,86.88c0,3.63-5,176.6-5,176.6l14.39,1.26Z"/><path class="cls-13" d="M1428.6,191.27,1458.06,160l-32,28.62a1.83,1.83,0,1,0,2.44,2.74Z"/><path class="cls-13" d="M1422.45,137.6l-11.93-23.38,14.28,22a1.36,1.36,0,1,1-2.28,1.48A.75.75,0,0,0,1422.45,137.6Z"/><path class="cls-13" d="M1427.54,186.61l28.51-43Z"/><path class="cls-10" d="M961.84,266.07c4.41-30.17-6.1-48.07-18.61-50.29-12.85-2.27-21.52-7-25.4-27.39s-6.28-41.15-20.62-38.46-19.43,20.92-20.62,41.83-10.16,18.53-22.41,26.73c-9.58,6.41-2.73,35.27.72,47.58Z"/><path class="cls-9" d="M947.92,242.75c-5.82-4.07-17.62,4.07-27,3s-7-30.33-20.17-30.33-12.1,33.46-22.56,33.61-9.56-14.49-18.08-9.61c-7,4-2.46,20.85-.65,26.62h84.7C947.35,258.4,952,245.56,947.92,242.75Z"/><path class="cls-6" d="M898.31,165s5.22,59.89.68,101"/><line class="cls-7" x1="905.22" y1="169.01" x2="899.22" y2="177.45"/><line class="cls-7" x1="887.7" y1="174.2" x2="899.71" y2="185.76"/><line class="cls-7" x1="913.14" y1="189.49" x2="900.48" y2="203.61"/><line class="cls-7" x1="881.46" y1="196.55" x2="900.85" y2="215.55"/><line class="cls-7" x1="923.75" y1="206.05" x2="900.84" y2="228.16"/><line class="cls-7" x1="887.03" y1="230.4" x2="900.54" y2="243.68"/><line class="cls-7" x1="917.5" y1="233.94" x2="900.13" y2="252.3"/><path class="cls-6" d="M865.75,228.12s5.24,8.59,6.08,37.95"/><line class="cls-7" x1="878.44" y1="242.16" x2="871.05" y2="254.34"/><line class="cls-7" x1="855.41" y1="250.54" x2="871.27" y2="256.69"/><path class="cls-6" d="M940.61,234.72s-2.7,2-3.54,31.35"/><line class="cls-7" x1="930.49" y1="242.2" x2="937.85" y2="254.34"/><line class="cls-7" x1="948.8" y1="252.36" x2="937.63" y2="256.69"/><path class="cls-8" d="M877,266.07c3.05-20.87-4.23-33.27-12.89-34.8-8.89-1.58-14.89-4.84-17.58-19s-4.34-28.48-14.27-26.62S818.85,200.17,818,214.64s-7,12.83-15.51,18.5c-6.63,4.44-1.88,24.41.5,32.93Z"/><path class="cls-9" d="M867.94,249.93c-4-2.81-12.21,2.82-18.72,2.1s-4.86-21-14-21-8.38,23.16-15.61,23.26-6.62-10-12.52-6.65c-4.86,2.79-1.7,14.43-.45,18.42H865.3C867.54,260.76,870.72,251.88,867.94,249.93Z"/><path class="cls-14" d="M964.33,271.29c-9.56,7.25-25,.64-33.61-6.78a9.09,9.09,0,0,1-3-4.95c-2-9.3,12.75-11.59,13.18-19.93.18-3.64-2.57-6.67-4.59-9.71-4.63-6.94-5.94-15.72-5-24s4.08-16.17,7.7-23.69c3-6.15,8.24-13.1,14.9-11.62,4.28.95,7,5.21,8.27,9.41,1.71,5.78,1.46,12,.32,17.9-.51,2.62-1.2,5.35-.49,7.92,1.8,6.59,11.05,8.09,14.41,14s-.66,13.45-4.43,19.3c-3.23,5-5.21,8.11-3.1,12.38a9.5,9.5,0,0,0,2.34,2.93C973.3,256.25,977.11,261.59,964.33,271.29Z"/><path class="cls-5" d="M979.22,272.28c-6.53,5-17.11.44-23-4.63a6.19,6.19,0,0,1-2-3.38c-1.34-6.36,8.7-7.92,9-13.62.13-2.49-1.75-4.56-3.14-6.63-3.15-4.75-4-10.74-3.38-16.4s2.79-11.05,5.26-16.19c2-4.2,5.63-9,10.17-7.94,2.93.65,4.8,3.56,5.66,6.43a25.84,25.84,0,0,1,.21,12.24c-.35,1.79-.81,3.65-.33,5.41,1.23,4.5,7.56,5.52,9.84,9.59s-.45,9.19-3,13.18c-2.21,3.42-3.56,5.54-2.11,8.46a6.35,6.35,0,0,0,1.6,2C985.34,262,988,265.66,979.22,272.28Z"/><path class="cls-14" d="M499,241.48s49.77-29.17,54.64-13.49C559.22,246,499,241.48,499,241.48Z"/><path class="cls-14" d="M497.84,243.29s-14.84-55.76-29.33-48C451.88,204.11,497.84,243.29,497.84,243.29Z"/><path class="cls-14" d="M518.13,204.49s50.85-21.46,54-6.22C575.52,214.84,518.13,204.49,518.13,204.49Z"/><path class="cls-14" d="M515,204.19s-11.27-53.29-30.55-44a9.4,9.4,0,0,0-2.35,1.55V173C489.61,186.48,515,204.19,515,204.19Z"/><path class="cls-14" d="M534.82,173.09c8.76-7,50.69-22.46,52.21-11.06C589.67,181.86,534.82,173.09,534.82,173.09Z"/><path class="cls-14" d="M530.16,172c-5.34-18.64-19.6-49.64-29.69-43.85C483.89,137.65,530.16,172,530.16,172Z"/><path class="cls-14" d="M542.84,140.5c-1.12-16.57-15.12-44.49-27.18-39.63S542.84,140.5,542.84,140.5Z"/><path class="cls-14" d="M547.69,136.62s34-41.44,18-47.93S547.69,136.62,547.69,136.62Z"/><path class="cls-15" d="M559.76,105s-22,69.59-76.69,160.64"/><path class="cls-14" d="M544.81,143.51s44.58-23.08,48.93-10.23C599.12,149.13,544.81,143.51,544.81,143.51Z"/><polyline class="cls-15" points="580.24 136.24 544.82 143.51 525.02 112.79"/><polyline class="cls-15" points="572.57 166.26 531.34 173.72 508.18 139.99"/><polyline class="cls-15" points="554.89 200.53 516.17 204.71 493.2 171.54"/><polyline class="cls-15" points="544.56 230.84 497.43 244.49 483.51 219.2"/><path class="cls-16" d="M546.1,337.66c0,2.53-50.38,4.58-112.54,4.58S321,340.19,321,337.66s50.38-4.58,112.53-4.58S546.1,335.13,546.1,337.66Z"/><path class="cls-1" d="M438.66,336.5S444.6,257.69,431,256s-11.18,33-24.7,32.7-20.9-11.74-25.84.57-5.06,24.29-16.75,20.6-28.94,26.64-28.94,26.64Z"/><path class="cls-17" d="M363.72,309.86c11.69,3.69,11.81-8.29,16.75-20.6,4.18-10.41,10.11-3.83,20-1.37V336.5H334.78S352,306.16,363.72,309.86Z"/><path class="cls-10" d="M528.34,336.5c3.87-26.79-5.36-42.68-16.33-44.65-11.27-2-18.87-6.2-22.28-24.33s-5.5-36.53-18.09-34.14-17,18.57-18.08,37.14S444.65,287,433.9,294.25c-8.4,5.69-2.39,31.32.63,42.25Z"/><path class="cls-9" d="M516.13,315.79c-5.11-3.61-15.46,3.62-23.72,2.69s-6.16-26.93-17.69-26.93-10.62,29.71-19.79,29.85-8.39-12.87-15.86-8.53c-6.16,3.57-2.16,18.5-.57,23.63h74.3C515.63,329.68,519.66,318.29,516.13,315.79Z"/><path class="cls-18" d="M472.62,246.78s4.58,53.18.59,89.72"/><line class="cls-19" x1="478.67" y1="250.32" x2="473.41" y2="257.81"/><line class="cls-19" x1="463.3" y1="254.93" x2="473.84" y2="265.19"/><line class="cls-19" x1="485.62" y1="268.5" x2="474.51" y2="281.04"/><line class="cls-19" x1="457.83" y1="274.77" x2="474.84" y2="291.64"/><line class="cls-19" x1="494.93" y1="283.2" x2="474.83" y2="302.84"/><line class="cls-19" x1="462.72" y1="304.83" x2="474.57" y2="316.62"/><line class="cls-19" x1="489.44" y1="307.96" x2="474.21" y2="324.27"/><path class="cls-18" d="M444.05,302.8s4.6,7.63,5.33,33.7"/><line class="cls-19" x1="455.18" y1="315.27" x2="448.7" y2="326.08"/><line class="cls-19" x1="434.98" y1="322.71" x2="448.9" y2="328.17"/><path class="cls-18" d="M509.71,308.66s-2.36,1.77-3.09,27.84"/><line class="cls-19" x1="500.84" y1="315.3" x2="507.3" y2="326.08"/><line class="cls-19" x1="516.9" y1="324.33" x2="507.1" y2="328.17"/><path class="cls-16" d="M1942.37,305.3c0,2.45-41.37,4.44-92.42,4.44s-92.43-2-92.43-4.44,41.38-4.44,92.43-4.44S1942.37,302.84,1942.37,305.3Z"/><path class="cls-1" d="M1855.53,304.17c3-20.88-4.23-33.27-12.89-34.81-8.89-1.57-14.89-4.83-17.57-19s-4.34-28.47-14.27-26.61-13.45,14.48-14.27,29-7,12.83-15.52,18.5c-6.62,4.44-1.88,24.41.51,32.93Z"/><path class="cls-9" d="M1846.44,288c-4-2.82-12.2,2.82-18.71,2.09s-4.87-21-14-21-8.37,23.16-15.61,23.27-6.62-10-12.51-6.65c-4.86,2.79-1.71,14.43-.45,18.42h58.62C1846.05,298.86,1849.22,290,1846.44,288Z"/><path class="cls-10" d="M1924.94,304.17c3.8-26-5.26-41.4-16-43.31-11.06-2-18.52-6-21.87-23.6s-5.41-35.44-17.76-33.12-16.73,18-17.76,36-8.75,16-19.3,23c-8.25,5.52-2.35,30.38.62,41Z"/><path class="cls-9" d="M1913,284.09c-5-3.51-15.19,3.5-23.3,2.6s-6.05-26.12-17.37-26.12-10.42,28.82-19.44,28.95-8.23-12.48-15.57-8.27c-6,3.46-2.12,17.95-.56,22.92h73C1912.46,297.56,1916.42,286.51,1913,284.09Z"/><path class="cls-6" d="M1870.22,217.14s4.5,51.58.58,87"/><line class="cls-7" x1="1876.17" y1="220.57" x2="1871" y2="227.84"/><line class="cls-7" x1="1861.08" y1="225.05" x2="1871.42" y2="235"/><line class="cls-7" x1="1882.99" y1="238.21" x2="1872.09" y2="250.37"/><line class="cls-7" x1="1855.71" y1="244.29" x2="1872.41" y2="260.65"/><line class="cls-7" x1="1892.14" y1="252.47" x2="1872.4" y2="271.52"/><line class="cls-7" x1="1860.51" y1="273.45" x2="1872.14" y2="284.88"/><line class="cls-7" x1="1886.75" y1="276.49" x2="1871.79" y2="292.31"/><path class="cls-6" d="M1842.18,271.48s4.51,7.4,5.23,32.69"/><line class="cls-7" x1="1853.11" y1="283.58" x2="1846.75" y2="294.06"/><line class="cls-7" x1="1833.27" y1="290.8" x2="1846.93" y2="296.09"/><path class="cls-6" d="M1906.65,277.17s-2.32,1.71-3,27"/><line class="cls-7" x1="1897.94" y1="283.61" x2="1904.28" y2="294.06"/><line class="cls-7" x1="1913.7" y1="292.36" x2="1904.09" y2="296.09"/><path class="cls-16" d="M1254.23,316.69c0,2.08-44.66,3.77-99.76,3.77s-99.76-1.69-99.76-3.77,44.66-3.75,99.76-3.75S1254.23,314.62,1254.23,316.69Z"/><path class="cls-1" d="M1070.55,312.83c8.1,6.14,21.21.55,28.47-5.74a7.72,7.72,0,0,0,2.55-4.19c1.65-7.88-10.8-9.82-11.16-16.87-.16-3.1,2.17-5.66,3.88-8.23,3.92-5.88,5-13.31,4.2-20.33s-3.46-13.69-6.52-20.06c-2.51-5.21-7-11.1-12.61-9.84-3.63.8-6,4.41-7,8a32.1,32.1,0,0,0-.27,15.16c.43,2.22,1,4.52.41,6.7-1.52,5.59-9.36,6.85-12.2,11.9s.56,11.38,3.75,16.34c2.74,4.23,4.41,6.86,2.62,10.48a8,8,0,0,1-2,2.49C1063,300.09,1059.73,304.62,1070.55,312.83Z"/><path class="cls-10" d="M1172.39,315.74c3.79-25.93-5.26-41.32-16-43.22-11-2-18.49-6-21.83-23.56s-5.4-35.36-17.72-33.05-16.7,18-17.73,36-8.73,15.92-19.26,23c-8.23,5.51-2.34,30.32.62,40.9Z"/><path class="cls-9" d="M1160.42,295.7c-5-3.5-15.15,3.5-23.24,2.59s-6-26.06-17.34-26.06-10.4,28.76-19.4,28.89-8.21-12.46-15.54-8.26c-6,3.46-2.11,17.92-.55,22.88h72.8C1159.93,309.14,1163.88,298.11,1160.42,295.7Z"/><path class="cls-6" d="M1117.78,228.89s4.49,51.47.58,86.85"/><line class="cls-7" x1="1123.71" y1="232.31" x2="1118.56" y2="239.56"/><line class="cls-7" x1="1108.65" y1="236.77" x2="1118.97" y2="246.71"/><line class="cls-7" x1="1130.52" y1="249.92" x2="1119.64" y2="262.05"/><line class="cls-7" x1="1103.3" y1="255.98" x2="1119.96" y2="272.31"/><line class="cls-7" x1="1139.65" y1="264.15" x2="1119.95" y2="283.16"/><line class="cls-7" x1="1108.08" y1="285.08" x2="1119.69" y2="296.5"/><line class="cls-7" x1="1134.27" y1="288.12" x2="1119.34" y2="303.9"/><path class="cls-6" d="M1089.79,283.12s4.5,7.38,5.22,32.62"/><line class="cls-7" x1="1100.69" y1="295.19" x2="1094.35" y2="305.65"/><line class="cls-7" x1="1080.9" y1="302.39" x2="1094.54" y2="307.68"/><path class="cls-6" d="M1154.13,288.79s-2.31,1.71-3,26.95"/><line class="cls-7" x1="1145.43" y1="295.22" x2="1151.76" y2="305.65"/><line class="cls-7" x1="1161.17" y1="303.95" x2="1151.57" y2="307.68"/><path class="cls-1" d="M1163.73,315.62s-4.94-64.75,6.36-66.14,9.3,27.11,20.54,26.87,17.38-9.65,21.49.46,4.2,20,13.92,16.92,24.07,21.89,24.07,21.89Z"/><path class="cls-11" d="M1226,293.73c-9.72,3-9.82-6.8-13.92-16.92-3.48-8.55-8.41-3.14-16.65-1.12v39.93h54.64S1235.76,290.7,1226,293.73Z"/><path class="cls-1" d="M306.29,325.94a13.14,13.14,0,0,0-15.64,10.16A13.15,13.15,0,0,0,306.29,325.94Z"/><path class="cls-1" d="M288.47,336.37a13.16,13.16,0,0,0-14.62-11.62A13.19,13.19,0,0,0,288.47,336.37Z"/><path class="cls-1" d="M306.29,309.7a13.14,13.14,0,0,0-15.64,10.16A13.15,13.15,0,0,0,306.29,309.7Z"/><path class="cls-1" d="M289.36,295.2a13.42,13.42,0,0,0,0,18.82A13.43,13.43,0,0,0,289.36,295.2Z"/><path class="cls-1" d="M288.47,320.13a13.16,13.16,0,0,0-14.62-11.62A13.19,13.19,0,0,0,288.47,320.13Z"/><rect class="cls-20" x="289.09" y="305.71" width="0.48" height="46.92"/><polygon class="cls-21" points="289.32 321.1 281.16 314.17 281.47 313.8 289.34 320.48 299.12 313.46 299.4 313.85 289.32 321.1"/><polygon class="cls-21" points="289.32 337.64 281.16 330.71 281.47 330.34 289.34 337.03 299.12 330 299.4 330.4 289.32 337.64"/><path class="cls-4" d="M260.41,348.54a45.28,45.28,0,0,0,9.37,6.75S268.63,352.45,260.41,348.54Z"/><path class="cls-4" d="M259.42,341.4s9.2,8.75,18.76,13.5C278.18,354.9,275.88,349.21,259.42,341.4Z"/><path class="cls-4" d="M271.29,344s7.53,7.16,15.35,11C286.64,355,284.75,350.36,271.29,344Z"/><path class="cls-4" d="M307.33,342.49s-8.63,8.21-17.6,12.66C289.73,355.15,291.89,349.82,307.33,342.49Z"/><path class="cls-4" d="M306.78,348.54a45.28,45.28,0,0,1-9.37,6.75S298.56,352.45,306.78,348.54Z"/><path class="cls-4" d="M313.76,348.54a45.28,45.28,0,0,1-9.37,6.75S305.54,352.45,313.76,348.54Z"/><path class="cls-1" d="M756.09,255.86a12.9,12.9,0,0,0-15.36,9.86A12.92,12.92,0,0,0,756.09,255.86Z"/><path class="cls-1" d="M738.59,266a12.89,12.89,0,0,0-14.35-11.27A12.91,12.91,0,0,0,738.59,266Z"/><path class="cls-1" d="M756.09,240.11A12.9,12.9,0,0,0,740.73,250,12.9,12.9,0,0,0,756.09,240.11Z"/><path class="cls-1" d="M739.46,226.05a12.9,12.9,0,0,0,0,18.25A12.9,12.9,0,0,0,739.46,226.05Z"/><path class="cls-1" d="M738.59,250.22A12.91,12.91,0,0,0,724.24,239,12.89,12.89,0,0,0,738.59,250.22Z"/><rect class="cls-2" x="739.19" y="236.24" width="0.48" height="45.51"/><polygon class="cls-3" points="739.42 251.17 731.41 244.44 731.72 244.08 739.45 250.57 749.05 243.75 749.32 244.14 739.42 251.17"/><polygon class="cls-3" points="739.42 267.21 731.41 260.49 731.72 260.13 739.45 266.61 749.05 259.8 749.32 260.18 739.42 267.21"/><path class="cls-4" d="M711,277.79a44.68,44.68,0,0,0,9.2,6.54S719.11,281.57,711,277.79Z"/><path class="cls-4" d="M710.06,270.86s9,8.49,18.43,13.09C728.49,284,726.22,278.44,710.06,270.86Z"/><path class="cls-4" d="M721.72,273.35s7.39,6.95,15.07,10.71C736.79,284.06,734.94,279.55,721.72,273.35Z"/><path class="cls-4" d="M757.11,271.92s-8.47,8-17.29,12.28C739.82,284.2,742,279,757.11,271.92Z"/><path class="cls-4" d="M756.57,277.79a44.68,44.68,0,0,1-9.2,6.54S748.5,281.57,756.57,277.79Z"/><path class="cls-4" d="M763.42,277.79a44.68,44.68,0,0,1-9.2,6.54S755.35,281.57,763.42,277.79Z"/><path class="cls-1" d="M107.6,264.45a12.91,12.91,0,0,0-15.36,9.86A12.9,12.9,0,0,0,107.6,264.45Z"/><path class="cls-1" d="M90.11,274.57A12.9,12.9,0,0,0,75.76,263.3,12.9,12.9,0,0,0,90.11,274.57Z"/><path class="cls-1" d="M107.6,248.7a12.9,12.9,0,0,0-15.36,9.85A12.9,12.9,0,0,0,107.6,248.7Z"/><path class="cls-1" d="M91,234.64a12.91,12.91,0,0,0,0,18.25A12.9,12.9,0,0,0,91,234.64Z"/><path class="cls-1" d="M90.11,258.82a12.89,12.89,0,0,0-14.35-11.27A12.9,12.9,0,0,0,90.11,258.82Z"/><rect class="cls-2" x="90.71" y="244.83" width="0.47" height="45.52"/><polygon class="cls-3" points="90.93 259.76 82.93 253.03 83.23 252.68 90.96 259.16 100.57 252.35 100.84 252.73 90.93 259.76"/><polygon class="cls-3" points="90.93 275.81 82.93 269.08 83.23 268.72 90.96 275.21 100.57 268.39 100.84 268.78 90.93 275.81"/><path class="cls-4" d="M618.51,313.61a44.27,44.27,0,0,0,9.2,6.54S626.58,317.4,618.51,313.61Z"/><path class="cls-4" d="M617.54,306.69s9,8.48,18.42,13.09C636,319.78,633.7,314.26,617.54,306.69Z"/><path class="cls-4" d="M629.2,309.18s7.38,6.94,15.07,10.7C644.27,319.88,642.41,315.37,629.2,309.18Z"/><path class="cls-4" d="M664.58,307.74s-8.47,8-17.29,12.28C647.29,320,649.42,314.85,664.58,307.74Z"/><path class="cls-4" d="M664,313.61a44.27,44.27,0,0,1-9.2,6.54S656,317.4,664,313.61Z"/><path class="cls-4" d="M670.9,313.61a44.48,44.48,0,0,1-9.21,6.54S662.82,317.4,670.9,313.61Z"/><path class="cls-4" d="M1285.67,295.09a44.68,44.68,0,0,0,9.2,6.54S1293.74,298.88,1285.67,295.09Z"/><path class="cls-4" d="M1284.7,288.16s9,8.49,18.42,13.09C1303.12,301.25,1300.85,295.74,1284.7,288.16Z"/><path class="cls-4" d="M1296.36,290.66s7.38,6.94,15.06,10.7C1311.42,301.36,1309.57,296.85,1296.36,290.66Z"/><path class="cls-4" d="M1331.74,289.22s-8.47,8-17.28,12.28C1314.46,301.5,1316.58,296.32,1331.74,289.22Z"/><path class="cls-4" d="M1331.2,295.09a44.68,44.68,0,0,1-9.2,6.54S1323.13,298.88,1331.2,295.09Z"/><path class="cls-4" d="M1338.05,295.09a44.68,44.68,0,0,1-9.2,6.54S1330,298.88,1338.05,295.09Z"/><path class="cls-4" d="M63,287a44.68,44.68,0,0,0,9.2,6.54S71.07,290.78,63,287Z"/><path class="cls-4" d="M62,280.07s9,8.48,18.42,13.09C80.45,293.16,78.19,287.64,62,280.07Z"/><path class="cls-4" d="M73.69,282.56s7.38,6.94,15.06,10.71C88.75,293.27,86.9,288.76,73.69,282.56Z"/><path class="cls-4" d="M109.07,281.12s-8.47,8-17.28,12.29C91.79,293.41,93.91,288.23,109.07,281.12Z"/><path class="cls-4" d="M108.53,287a44.68,44.68,0,0,1-9.2,6.54S100.46,290.78,108.53,287Z"/><path class="cls-4" d="M115.38,287a44.68,44.68,0,0,1-9.2,6.54S107.31,290.78,115.38,287Z"/><path class="cls-16" d="M1507.65,322c0,1.61-20.49,2.91-45.76,2.91s-45.76-1.3-45.76-2.91,20.49-2.9,45.76-2.9S1507.65,320.42,1507.65,322Z"/><path class="cls-22" d="M1493.78,320.23c3.9,3,10.21.27,13.71-2.76a3.74,3.74,0,0,0,1.23-2c.8-3.79-5.2-4.73-5.38-8.13-.07-1.49,1.05-2.72,1.88-4a14.65,14.65,0,0,0,2-9.79,31.15,31.15,0,0,0-3.14-9.67c-1.21-2.5-3.36-5.34-6.08-4.74-1.75.39-2.87,2.13-3.37,3.84a15.4,15.4,0,0,0-.13,7.3,7.29,7.29,0,0,1,.19,3.24c-.73,2.68-4.5,3.3-5.87,5.72s.27,5.49,1.81,7.87c1.31,2.05,2.12,3.31,1.26,5.06a3.82,3.82,0,0,1-1,1.19C1490.12,314.1,1488.57,316.28,1493.78,320.23Z"/><path class="cls-10" d="M1500,321.29c2.93-20-4.06-31.91-12.36-33.39-8.53-1.51-14.28-4.63-16.86-18.18s-4.17-27.31-13.69-25.53-12.89,13.89-13.68,27.77-6.75,12.3-14.88,17.74c-6.35,4.26-1.81,23.41.48,31.59Z"/><path class="cls-9" d="M1490.8,305.8c-3.87-2.7-11.7,2.71-18,2s-4.66-20.13-13.39-20.13-8,22.22-15,22.31-6.34-9.62-12-6.37c-4.67,2.67-1.64,13.84-.44,17.67h56.23C1490.42,316.19,1493.47,307.67,1490.8,305.8Z"/><path class="cls-6" d="M1457.87,254.21s3.46,39.76.45,67.08"/><line class="cls-7" x1="1462.45" y1="256.86" x2="1458.47" y2="262.46"/><line class="cls-7" x1="1450.82" y1="260.3" x2="1458.79" y2="267.97"/><line class="cls-7" x1="1467.71" y1="270.45" x2="1459.3" y2="279.82"/><line class="cls-7" x1="1446.68" y1="275.14" x2="1459.55" y2="287.75"/><line class="cls-7" x1="1474.76" y1="281.44" x2="1459.55" y2="296.12"/><line class="cls-7" x1="1450.38" y1="297.61" x2="1459.34" y2="306.42"/><line class="cls-7" x1="1470.61" y1="299.95" x2="1459.07" y2="312.15"/><path class="cls-6" d="M1436.25,296.1s3.48,5.7,4,25.19"/><line class="cls-7" x1="1444.68" y1="305.41" x2="1439.78" y2="313.49"/><line class="cls-7" x1="1429.39" y1="310.98" x2="1439.92" y2="315.06"/><path class="cls-6" d="M1485.94,300.48s-1.78,1.32-2.34,20.81"/><line class="cls-7" x1="1479.23" y1="305.44" x2="1484.11" y2="313.49"/><line class="cls-7" x1="1491.38" y1="312.19" x2="1483.97" y2="315.06"/><path class="cls-4" d="M846.27,293.4a38.5,38.5,0,0,0,8,5.65S853.24,296.67,846.27,293.4Z"/><path class="cls-4" d="M845.43,287.41s7.8,7.33,15.91,11.31C861.34,298.72,859.39,294,845.43,287.41Z"/><path class="cls-4" d="M855.5,289.56a63,63,0,0,0,13,9.25S866.92,294.92,855.5,289.56Z"/><path class="cls-4" d="M886.07,288.32s-7.32,6.88-14.93,10.61C871.14,298.93,873,294.46,886.07,288.32Z"/><path class="cls-4" d="M885.61,293.4a38.71,38.71,0,0,1-8,5.65S878.63,296.67,885.61,293.4Z"/><path class="cls-4" d="M891.53,293.4a38.71,38.71,0,0,1-8,5.65S884.55,296.67,891.53,293.4Z"/><path class="cls-4" d="M1782.24,378.39a44.83,44.83,0,0,0,9.2,6.53S1790.32,382.17,1782.24,378.39Z"/><path class="cls-4" d="M1781.27,371.46s9,8.48,18.42,13.09C1799.69,384.55,1797.43,379,1781.27,371.46Z"/><path class="cls-4" d="M1792.93,374s7.39,6.94,15.07,10.7C1808,384.65,1806.15,380.15,1792.93,374Z"/><path class="cls-4" d="M1828.32,372.51s-8.48,8-17.29,12.28C1811,384.79,1813.15,379.62,1828.32,372.51Z"/><path class="cls-4" d="M1827.78,378.39a45.15,45.15,0,0,1-9.2,6.53S1819.7,382.17,1827.78,378.39Z"/><path class="cls-4" d="M1834.63,378.39a44.83,44.83,0,0,1-9.2,6.53S1826.56,382.17,1834.63,378.39Z"/><path class="cls-1" d="M1718.8,316.59a12.9,12.9,0,0,0-15.36,9.85A12.9,12.9,0,0,0,1718.8,316.59Z"/><path class="cls-1" d="M1701.31,326.7A12.91,12.91,0,0,0,1687,315.43,12.9,12.9,0,0,0,1701.31,326.7Z"/><path class="cls-1" d="M1718.8,300.83a12.9,12.9,0,0,0-15.36,9.86A12.91,12.91,0,0,0,1718.8,300.83Z"/><path class="cls-1" d="M1702.17,286.77a12.9,12.9,0,0,0,0,18.25A12.9,12.9,0,0,0,1702.17,286.77Z"/><path class="cls-1" d="M1701.31,311A12.9,12.9,0,0,0,1687,299.68,12.9,12.9,0,0,0,1701.31,311Z"/><rect class="cls-2" x="1701.91" y="296.96" width="0.47" height="45.51"/><polygon class="cls-3" points="1702.13 311.89 1694.13 305.17 1694.43 304.81 1702.16 311.3 1711.77 304.48 1712.04 304.87 1702.13 311.89"/><polygon class="cls-3" points="1702.13 327.94 1694.13 321.21 1694.43 320.85 1702.16 327.34 1711.77 320.53 1712.04 320.91 1702.13 327.94"/><path class="cls-4" d="M1673.75,338.52a44.41,44.41,0,0,0,9.2,6.53S1681.82,342.3,1673.75,338.52Z"/><path class="cls-4" d="M1672.78,331.59s9,8.48,18.42,13.09C1691.2,344.68,1688.94,339.16,1672.78,331.59Z"/><path class="cls-4" d="M1684.44,334.08s7.39,6.94,15.07,10.71C1699.51,344.79,1697.65,340.28,1684.44,334.08Z"/><path class="cls-4" d="M1719.83,332.64s-8.48,8-17.29,12.28C1702.54,344.92,1704.66,339.75,1719.83,332.64Z"/><path class="cls-4" d="M1719.29,338.52a44.62,44.62,0,0,1-9.21,6.53S1711.21,342.3,1719.29,338.52Z"/><path class="cls-4" d="M1726.14,338.52a44.41,44.41,0,0,1-9.2,6.53S1718.07,342.3,1726.14,338.52Z"/><path class="cls-14" d="M302.57,272.29c9.56,7.25,25,.64,33.61-6.78a9.09,9.09,0,0,0,3-4.95c1.95-9.3-12.74-11.59-13.17-19.93-.19-3.64,2.56-6.67,4.58-9.71,4.63-6.94,5.94-15.72,5-24s-4.08-16.17-7.7-23.69c-2.95-6.15-8.23-13.1-14.89-11.62-4.29.95-7,5.21-8.27,9.41-1.72,5.78-1.47,12-.32,17.9.5,2.62,1.19,5.35.48,7.92-1.8,6.59-11.05,8.09-14.4,14s.66,13.45,4.43,19.3c3.22,5,5.2,8.11,3.09,12.38a9.5,9.5,0,0,1-2.34,2.93C293.6,257.25,289.79,262.59,302.57,272.29Z"/><path class="cls-5" d="M287.68,273.28c6.54,5,17.11.44,23-4.63a6.26,6.26,0,0,0,2.06-3.38c1.33-6.36-8.71-7.92-9-13.62-.12-2.49,1.75-4.56,3.14-6.63,3.16-4.75,4.05-10.74,3.38-16.4s-2.79-11.05-5.26-16.19c-2-4.2-5.62-9-10.17-7.94-2.93.65-4.8,3.56-5.66,6.43a25.84,25.84,0,0,0-.21,12.24c.35,1.79.82,3.65.33,5.41-1.23,4.5-7.55,5.52-9.84,9.59s.45,9.19,3,13.18c2.21,3.42,3.56,5.54,2.11,8.46a6.32,6.32,0,0,1-1.59,2C281.56,263,279,266.66,287.68,273.28Z"/><path class="cls-8" d="M248.67,264.07c5.42-37-7.49-59-22.83-61.7-15.77-2.79-26.4-8.57-31.17-33.61s-7.7-50.48-25.3-47.18-23.83,25.66-25.29,51.32-12.47,22.74-27.5,32.8c-11.75,7.86-3.35,43.27.89,58.37Z"/><path class="cls-9" d="M231.6,235.46c-7.15-5-21.63,5-33.18,3.71S189.8,202,173.67,202,158.82,243,146,243.2s-11.74-17.78-22.19-11.78c-8.61,4.94-3,25.57-.8,32.65H226.93C230.9,254.65,236.53,238.91,231.6,235.46Z"/><path class="cls-6" d="M170.73,140.1s6.41,73.48.83,124"/><line class="cls-7" x1="179.21" y1="144.98" x2="171.84" y2="155.34"/><line class="cls-7" x1="157.71" y1="151.36" x2="172.44" y2="165.53"/><line class="cls-7" x1="188.92" y1="170.12" x2="173.38" y2="187.44"/><line class="cls-7" x1="150.05" y1="178.78" x2="173.84" y2="202.09"/><line class="cls-7" x1="201.94" y1="190.43" x2="173.83" y2="217.56"/><line class="cls-7" x1="156.9" y1="220.31" x2="173.46" y2="236.6"/><line class="cls-7" x1="194.27" y1="224.64" x2="172.96" y2="247.18"/><path class="cls-6" d="M130.78,217.51s6.43,10.54,7.46,46.56"/><line class="cls-7" x1="146.34" y1="234.74" x2="137.29" y2="249.67"/><line class="cls-7" x1="118.1" y1="245.02" x2="137.56" y2="252.56"/><path class="cls-6" d="M222.62,225.61s-3.3,2.44-4.34,38.46"/><line class="cls-7" x1="210.21" y1="234.78" x2="219.24" y2="249.67"/><line class="cls-7" x1="232.67" y1="247.25" x2="218.97" y2="252.56"/><path class="cls-10" d="M128.45,263.94s7.33-96-9.42-98.05-13.79,40.19-30.45,39.83-25.77-14.31-31.85.69S50.49,236,36.08,231.49.4,263.94.4,263.94Z"/><path class="cls-11" d="M36.08,231.49c14.41,4.5,14.55-10.08,20.65-25.08,5.14-12.69,12.46-4.67,24.67-1.67v59.2H.4S21.67,227,36.08,231.49Z"/></g></g></svg>