<svg xmlns="http://www.w3.org/2000/svg" viewBox="0 0 649.23 689.47"><defs><style>.cls-1{fill:#7ecbd6;}.cls-2{fill:#64c3ce;}.cls-3{fill:#8aa582;}.cls-4{fill:#cce8ed;}.cls-5{fill:#90b9a8;}</style></defs><title>river</title><g id="Calque_2" data-name="Calque 2"><g id="Calque_15" data-name="Calque 15"><polygon class="cls-1" points="326.63 71.24 556.02 144.45 6 661.53 266.31 689.47 649.23 149.09 442.31 64.55 326.63 71.24"/><polygon class="cls-2" points="366.62 68.34 482.76 0 411.53 66.09 366.62 68.34"/><polygon class="cls-3" points="355.78 68.88 366.62 68.34 482.76 0 355.78 68.88"/><polygon class="cls-4" points="451.17 245.15 574.62 253.08 365.04 551.04 30.6 643.04 420.83 281.06 501.99 276.84 425.06 272.94 451.17 245.15"/><polygon class="cls-4" points="617.2 192.86 592.17 228.83 485.9 232.46 520.76 201.13 617.2 192.86"/><polygon class="cls-4" points="644.71 156.16 630.14 178.88 524.68 176.69 551.53 154.13 644.71 156.16"/><polygon class="cls-4" points="515.99 102.8 413.54 104.58 386.82 93.79 495 91.88 515.99 102.8"/><polygon class="cls-5" points="556.02 144.45 556.02 156.84 85.15 667.09 0 661.53 556.02 144.45"/></g></g></svg>