<svg xmlns="http://www.w3.org/2000/svg" viewBox="0 0 133.63 322.28"><defs><style>.cls-1{fill:#74a46e;}.cls-1,.cls-2,.cls-3,.cls-4,.cls-6,.cls-7{fill-rule:evenodd;}.cls-2{fill:#f0865b;}.cls-3{fill:#9c5060;}.cls-4{fill:#1f807d;}.cls-5,.cls-6{fill:#7ecbe4;stroke:#496741;stroke-miterlimit:22.93;stroke-width:1.08px;}.cls-7{fill:#496741;}</style></defs><title>single_tree</title><g id="Calque_2" data-name="Calque 2"><g id="Calque_15" data-name="Calque 15"><path class="cls-1" d="M115.3,317.84c0,2.45-22.13,4.44-49.43,4.44s-49.43-2-49.43-4.44,22.13-4.44,49.43-4.44S115.3,315.38,115.3,317.84Z"/><path class="cls-2" d="M88.42,242.4c-23,17.43-60.16,1.55-80.77-16.28A21.8,21.8,0,0,1,.43,214.23c-4.69-22.35,30.62-27.86,31.66-47.89.45-8.76-6.16-16-11-23.33C10,126.33,6.8,105.24,9.16,85.33S19,46.48,27.65,28.41C34.76,13.63,47.45-3.07,63.45.48,73.73,2.76,80.33,13,83.32,23.1c4.12,13.88,3.53,28.8.76,43-1.22,6.3-2.86,12.84-1.16,19,4.34,15.84,26.56,19.42,34.62,33.73,8.21,14.57-1.58,32.31-10.65,46.37-7.75,12-12.51,19.48-7.43,29.76a22.72,22.72,0,0,0,5.63,7C110,206.26,119.13,219.11,88.42,242.4Z"/><path class="cls-3" d="M58.23,41.58c0,5-5,277.42-5,277.42l19.74,1.73Z"/><path class="cls-3" d="M59.09,234.68,18.67,191.81,62.6,231.07a2.52,2.52,0,0,1-3.36,3.76Z"/><path class="cls-3" d="M55.23,111.15,38.86,79.09l19.59,30.2a1.85,1.85,0,0,1-.55,2.58,1.87,1.87,0,0,1-2.58-.55Z"/><path class="cls-3" d="M62.21,178.38l39.1-59Z"/><path class="cls-3" d="M60.19,177l41.12-57.66L64.23,179.72a2.42,2.42,0,1,1-4.13-2.54Z"/><path class="cls-4" d="M126.29,287.43a12.91,12.91,0,0,0-15.36,9.86A12.91,12.91,0,0,0,126.29,287.43Z"/><path class="cls-4" d="M108.8,297.55a12.9,12.9,0,0,0-14.35-11.27A12.9,12.9,0,0,0,108.8,297.55Z"/><path class="cls-4" d="M126.29,271.68a12.91,12.91,0,0,0-15.36,9.85A12.9,12.9,0,0,0,126.29,271.68Z"/><path class="cls-4" d="M109.66,257.62a12.9,12.9,0,0,0,0,18.25A12.91,12.91,0,0,0,109.66,257.62Z"/><path class="cls-4" d="M108.8,281.8a12.91,12.91,0,0,0-14.35-11.28A12.9,12.9,0,0,0,108.8,281.8Z"/><rect class="cls-5" x="109.4" y="267.81" width="0.47" height="45.52"/><polygon class="cls-6" points="109.63 282.74 101.62 276.01 101.93 275.65 109.65 282.14 119.26 275.32 119.53 275.71 109.63 282.74"/><polygon class="cls-6" points="109.63 298.78 101.62 292.06 101.93 291.7 109.65 298.19 119.26 291.37 119.53 291.76 109.63 298.78"/><path class="cls-7" d="M81.24,309.36a44.57,44.57,0,0,0,9.21,6.54S89.31,313.15,81.24,309.36Z"/><path class="cls-7" d="M80.27,302.43s9,8.49,18.42,13.09C98.69,315.52,96.43,310,80.27,302.43Z"/><path class="cls-7" d="M91.93,304.92s7.39,6.95,15.07,10.71C107,315.63,105.15,311.12,91.93,304.92Z"/><path class="cls-7" d="M127.32,303.49s-8.48,8-17.29,12.28C110,315.77,112.15,310.59,127.32,303.49Z"/><path class="cls-7" d="M126.78,309.36a44.89,44.89,0,0,1-9.21,6.54S118.7,313.15,126.78,309.36Z"/><path class="cls-7" d="M133.63,309.36a44.68,44.68,0,0,1-9.2,6.54S125.56,313.15,133.63,309.36Z"/></g></g></svg>