<svg xmlns="http://www.w3.org/2000/svg" viewBox="0 0 1674.17 421.18"><defs><style>.cls-1{fill:#f49740;}.cls-2{fill:#f8f8f7;}.cls-3{fill:#e94456;}.cls-4{fill:#005c90;}</style></defs><title>stars</title><g id="Calque_2" data-name="Calque 2"><g id="Calque_15" data-name="Calque 15"><path class="cls-1" d="M851.09,19.26A7.69,7.69,0,1,0,843.4,27,7.72,7.72,0,0,0,851.09,19.26Z"/><path class="cls-2" d="M509,197.12a7.7,7.7,0,1,0-7.7,7.74A7.72,7.72,0,0,0,509,197.12Z"/><ellipse class="cls-3" cx="240.71" cy="203.9" rx="7.69" ry="7.74"/><path class="cls-2" d="M361.22,7.74a7.7,7.7,0,1,0-7.69,7.75A7.72,7.72,0,0,0,361.22,7.74Z"/><ellipse class="cls-1" cx="1295.97" cy="355.43" rx="7.69" ry="7.74"/><ellipse class="cls-2" cx="1666.48" cy="245.74" rx="7.69" ry="7.74"/><ellipse class="cls-4" cx="317.63" cy="418.12" rx="3.04" ry="3.06"/><path class="cls-4" d="M856.09,228.42a3,3,0,1,0-3,3.06A3.05,3.05,0,0,0,856.09,228.42Z"/><path class="cls-1" d="M1348.53,253.48a3,3,0,1,0-3,3.06A3.05,3.05,0,0,0,1348.53,253.48Z"/><path class="cls-2" d="M1154.12,85.56a3,3,0,1,0-3,3.07A3.06,3.06,0,0,0,1154.12,85.56Z"/><ellipse class="cls-1" cx="249.2" cy="114.85" rx="3.04" ry="3.06"/><path class="cls-1" d="M6.09,229.71a3,3,0,1,0-3,3.06A3.05,3.05,0,0,0,6.09,229.71Z"/><path class="cls-1" d="M992.7,164.83a3,3,0,1,0-3,3.06A3.05,3.05,0,0,0,992.7,164.83Z"/><ellipse class="cls-4" cx="1385.23" cy="354.14" rx="3.04" ry="3.06"/><path class="cls-1" d="M1587,38a3,3,0,1,0-3,3.06A3.06,3.06,0,0,0,1587,38Z"/><ellipse class="cls-2" cx="1258.31" cy="151.53" rx="3.04" ry="3.06"/><path class="cls-2" d="M401,317.46a3,3,0,1,0-3,3.06A3.06,3.06,0,0,0,401,317.46Z"/><ellipse class="cls-4" cx="586.38" cy="185.83" rx="3.04" ry="3.06"/><ellipse class="cls-1" cx="746.64" cy="214.22" rx="3.04" ry="3.06"/><path class="cls-4" d="M638.14,112.27a3,3,0,1,0-3,3.07A3,3,0,0,0,638.14,112.27Z"/><path class="cls-1" d="M539.43,102a3,3,0,1,0-3,3.06A3.07,3.07,0,0,0,539.43,102Z"/><path class="cls-3" d="M753.53,64.52a3,3,0,1,0-3,3.07A3.05,3.05,0,0,0,753.53,64.52Z"/><path class="cls-3" d="M399.68,151a7.69,7.69,0,1,0-7.69,7.74A7.72,7.72,0,0,0,399.68,151Z"/><path class="cls-3" d="M1353.66,213.47a7.7,7.7,0,1,0-7.69,7.75A7.72,7.72,0,0,0,1353.66,213.47Z"/><ellipse class="cls-2" cx="1131.17" cy="151.92" rx="7.69" ry="7.74"/><path class="cls-3" d="M1022.89,293.48a7.7,7.7,0,1,0-7.69,7.75A7.72,7.72,0,0,0,1022.89,293.48Z"/><path class="cls-4" d="M1114.37,53.3a7.69,7.69,0,1,0-7.69,7.74A7.72,7.72,0,0,0,1114.37,53.3Z"/><path class="cls-4" d="M712.5,72.27A7.69,7.69,0,1,0,704.81,80,7.72,7.72,0,0,0,712.5,72.27Z"/><ellipse class="cls-2" cx="77.89" cy="294.23" rx="7.69" ry="7.74"/><ellipse class="cls-3" cx="1625.61" cy="70.9" rx="7.69" ry="7.74"/><path class="cls-1" d="M1391,96.71a3,3,0,1,0-3,3.06A3.05,3.05,0,0,0,1391,96.71Z"/><ellipse class="cls-2" cx="1462.79" cy="161.23" rx="7.69" ry="7.74"/><path class="cls-1" d="M222.22,21.26A7.69,7.69,0,1,0,214.53,29,7.72,7.72,0,0,0,222.22,21.26Z"/><path class="cls-4" d="M9.28,114.27a3,3,0,1,0-3,3.07A3.06,3.06,0,0,0,9.28,114.27Z"/><path class="cls-3" d="M124.66,66.52a3,3,0,1,0-3,3.07A3,3,0,0,0,124.66,66.52Z"/><path class="cls-4" d="M83.64,74.27A7.7,7.7,0,1,0,75.94,82,7.73,7.73,0,0,0,83.64,74.27Z"/></g></g></svg>