<svg xmlns="http://www.w3.org/2000/svg" viewBox="0 0 33.25 113.58"><defs><style>.cls-1{fill:#bd8864;}.cls-2{fill:#b06f44;}.cls-3{fill:#fbbf61;}.cls-4{fill:#ec6563;}.cls-5{fill:#f18962;}</style></defs><title>torch</title><g id="Calque_2" data-name="Calque 2"><g id="Calque_15" data-name="Calque 15"><path class="cls-1" d="M29.49,49.93l-3.43,9.42H23.21l1.64-2.56,4.4-6.86Z"/><path class="cls-1" d="M26.19,49.93h3.06l-4.4,6.86Z"/><path class="cls-1" d="M26.19,49.93l-1.34,6.86-1.64,2.56H13.8l-1-9.42H26.19Z"/><polygon class="cls-2" points="12.85 49.93 13.8 59.35 10.74 59.35 7.3 49.93 12.85 49.93"/><path class="cls-1" d="M21.05,99.14l-1.84,14.44H15.66l-2.09-14a11.3,11.3,0,0,0,3.06.42A11.52,11.52,0,0,0,21.05,99.14Z"/><polygon class="cls-1" points="27.93 61.11 27.28 67.25 23.82 74.55 16.06 90.92 16.02 90.93 14.8 61.11 27.93 61.11"/><path class="cls-2" d="M27.28,67.25,23.41,97.9l-2.28,15.68H19.21l1.84-14.44a11.52,11.52,0,0,1-4.42.89,11.3,11.3,0,0,1-3.06-.42L11.51,86h0l-.77-7.16L8.86,61.11H14.8L16,90.93h0l7.76-16.37Z"/><path class="cls-3" d="M2.36,41.94A12.68,12.68,0,0,1,.48,37.88a13.52,13.52,0,0,1,.3-8.06h0A21.48,21.48,0,0,1,5,22.66,17.53,17.53,0,0,0,3.64,28,17.33,17.33,0,0,0,6.23,45.13a9.75,9.75,0,0,1-3.87-3.19Z"/><path class="cls-4" d="M14.42,45.41a11.58,11.58,0,0,1-8.19-.28A17.33,17.33,0,0,1,3.64,28a16.89,16.89,0,0,0,1.19,8A17.59,17.59,0,0,0,14.42,45.41Z"/><path class="cls-3" d="M30.51,22c4.17,7.8,3.46,16.32-1.25,20.87a11.67,11.67,0,0,1-2.07,1.59,13.51,13.51,0,0,0,2.2-5.8,13.73,13.73,0,0,0-1.91-8.79Q29,25.8,30.51,22Z"/><path class="cls-5" d="M27.48,29.82a13.73,13.73,0,0,1,1.91,8.79,13.51,13.51,0,0,1-2.2,5.8,14.29,14.29,0,0,1-5.44,1.86q2.19-6.77,4.78-13.85C26.84,31.55,27.17,30.68,27.48,29.82Z"/><path class="cls-5" d="M26.37,17.41A24.91,24.91,0,0,1,24.81,30a17.89,17.89,0,0,1-1.16-1.89,22.34,22.34,0,0,1-.88-9.59,22.62,22.62,0,0,1,2-6.89A24.33,24.33,0,0,1,26.37,17.41Z"/><path class="cls-3" d="M24.81,11.63a22.62,22.62,0,0,0-2,6.89,22.34,22.34,0,0,0,.88,9.59,19.73,19.73,0,0,1,0-19A23,23,0,0,1,24.81,11.63Z"/><path class="cls-3" d="M21.88,33.12a26.8,26.8,0,0,1-.88,8.2h0a27.42,27.42,0,0,1-2.82-2.83,76.87,76.87,0,0,0,.9-15.87A26.37,26.37,0,0,1,21.88,33.12Z"/><path class="cls-5" d="M18.17,38.49A27.42,27.42,0,0,0,21,41.32h0A28.91,28.91,0,0,1,18.83,47C17.75,46.17,6.9,37.89,7.1,23.51A27.23,27.23,0,0,1,10,11.71a28.13,28.13,0,0,1,2.51,2.13,27.09,27.09,0,0,0,5.69,24.65Z"/><path class="cls-4" d="M15.29,16.85a31,31,0,0,1,3.78,5.77,76.87,76.87,0,0,1-.9,15.87,27.09,27.09,0,0,1-5.69-24.65A34.46,34.46,0,0,1,15.29,16.85Z"/><path class="cls-5" d="M18.5,16.33c.29,2.17.47,4.26.57,6.29a31,31,0,0,0-3.78-5.77A21.85,21.85,0,0,1,16.43,6.41l.08,0c.37,1.37.72,2.81,1,4.32Q18.11,13.4,18.5,16.33Z"/><path class="cls-3" d="M12.48,13.84A28.13,28.13,0,0,0,10,11.71a30.92,30.92,0,0,1,4.65-6.82A32.07,32.07,0,0,1,20.09,0a21.69,21.69,0,0,0-2.46,3.72,21.07,21.07,0,0,0-1.2,2.69,21.85,21.85,0,0,0-1.14,10.44A34.46,34.46,0,0,0,12.48,13.84Z"/></g></g></svg>