<svg xmlns="http://www.w3.org/2000/svg" viewBox="0 0 192.82 358"><defs><style>.cls-1{fill:#74a46e;}.cls-1,.cls-2,.cls-3,.cls-4{fill-rule:evenodd;}.cls-2{fill:#f3af47;}.cls-3{fill:#9c5060;}.cls-4{fill:#f0865b;}</style></defs><title>two_tree</title><g id="Calque_2" data-name="Calque 2"><g id="Calque_15" data-name="Calque 15"><path class="cls-1" d="M118.87,353.56c0,2.45-22.13,4.44-49.44,4.44S20,356,20,353.56s22.13-4.44,49.42-4.44S118.87,351.1,118.87,353.56Z"/><path class="cls-1" d="M174.79,306.65c0,2.46-15.27,4.45-34.11,4.45s-34.1-2-34.1-4.45,15.27-4.44,34.1-4.44S174.79,304.2,174.79,306.65Z"/><path class="cls-2" d="M165.64,258.6c-19.38,14.71-50.77,1.31-68.15-13.74a18.34,18.34,0,0,1-6.1-10c-4-18.86,25.84-23.51,26.71-40.41.38-7.4-5.19-13.53-9.3-19.7-9.38-14.07-12-31.87-10-48.66s8.28-32.8,15.61-48c6-12.47,16.7-26.57,30.21-23.57,8.68,1.93,14.25,10.56,16.77,19.08,3.47,11.72,3,24.32.64,36.31-1,5.32-2.41,10.83-1,16.06,3.66,13.37,22.41,16.39,29.21,28.47,6.93,12.29-1.33,27.26-9,39.12-6.54,10.15-10.56,16.45-6.27,25.12a19.1,19.1,0,0,0,4.75,5.94C183.83,228.1,191.56,239,165.64,258.6Z"/><path class="cls-3" d="M138,84.88c0,4.5-6.25,219.44-6.25,219.44l17.89,1.56Z"/><path class="cls-3" d="M142.9,214.59l36.61-38.83-39.79,35.56a2.29,2.29,0,0,0,3.05,3.41Z"/><path class="cls-3" d="M135.27,147.9l-14.83-29.06,17.75,27.37a1.69,1.69,0,0,1-2.83,1.84C135.33,148,135.3,147.94,135.27,147.9Z"/><path class="cls-3" d="M141.6,208.79,177,155.34Z"/><path class="cls-4" d="M97.37,266.93c-25.3,19.18-66.25,1.7-88.94-17.94a24,24,0,0,1-8-13.09c-5.16-24.61,33.72-30.67,34.86-52.73.5-9.65-6.78-17.65-12.14-25.69C11,139.11,7.49,115.89,10.08,94s10.8-42.79,20.37-62.68C38.27,15,52.24-3.38,69.87.53c11.32,2.52,18.59,13.78,21.88,24.9,4.53,15.3,3.88,31.72.83,47.38-1.34,6.94-3.14,14.14-1.27,21,4.77,17.45,29.24,21.39,38.12,37.15,9,16-1.75,35.58-11.73,51.05-8.53,13.25-13.77,21.46-8.18,32.78a25,25,0,0,0,6.2,7.75C121.1,227.13,131.18,241.28,97.37,266.93Z"/><path class="cls-3" d="M64.12,45.79c0,5.48-5.56,305.48-5.56,305.48l21.75,1.91Z"/><path class="cls-3" d="M65.06,258.42l-44.5-47.21,48.37,43.24a2.77,2.77,0,1,1-3.7,4.13Z"/><path class="cls-3" d="M60.82,122.4l-18-35.31,21.57,33.26a2,2,0,1,1-3.44,2.23A1.62,1.62,0,0,1,60.82,122.4Z"/><path class="cls-3" d="M68.5,196.43l43.06-65Z"/><path class="cls-3" d="M66.28,195l45.28-63.49L70.73,197.9a2.67,2.67,0,0,1-4.55-2.79A.86.86,0,0,1,66.28,195Z"/></g></g></svg>