<svg xmlns="http://www.w3.org/2000/svg" viewBox="0 0 1372.94 783.29"><defs><style>.cls-1,.cls-5{fill:#f0865b;}.cls-2,.cls-4{fill:#e94756;}.cls-3,.cls-6{fill:#8fcaa6;}.cls-3,.cls-4,.cls-5,.cls-7{fill-rule:evenodd;}.cls-7,.cls-8{fill:#fcc137;}.cls-10,.cls-9{fill:#fff;}.cls-10{font-size:211.34px;font-family:FredokaOne-Regular, Fredoka One;letter-spacing:0.05em;}</style></defs><title>win_1</title><g id="Calque_2" data-name="Calque 2"><g id="Calque_12" data-name="Calque 12"><path class="cls-1" d="M324.08,411.72S254.55,479.89,210.3,649.87c0,0,3.16,5.89,8.7-8.42C219,641.45,292.48,451.27,324.08,411.72Z"/><path class="cls-2" d="M293.7,599.3c.56,3.71,3.33,6.07,5.8,5.36s3.91-4,3.38-7.47a128.78,128.78,0,0,1-2.15-19.9c-.44-11.42.68-26.65,3.23-41.84,5.09-30.41,14.31-60.36,14.1-60.35.21,0-11.21,29.53-18.66,60.18-3.73,15.31-6,30.93-6.49,42.89A121.23,121.23,0,0,0,293.7,599.3Z"/><path class="cls-1" d="M336.69,416.73,341,534s4.88,10.4,9.22,0Z"/><path class="cls-2" d="M350.25,419.18s20.06,36.75,33.67,100.41c0,0,7.29,11.39,10.69,2.07C394.61,521.66,385.58,460.58,350.25,419.18Z"/><path class="cls-1" d="M386.35,451.27s43.74,44,67.06,120.6c0,0,8.26,15,11.67,5.69C465.08,577.56,449.53,501.47,386.35,451.27Z"/><path class="cls-2" d="M355.73,411.72s44.71,20.39,91.37,72.16c0,0,18,9.85,9.72-6.2C456.82,477.68,409.19,427.55,355.73,411.72Z"/><path class="cls-1" d="M350.25,402.62s76.44-7.77,111.43,16.56c0,0,12.63-.14,3.4-8.87C465.08,410.31,424.46,386.57,350.25,402.62Z"/><path class="cls-2" d="M350.25,391.74s9.86-35.19,46.79-16.56c0,0,19,11.39,19,12.94,0,0,12.65,1.86,11.91-9.38a17.21,17.21,0,0,0-.25-2c-2.43-13.45-18.26-20.68-46-17.06C381.69,359.67,356.91,368.45,350.25,391.74Z"/><path class="cls-1" d="M350.25,372.59S400,317.21,589.49,251.48c0,0,19.44-16.56-13.12-11.91C576.37,239.57,403.24,299.3,350.25,372.59Z"/><path class="cls-1" d="M389.1,310.61l83.65-98.1s6.2-17.67-7.67-9.14Z"/><path class="cls-3" d="M190.43,253.48c-8.48-44.31,114.82,14.75,102,10-38.9-14.36-96.28,19.91-102-10Z"/><path class="cls-3" d="M317.2,228.92c17.49-5,6.19,60.38,6.78,53.6,1.79-20.58-18.58-50.22-6.78-53.6Z"/><path class="cls-4" d="M343.47,386.17s4.75-55.45,73.4-164.52c0,0,10.16-29.25-9.51-13.4C407.36,208.25,371.33,244.81,343.47,386.17Z"/><path class="cls-5" d="M343.47,358.74,359.09,225.3s-2.29-23.76-12.59-5.48C346.5,219.82,341,344.42,343.47,358.74Z"/><path class="cls-4" d="M336.69,386.17S326.15,299.28,305.43,283c0,0-12.71-10.18-5.85,8.1C299.58,291.11,331.45,353.27,336.69,386.17Z"/><path class="cls-5" d="M329.33,386.17s-9.92-51.85-62.14-100.34c0,0-23.67-9.17-20.24,9C247,294.86,322,355.61,329.33,386.17Z"/><path class="cls-4" d="M324.08,394.7s-56-71.51-162.38-108.87c0,0-42.33-9.16-30.32,9C131.38,294.86,261.81,338.14,324.08,394.7Z"/><path class="cls-5" d="M317.12,394.7S295,350.55,102.78,334.84c0,0-81.82-4.73-49.21,20.25C53.57,355.09,276.3,353.79,317.12,394.7Z"/><path class="cls-4" d="M302.45,394.7s-62.81-16.45-120.94,32.9c0,0-22,2.36,0-15.88C181.51,411.72,230.07,370.57,302.45,394.7Z"/><path class="cls-4" d="M332.77,402s-52.75,1.22-86.16,56.06c0,0-2.52,12.19,9.5,4.88C256.11,463,308.88,401.91,332.77,402Z"/><path class="cls-5" d="M246.39,414.2s-30.33,11-24,21.94C222.35,436.14,231,447.1,246.39,414.2Z"/><path class="cls-3" d="M177.73,567.46c-42.36-2.93,43.53-114.12,35.88-102.19-23.24,36.2-7.27,104.17-35.88,102.19Z"/><path class="cls-6" d="M933.23,463.18s93,91.16,152.17,318.51c0,0-4.22,7.87-11.62-11.25C1073.78,770.44,975.5,516.08,933.23,463.18Z"/><path class="cls-1" d="M973.86,714.06c-.74,5-4.45,8.11-7.75,7.16s-5.23-5.39-4.52-10a172.15,172.15,0,0,0,2.87-26.6c.59-15.28-.91-35.65-4.31-56C953.34,588,941,547.94,941.28,548c-.27,0,15,39.5,25,80.48,5,20.48,8.09,41.36,8.67,57.36A162.35,162.35,0,0,1,973.86,714.06Z"/><path class="cls-6" d="M916.38,469.89l-5.81,156.83s-6.53,13.91-12.33,0Z"/><path class="cls-6" d="M827.44,602.56,810.33,732.61s-7.87,10.93-13-1.24Z"/><path class="cls-1" d="M898.24,473.16s-26.84,49.14-45,134.29c0,0-9.74,15.23-14.3,2.77C838.9,610.22,851,528.53,898.24,473.16Z"/><path class="cls-1" d="M850,516.07s-58.49,58.84-89.69,161.29c0,0-11,20.08-15.6,7.62C744.66,685,765.46,583.22,850,516.07Z"/><path class="cls-6" d="M890.9,463.18s-59.79,27.28-122.19,96.5c0,0-24.05,13.19-13-8.29C755.71,551.39,819.4,484.36,890.9,463.18Z"/><path class="cls-1" d="M898.24,451s-102.24-10.37-149,22.16c0,0-16.89-.19-4.55-11.87C744.66,461.29,799,429.54,898.24,451Z"/><path class="cls-6" d="M898.24,436.46s-28.8-47.07-136.62-22.15c0,0-55.32,15.23-55.32,17.3,0,0-36.93,2.49-34.78-12.54a11.12,11.12,0,0,1,.73-2.68c7.09-18,53.32-27.66,134.19-22.82C806.44,393.57,878.8,405.32,898.24,436.46Z"/><path class="cls-1" d="M898.24,410.85S846.65,350.07,650,278c0,0-20.18-18.18,13.62-13.07C663.57,264.88,843.25,330.43,898.24,410.85Z"/><path class="cls-6" d="M846.28,328,734.41,196.75s-8.3-23.64,10.25-12.23Z"/><path class="cls-3" d="M942.43,218.69c-23.38-6.71-8.27,80.76-9.06,71.69-2.4-27.53,24.86-67.16,9.06-71.69Z"/><path class="cls-5" d="M907.31,429S901,354.85,809.13,209c0,0-13.58-39.11,12.72-17.92C821.85,191.05,870,239.94,907.31,429Z"/><path class="cls-3" d="M907.31,392.33,886.42,213.87s3.06-31.79,16.83-7.34C903.25,206.53,910.57,373.17,907.31,392.33Z"/><path class="cls-5" d="M916.38,429s14.09-116.22,41.8-138c0,0,17-13.61,7.82,10.84C966,301.88,923.38,385,916.38,429Z"/><path class="cls-3" d="M926.21,429s13.27-69.36,83.11-134.21c0,0,31.67-12.26,27.08,12.07C1036.4,306.88,936,388.14,926.21,429Z"/><path class="cls-5" d="M933.23,440.42s74.85-95.64,217.17-145.61c0,0,56.62-12.25,40.56,12.07C1191,306.88,1016.52,364.76,933.23,440.42Z"/><path class="cls-3" d="M942.55,440.42s29.57-59.06,286.66-80.06c0,0,109.43-6.33,65.81,27.08C1295,387.44,997.14,385.7,942.55,440.42Z"/><path class="cls-5" d="M962.17,440.42s84-22,161.75,44c0,0,29.37,3.16,0-21.24C1123.92,463.18,1059,408.14,962.17,440.42Z"/><path class="cls-5" d="M921.61,450.19s105.24,2.54,171.9,116.31c0,0,5,25.28-19,10.11C1074.56,576.61,969.28,450,921.61,450.19Z"/><path class="cls-5" d="M620.07,294.81s.88,1.47,2.31,4.26c6.93,13.52,26.71,58.06,21.59,117.66L621,296.28"/><path class="cls-7" d="M636.19,301.82s32,38,35.24,56.32c0,0,5.26,14.87-6.16,2.22C665.27,360.36,647.61,313.44,636.19,301.82Z"/><path class="cls-7" d="M588.63,295.06s-57.1,23.31-67.16,40.44c0,0-12,12.62,8.1,5.21C529.57,340.71,568.87,301.41,588.63,295.06Z"/><path class="cls-5" d="M636.19,294.81s42.18-8.95,116.62,61c0,0,21.48,9.09,12.13-7.5C764.94,348.27,707.31,297.19,636.19,294.81Z"/><path class="cls-7" d="M636.19,259.25l50.36-93.44s0-14.38-7.79-2.77C678.76,163,636.7,252.06,636.19,259.25Z"/><path class="cls-5" d="M620.07,274.18l2.11-89.42s-4.68-12.57-7.27,0l5.16,91.63"/><path class="cls-7" d="M611.79,273.08s-28-85.16-101.75-144.32c0,0-21.8-8.3-13.5,4.42C496.54,133.18,587.83,212.67,611.79,273.08Z"/><path class="cls-5" d="M599.86,267s-33.75-44.89-58.15-58.11c0,0-16.61-2.18-6.23,9.44C535.48,218.32,574.94,238.79,599.86,267Z"/><path class="cls-7" d="M604.53,280.18s-55-48.58-170.28-55.76c0,0-31.23-2.77-2.64,10.5C431.61,234.92,552.1,248.59,604.53,280.18Z"/><path class="cls-5" d="M604.53,285s-81.1-14.74-101.77,1.59c0,0-12.86,10,5.56,8.32C508.32,294.88,573.46,280.66,604.53,285Z"/><path class="cls-8" d="M614.64,298.41s-21.83,50.69-23.93,127.91c0,0-7.66,21.71-12,2.54C578.74,428.86,582.73,352.19,614.64,298.41Z"/><path class="cls-1" d="M620,284.29s-42.79,39.94-83.08,191.81c0,0-12.42,15.61-11.1-10.47C525.79,465.63,562.32,326.9,620,284.29Z"/><path class="cls-8" d="M1343.9,486.88c5.32.15,7.2,8.91,4.51,13.7-2.4,4.77-6.53,4.59-11.9,4.42s-7.21-8.91-4.51-13.69C1334.38,486.54,1338.53,486.73,1343.9,486.88Z"/><path class="cls-8" d="M1347.58,550.69c2.8-2.63,9.05-.92,10,6.27.46,6.72-3.88,9.35-7.73,8.69-4-.66-6.6-4.94-6.85-6.82A12.88,12.88,0,0,1,1347.58,550.69Z"/><path class="cls-8" d="M1365.33,583c6,5.42,8.67,12.33,7.23,17.5-1.53,5.78-8.55,11.48-16.1,10.07s-12.9-8.78-10.33-18.67C1349.17,581.39,1359.71,577.78,1365.33,583Z"/><path class="cls-8" d="M1352.76,634.19a7.15,7.15,0,0,1,5.54,8.27,6.81,6.81,0,0,1-7.76,5.91,7.16,7.16,0,0,1-5.55-8.28A6.82,6.82,0,0,1,1352.76,634.19Z"/><path class="cls-8" d="M1250.72,441.18c6.12,1.08,10.26,7.25,9.24,13.78s-6.81,10.92-12.94,9.84-10.25-7.26-9.23-13.78S1244.6,440.09,1250.72,441.18Z"/><path class="cls-8" d="M1256.63,490.8c3.85-.25,5.79,7.52.23,12-5.8,4.14-12-.33-10.59-4.13,1.37-4.16,1.71-7.37,2.55-7.88C1249.53,490.13,1252.5,490.83,1256.63,490.8Z"/><path class="cls-8" d="M13.61,646.38C8.93,643.68,11,635,15.41,632c4.16-3.1,7.77-.94,12.49,1.8s2.63,11.42-1.8,14.38C22,651.27,18.33,649.11,13.61,646.38Z"/><path class="cls-8" d="M37.45,587.71c-3.62,1-8.46-3.55-6.21-10.39,2.44-6.21,7.44-6.47,10.59-4,3.31,2.53,3.79,7.58,3.2,9.38C44.32,584.08,41.63,586.79,37.45,587.71Z"/><path class="cls-8" d="M35.35,550.36c-3.09-7.74-2.49-15.18,1-19.09,3.83-4.42,12.5-6.12,18.63-1.22s7.77,14.05,1.28,21.64C49.09,559.57,38.15,557.7,35.35,550.36Z"/><path class="cls-8" d="M68.33,510.76a7.5,7.5,0,0,1-1.43-10.05,6.49,6.49,0,0,1,9.43-1.52,7.49,7.49,0,0,1,1.43,10.05A6.48,6.48,0,0,1,68.33,510.76Z"/><path class="cls-8" d="M77.26,732.06a12.49,12.49,0,0,1-2.38-16.74,10.8,10.8,0,0,1,15.72-2.54A12.48,12.48,0,0,1,93,729.52,10.79,10.79,0,0,1,77.26,732.06Z"/><path class="cls-8" d="M93.08,685c-3.53-1.63-2-9.49,4.9-10.81,6.93-.9,10.61,6.1,7.7,8.79-3,3-4.66,5.74-5.62,5.79C99.13,689,96.79,686.93,93.08,685Z"/><path class="cls-8" d="M345.23,20.31c.65-5.63,9-6.79,13.23-3.48,4.23,3,3.67,7.36,3,13s-9,6.78-13.23,3.47C344,30.36,344.57,26,345.23,20.31Z"/><path class="cls-8" d="M405.21,22.48c-2.18-3.22,0-9.68,6.82-10,6.32.15,8.37,5,7.38,9-1,4.21-5.24,6.53-7,6.61C410.9,28,407.56,26.29,405.21,22.48Z"/><path class="cls-8" d="M437.09,6.73c5.64-5.88,12.35-8,17-6,5.27,2.17,9.93,10.15,7.89,18S452.58,31.61,443.58,28C434.07,23.72,431.7,12.19,437.09,6.73Z"/><path class="cls-8" d="M483.76,25A6.72,6.72,0,0,1,492,19.86a7.24,7.24,0,0,1,4.78,8.79,6.7,6.7,0,0,1-8.25,5.09A7.24,7.24,0,0,1,483.76,25Z"/><path class="cls-8" d="M293.63,114.74c1.6-6.39,7.76-10.19,13.76-8.48s9.57,8.26,8,14.65-7.76,10.18-13.76,8.47S292,121.12,293.63,114.74Z"/><path class="cls-8" d="M340.58,113.19c.14-4.09,7.57-5.41,11.24.91,3.32,6.54-1.46,12.75-4.86,10.83-3.76-1.84-6.73-2.51-7.12-3.44C339.28,120.66,340.21,117.59,340.58,113.19Z"/><path class="cls-8" d="M934.77,46.66c3.71-4.06,11,.41,12.51,5.77,1.66,5.11-1.27,8.22-5,12.31s-11-.42-12.51-5.76C928.08,53.87,931,50.76,934.77,46.66Z"/><path class="cls-8" d="M981.27,87.08c.09-4,5.51-7.69,11.08-3.52,4.94,4.19,3.81,9.38.75,11.94a8.57,8.57,0,0,1-9.36.73C982.68,95.12,981,91.62,981.27,87.08Z"/><path class="cls-8" d="M1015.59,95.12c7.83-1.05,14.38,1.58,17,6.22,3,5.12,2.13,14.48-4,19.42s-14.81,4.13-19.89-4.58C1003.52,106.68,1008.19,96,1015.59,95.12Z"/><path class="cls-8" d="M1042.37,139.71a6.47,6.47,0,0,1,9.46,1.27,7.5,7.5,0,0,1-1.2,10.08,6.45,6.45,0,0,1-9.46-1.28A7.49,7.49,0,0,1,1042.37,139.71Z"/><path class="cls-8" d="M840,88.53a10.79,10.79,0,0,1,15.78,2.13,12.49,12.49,0,0,1-2,16.79A10.78,10.78,0,0,1,838,105.32,12.49,12.49,0,0,1,840,88.53Z"/><path class="cls-8" d="M878.25,117.58c2.44-3.17,9.11.58,8.43,8-1.07,7.35-8.4,9.21-10,5.49-1.94-3.9-3.92-6.35-3.7-7.34C873,122.68,875.46,120.84,878.25,117.58Z"/><path class="cls-1" d="M133.8,639.83a11.29,11.29,0,0,1-16.57,1.58,13.09,13.09,0,0,1-1.49-17.65,11.26,11.26,0,0,1,16.56-1.58A13.1,13.1,0,0,1,133.8,639.83Z"/><polygon class="cls-1" points="80.93 591.27 88.75 596.44 97.43 593.16 98.51 602.9 106.33 608.08 99.85 615.04 100.93 624.78 91.77 623.74 85.29 630.7 80.36 622.43 71.2 621.38 74.2 612.1 69.26 603.83 77.94 600.54 80.93 591.27"/><polygon class="cls-1" points="124.32 568.07 130.41 572.11 137.17 569.54 138.01 577.13 144.1 581.17 139.06 586.6 139.9 594.19 132.76 593.37 127.71 598.8 123.86 592.35 116.73 591.53 119.07 584.3 115.22 577.85 121.98 575.3 124.32 568.07"/><path class="cls-1" d="M118.41,248.79c-6.22-1.94-9.8-8.9-8-15.54s8.35-10.45,14.59-8.51,9.81,8.91,8,15.55S124.66,250.74,118.41,248.79Z"/><polygon class="cls-1" points="139.09 177.78 137.76 187.48 144.06 194.64 136.1 199.58 134.77 209.29 126.18 205.75 118.23 210.69 115.47 201.33 106.89 197.79 112.04 189.66 109.28 180.3 118.47 179.53 123.62 171.4 129.91 178.55 139.09 177.78"/><polygon class="cls-1" points="176.39 210.86 175.35 218.43 180.26 224 174.06 227.85 173.03 235.42 166.33 232.66 160.14 236.51 157.99 229.22 151.3 226.46 155.31 220.12 153.17 212.83 160.32 212.22 164.34 205.89 169.24 211.47 176.39 210.86"/><path class="cls-1" d="M448.45,112.53a7.34,7.34,0,0,1,2.43,9.66,6.41,6.41,0,0,1-9.06,2.58,7.31,7.31,0,0,1-2.43-9.65A6.42,6.42,0,0,1,448.45,112.53Z"/><polygon class="cls-1" points="428.23 148.52 430.18 143.39 427.62 138.57 432.6 137 434.55 131.86 438.81 135.02 443.79 133.44 444.13 138.96 448.39 142.12 444.55 145.85 444.89 151.37 439.76 150.49 435.92 154.21 433.36 149.4 428.23 148.52"/><polygon class="cls-1" points="411.93 125.09 413.44 121.09 411.45 117.34 415.33 116.11 416.85 112.11 420.17 114.57 424.05 113.34 424.31 117.64 427.63 120.1 424.64 123.01 424.91 127.31 420.91 126.63 417.92 129.53 415.93 125.77 411.93 125.09"/><path class="cls-1" d="M908.1,144.44c-.16-5.1,3.59-9.4,8.4-9.57a9.28,9.28,0,1,1-8.4,9.57Z"/><polygon class="cls-1" points="959.73 143.44 953.02 144.69 949.76 151.07 944.65 146.26 937.95 147.52 938.29 140.27 933.18 135.47 938.72 131.24 939.06 124 945.61 125.96 951.15 121.73 953.79 128.42 960.35 130.39 957.09 136.75 959.73 143.44"/><polygon class="cls-1" points="946.56 179.03 941.33 180 938.79 184.96 934.81 181.22 929.58 182.2 929.85 176.55 925.87 172.81 930.19 169.51 930.45 163.87 935.56 165.4 939.88 162.1 941.93 167.32 947.04 168.85 944.5 173.81 946.56 179.03"/><path class="cls-1" d="M1110.85,559.17c-.16-5.11,3.6-9.41,8.4-9.57a8.93,8.93,0,0,1,9,8.93c.17,5.12-3.59,9.41-8.39,9.58A8.94,8.94,0,0,1,1110.85,559.17Z"/><polygon class="cls-1" points="1162.48 558.16 1155.77 559.41 1152.51 565.79 1147.4 560.98 1140.7 562.24 1141.04 554.99 1135.93 550.2 1141.47 545.96 1141.81 538.72 1148.36 540.68 1153.9 536.45 1156.55 543.14 1163.1 545.11 1159.84 551.47 1162.48 558.16"/><polygon class="cls-1" points="1149.31 593.74 1144.08 594.72 1141.54 599.68 1137.57 595.94 1132.34 596.92 1132.6 591.27 1128.63 587.53 1132.94 584.23 1133.2 578.59 1138.31 580.12 1142.63 576.82 1144.68 582.03 1149.79 583.57 1147.25 588.53 1149.31 593.74"/><path class="cls-1" d="M346.31,590.78c-.16-5.1,3.6-9.4,8.4-9.57a8.94,8.94,0,0,1,9,8.94c.17,5.12-3.6,9.41-8.4,9.58A9,9,0,0,1,346.31,590.78Z"/><polygon class="cls-1" points="397.94 589.78 391.23 591.03 387.97 597.4 382.86 592.6 376.16 593.85 376.5 586.6 371.39 581.81 376.93 577.57 377.27 570.33 383.82 572.29 389.36 568.07 392 574.75 398.56 576.72 395.3 583.09 397.94 589.78"/><polygon class="cls-1" points="384.77 625.36 379.54 626.34 377 631.3 373.02 627.56 367.79 628.53 368.06 622.89 364.08 619.14 368.4 615.85 368.66 610.2 373.77 611.73 378.08 608.44 380.14 613.65 385.25 615.19 382.71 620.15 384.77 625.36"/><polygon class="cls-2" points="281.88 654.2 274.87 666.45 287.95 669.84 274.87 673.24 281.87 685.48 270.37 678.03 267.19 691.95 264 678.03 252.51 685.48 259.5 673.24 246.44 669.84 259.5 666.45 252.5 654.2 264.01 661.65 267.19 647.73 270.37 661.66 281.88 654.2"/><polygon class="cls-2" points="35.44 220.87 28.44 233.12 41.51 236.51 28.44 239.9 35.44 252.15 23.93 244.7 20.75 258.62 17.56 244.69 6.08 252.15 13.06 239.9 0 236.52 13.06 233.12 6.07 220.87 17.57 228.32 20.75 214.4 23.93 228.32 35.44 220.87"/><polygon class="cls-2" points="281.88 50.67 274.87 62.92 287.95 66.31 274.87 69.71 281.87 81.95 270.37 74.5 267.19 88.42 264 74.5 252.51 81.95 259.5 69.71 246.44 66.32 259.5 62.92 252.5 50.67 264.01 58.13 267.19 44.2 270.37 58.13 281.88 50.67"/><polygon class="cls-2" points="676.05 93.68 669.05 105.93 682.13 109.32 669.05 112.72 676.05 124.96 664.55 117.52 661.37 131.43 658.18 117.51 646.69 124.96 653.68 112.72 640.61 109.33 653.68 105.93 646.68 93.69 658.18 101.14 661.37 87.22 664.55 101.14 676.05 93.68"/><polygon class="cls-2" points="912.92 721.48 905.92 733.73 919 737.12 905.92 740.51 912.92 752.76 901.42 745.31 898.24 759.23 895.04 745.3 883.56 752.76 890.55 740.51 877.48 737.12 890.55 733.73 883.55 721.48 895.05 728.93 898.24 715.01 901.42 728.93 912.92 721.48"/><polygon class="cls-2" points="752.81 32.33 775.23 19.78 770.95 46.37 789.09 65.2 764.02 69.08 752.81 93.27 741.6 69.08 716.53 65.2 734.67 46.37 730.38 19.78 752.81 32.33"/><polygon class="cls-2" points="497.02 649.87 519.45 637.32 515.16 663.91 533.3 682.74 508.24 686.62 497.02 710.82 485.81 686.62 460.74 682.74 478.88 663.91 474.6 637.32 497.02 649.87"/><rect class="cls-8" x="68.15" y="316.2" width="1164.03" height="362" rx="44.77"/><rect class="cls-8" x="506.58" y="643.95" width="293.09" height="60" rx="29.7"/><rect class="cls-2" x="506.58" y="639.13" width="293.09" height="60" rx="29.7"/><path class="cls-9" d="M591,671.32v9h-5V656.92h6.81q4.75,0,7,1.73a6.91,6.91,0,0,1,1.15,8.94,7.37,7.37,0,0,1-3.21,2.51q5.28,7.89,6.87,10.18h-5.49l-5.58-9Zm0-4h1.6a6.14,6.14,0,0,0,3.47-.78,2.8,2.8,0,0,0,1.12-2.46,2.57,2.57,0,0,0-1.15-2.37,6.92,6.92,0,0,0-3.54-.7H591Z"/><path class="cls-9" d="M621.1,680.28H607.64V656.92H621.1V661h-8.5v5.13h7.91v4.06H612.6v6h8.5Z"/><path class="cls-9" d="M639.76,673.8a6.05,6.05,0,0,1-2.27,5,9.87,9.87,0,0,1-6.34,1.82,15,15,0,0,1-6.62-1.4v-4.61a26.68,26.68,0,0,0,4,1.49,11.71,11.71,0,0,0,3,.43,4.29,4.29,0,0,0,2.5-.62,2.13,2.13,0,0,0,.87-1.85,2,2,0,0,0-.38-1.23,4.26,4.26,0,0,0-1.13-1,27.68,27.68,0,0,0-3-1.58,14.8,14.8,0,0,1-3.22-1.93,7.43,7.43,0,0,1-1.71-2.16,6.24,6.24,0,0,1-.63-2.88,6,6,0,0,1,2.1-4.87,8.73,8.73,0,0,1,5.81-1.78,13.58,13.58,0,0,1,3.47.44,23.15,23.15,0,0,1,3.46,1.21l-1.6,3.85A22.65,22.65,0,0,0,635,661a10,10,0,0,0-2.4-.3,3.22,3.22,0,0,0-2.16.65,2.17,2.17,0,0,0-.75,1.71,2.11,2.11,0,0,0,.3,1.14,3.38,3.38,0,0,0,1,.95,30.75,30.75,0,0,0,3.14,1.64,12.47,12.47,0,0,1,4.49,3.14A6.11,6.11,0,0,1,639.76,673.8Z"/><path class="cls-9" d="M653,680.28h-5V661h-6.35v-4.12h17.65V661H653Z"/><path class="cls-9" d="M677.25,680.28l-1.69-5.56H667l-1.69,5.56H660l8.25-23.46h6l8.28,23.46Zm-2.87-9.71Q672,663,671.73,662c-.2-.66-.34-1.18-.42-1.57q-.52,2.06-3,10.12Z"/><path class="cls-9" d="M690.49,671.32v9h-5V656.92h6.81q4.75,0,7,1.73a6.94,6.94,0,0,1,1.15,8.94,7.49,7.49,0,0,1-3.21,2.51q5.26,7.89,6.87,10.18h-5.5l-5.58-9Zm0-4h1.59a6.12,6.12,0,0,0,3.47-.78,2.78,2.78,0,0,0,1.12-2.46,2.57,2.57,0,0,0-1.14-2.37A6.92,6.92,0,0,0,692,661h-1.5Z"/><path class="cls-9" d="M716.15,680.28H711.2V661h-6.35v-4.12h17.64V661h-6.34Z"/><text class="cls-10" transform="translate(146.72 573.83)">YOU WIN</text></g></g></svg>